<svg width="60" height="60" viewBox="0 0 60 60" fill="none" xmlns="http://www.w3.org/2000/svg">
<g id="Group 38">
<circle id="Ellipse 4" cx="30.0001" cy="30.0001" r="30.0001" fill="#FFA98E"/>
<g id="Group 29">
<path id="Vector" d="M43.0094 26.4552C43.3228 22.1971 43.5108 17.4845 43.2843 16.8249C42.6927 16.3534 37.9114 14.2905 36.902 13.9902C36.4156 14.5925 34.7804 17.4369 33.3673 20.0455C33.3443 20.0926 33.3116 20.1347 33.2713 20.1693C33.231 20.204 33.1838 20.2303 33.1327 20.2469C33.0816 20.2635 33.0275 20.2699 32.9737 20.2657C32.9199 20.2616 32.8676 20.247 32.8198 20.2228C32.772 20.1987 32.7298 20.1654 32.6957 20.1251C32.6615 20.0847 32.6362 20.0381 32.6211 19.9881C32.6061 19.938 32.6016 19.8856 32.6081 19.8338C32.6146 19.7821 32.6318 19.7322 32.6587 19.687C36.1533 13.2345 36.5025 13.2054 36.7532 13.1852C37.3223 13.136 43.3938 15.8027 43.896 16.317C44.0631 16.4906 44.323 16.7538 44.0941 21.7402C43.9838 24.1292 43.8116 26.4859 43.8091 26.5093C43.8055 26.56 43.7916 26.6094 43.7682 26.6549C43.7447 26.7003 43.7123 26.7409 43.6726 26.7742C43.6329 26.8075 43.5869 26.8329 43.537 26.849C43.4872 26.865 43.4345 26.8714 43.3821 26.8678H43.3721C43.2678 26.8585 43.1714 26.8102 43.1036 26.733C43.0358 26.6559 43.002 26.5562 43.0094 26.4552Z" fill="#FFE3B0"/>
<path id="Vector_2" d="M48.3947 33.3854C45.7419 42.6219 42.6262 46.9758 42.6262 46.9758C36.425 48.4995 23.183 47.7236 23.183 47.7236C15.6158 41.4795 10.5262 32.3311 10.5262 32.3311C10.2972 27.3512 11.6428 20.5527 11.6428 20.5527L48.3947 33.3854Z" fill="#8ED6FF"/>
<path id="Vector_3" d="M23.3555 45.6445C25.6118 45.7568 35.9312 46.1885 41.3854 45.0262C42.1313 43.8291 44.2965 40.0407 46.2896 33.5073L12.391 21.6055C12.0327 23.7973 11.4631 27.8796 11.5647 31.1818C12.46 32.7181 17.0116 40.2504 23.3555 45.6445Z" fill="#8ED6FF"/>
<path id="Vector_4" d="M24.393 34.7671C24.4546 34.3986 24.7832 34.168 25.1133 34.2553L25.8269 34.444C26.1536 34.5304 26.3526 34.8967 26.2713 35.2565C25.8816 36.9816 24.8473 41.8242 24.4564 46.2608C24.4201 46.6729 24.0578 46.9538 23.696 46.8448L23.5683 46.8063C23.3059 46.7273 23.1243 46.463 23.1318 46.1629C23.2355 42.0161 24.0808 36.6333 24.393 34.7671Z" fill="#FFE3B0"/>
<path id="Vector_5" d="M26.89 40.0419C30.3755 40.4038 37.4527 40.9174 44.8907 40.1681C45.1015 40.1468 45.2559 39.9436 45.2351 39.7156C45.2143 39.4876 45.0262 39.3212 44.8155 39.3424C35.2356 40.3049 26.2508 39.1563 24.9147 38.9715C24.8434 38.9617 24.7741 38.9384 24.71 38.903C17.7615 35.0701 13.2593 28.5835 12.256 27.0471C12.1347 26.8613 11.9035 26.8133 11.7275 26.9376C11.5483 27.0641 11.497 27.319 11.6202 27.5082C12.6528 29.0944 17.3163 35.8176 24.52 39.7317C24.5571 39.7518 24.5973 39.7653 24.6384 39.7716C24.668 39.7759 25.4909 39.8972 26.89 40.0419Z" fill="#FFE3B0"/>
<path id="Vector_6" d="M26.4685 43.2048C30.0349 43.5627 37.274 44.0715 44.8823 43.3298C45.0982 43.3088 45.2563 43.1072 45.235 42.881C45.2138 42.6549 45.0212 42.4898 44.8054 42.5108C35.1648 43.4491 26.1116 42.3637 24.5192 42.1541C24.4151 42.1404 24.3181 42.0993 24.2321 42.0363C16.4272 36.3154 13.1101 31.5214 12.2978 30.2242C12.1786 30.034 11.9376 29.9694 11.7486 30.0813C11.5603 30.1928 11.494 30.4399 11.6107 30.6308C12.4242 31.962 15.7742 36.8843 23.9955 42.8674C24.0461 42.904 24.1042 42.9279 24.165 42.9369C24.1945 42.9412 25.0338 43.0606 26.4685 43.2048Z" fill="#FFE3B0"/>
<path id="Vector_7" d="M27.5353 36.9046C31.0984 37.2513 38.3331 37.7444 45.9352 37.0258C46.151 37.0054 46.3089 36.8101 46.2877 36.591C46.2664 36.3719 46.0739 36.212 45.8583 36.2323C36.0953 37.1537 26.9353 36.0607 25.5268 35.8773C25.4485 35.867 25.3747 35.8428 25.3055 35.8042C24.0607 35.1096 16.0686 30.4549 12.2929 23.9134C12.183 23.7229 11.944 23.6537 11.7541 23.7611C11.564 23.8687 11.4953 24.1127 11.6053 24.3036C15.7967 31.5753 24.7209 36.3981 25.1051 36.6027C25.1452 36.6242 25.1887 36.6386 25.2335 36.6452C25.2622 36.6493 26.1009 36.7649 27.5353 36.9046Z" fill="#FFE3B0"/>
<path id="Vector_8" d="M37.0343 46.8365C37.2179 46.9234 37.4295 46.8267 37.5039 46.6182C37.9718 45.3071 39.5655 40.6955 41.0134 34.7464C41.0657 34.5316 40.9533 34.3089 40.7628 34.2508C40.5724 34.1927 40.3762 34.321 40.324 34.5356C38.8841 40.452 37.3019 45.0279 36.8417 46.3174C36.7688 46.5219 36.8541 46.7513 37.0343 46.8365Z" fill="#FFE3B0"/>
<path id="Vector_9" d="M30.5009 46.4472C30.4865 46.6673 30.6404 46.854 30.8424 46.8676C31.0424 46.8811 31.2141 46.7194 31.2284 46.5014C31.3288 44.9685 31.7432 39.2312 32.5976 34.7179C32.6383 34.5026 32.5129 34.2916 32.3158 34.2457C32.1194 34.1999 31.9261 34.3353 31.8854 34.5498C31.0207 39.1104 30.6024 44.8976 30.5009 46.4472Z" fill="#FFE3B0"/>
<path id="Vector_10" d="M17.8684 41.2168C17.8681 41.4342 18.034 41.608 18.2357 41.6053C18.4376 41.6026 18.5989 41.4242 18.5992 41.2067C18.6063 36.6411 19.649 31.8503 19.9625 30.5093C20.0108 30.3028 19.8986 30.0973 19.708 30.0408C19.5097 29.9821 19.3028 30.1074 19.2526 30.3223C18.9292 31.7091 17.8741 36.5742 17.8684 41.2168Z" fill="#FFE3B0"/>
<path id="Vector_11" d="M13.6592 35.9173C13.6429 36.1365 13.7856 36.3248 13.9758 36.3411C14.1761 36.3583 14.3589 36.1776 14.3763 35.9468C14.4838 34.525 14.8931 29.8405 15.7493 26.3505C15.8032 26.1308 15.6964 25.9001 15.507 25.8338C15.3175 25.7676 15.117 25.8909 15.0629 26.1106C14.1677 29.7476 13.7635 34.5171 13.6592 35.9173Z" fill="#FFE3B0"/>
<path id="Vector_12" d="M11.8321 15.2896L50.4802 29.6274C50.6426 31.3264 49.7532 33.8845 49.7532 33.8845C40.5796 35.9652 25.0922 35.1195 25.0922 35.1195C16.0429 29.4143 10.5 19.967 10.5 19.967C10.5 19.967 10.8809 17.2914 11.8321 15.2896Z" fill="#FFE3B0"/>
<path id="Vector_13" d="M50.5001 29.1651C36.6797 22.0017 30.4809 16.4261 30.4809 16.4261C25.175 16.6291 18.7314 16.1728 11.5527 15.2896C16.207 24.7066 25.6735 30.7953 25.6735 30.7953C37.2224 31.9594 50.5001 29.1651 50.5001 29.1651Z" fill="#8ED6FF"/>
<path id="Vector_14" d="M13.658 16.3423C15.2997 19.2525 17.3663 21.799 19.3549 23.8792C22.4806 27.1449 25.4067 29.2511 26.164 29.7754H26.197C29.5995 30.1065 33.163 30.0771 36.469 29.8781C40.1122 29.6505 43.7415 29.2324 47.3422 28.6257C36.9052 22.877 31.4988 18.4045 30.2071 17.2784C26.5527 17.3982 22.3003 17.2172 17.2231 16.7239C16.0835 16.6138 14.8901 16.4858 13.658 16.3423Z" fill="#FFA98E"/>
<path id="Vector_15" d="M18.9211 23.7104C21.9972 27.0657 24.8768 29.2296 25.622 29.7683H25.6545C29.003 30.1084 32.5098 30.0782 35.7632 29.8738C31.367 26.8579 28.8818 24.6965 28.0653 23.9551C25.3773 24.0506 22.3599 23.9685 18.9211 23.7104Z" fill="#FFE3B0"/>
<path id="Vector_16" d="M21.4908 29.9905C21.3962 29.946 21.3228 29.8653 21.2866 29.766C21.2504 29.6666 21.2543 29.5567 21.2974 29.4603C23.0646 25.5426 25.538 19.7078 25.5069 19.0043C25.3725 18.2033 20.5961 12.7527 19.5262 11.9258C18.7364 12.526 15.8198 16.8137 13.3267 20.8173C13.2704 20.9054 13.1822 20.9674 13.0813 20.9898C12.9803 21.0122 12.8748 20.9932 12.7875 20.9369C12.7002 20.8806 12.6383 20.7916 12.6152 20.6891C12.5921 20.5867 12.6096 20.4791 12.6639 20.3897C12.6778 20.3663 14.1181 18.0557 15.6403 15.7868C18.8306 11.0289 19.2738 11.0531 19.5892 11.0839C20.0136 11.1256 21.7472 13.0094 23.1269 14.5848C25.1677 16.9071 26.2327 18.3658 26.2868 18.9193C26.3966 19.9796 23.0376 27.5107 22.011 29.7937C21.9675 29.8899 21.8883 29.9645 21.7908 30.0014C21.6933 30.0383 21.5854 30.0343 21.4908 29.9905Z" fill="#FFE3B0"/>
</g>
</g>
</svg>
