<svg width="253" height="291" viewBox="0 0 253 291" fill="none" xmlns="http://www.w3.org/2000/svg">
<path d="M216.899 87.3013C216.925 87.2471 217.028 87.2407 217.086 87.2128C223.095 74.2133 228.898 65.111 229.717 56.8125C230.026 54.0802 229.711 51.3149 228.796 48.7252C226.827 43.1007 221.833 37.3174 212.337 30.3376C204.009 24.2267 193.345 16.9105 183.194 18.4634C181.43 18.7429 179.714 19.2672 178.093 20.0212C170.403 23.5378 163.77 31.9439 153.449 41.828C153.409 41.8864 153.379 41.9503 153.358 42.0176C144.249 40.7722 136.995 42.4549 133.412 47.4796C132.048 49.425 131.261 51.7156 131.143 54.0865C130.294 65.8895 142.355 83.6291 161.752 97.4604C185.162 114.198 210.468 118.889 218.246 108C221.829 102.976 221.047 95.5212 216.899 87.3013Z" fill="#FFCECE"/>
<path d="M149.819 55.423C151.293 59.0829 153.218 62.5356 155.549 65.7009C160.221 72.0455 166.163 77.1926 172.269 81.8807C178.39 86.773 185.382 90.4491 192.883 92.7182C196.673 93.7862 200.579 94.4086 204.523 94.5731C208.424 94.7033 212.334 94.3963 216.18 93.6577C216.314 93.6062 216.426 93.5098 216.499 93.3849C216.571 93.26 216.599 93.1143 216.578 92.9723C216.557 92.8303 216.487 92.7008 216.381 92.6057C216.276 92.5106 216.14 92.4558 215.998 92.4505C212.231 92.8829 208.437 92.9454 204.668 92.6373C200.899 92.3407 197.182 91.6126 193.587 90.467C186.439 88.0788 179.775 84.4466 173.893 79.7331C167.859 75.1243 162.08 70.1444 157.438 64.2179C152.704 58.3283 149.603 51.2638 148.446 43.7325C148.411 43.573 148.319 43.4329 148.187 43.3393C148.055 43.2457 147.893 43.205 147.732 43.2252C147.57 43.2453 147.421 43.3248 147.313 43.4484C147.205 43.572 147.145 43.731 147.145 43.8949C147.461 47.8586 148.362 51.7442 149.819 55.423Z" fill="#FFA98E"/>
<path d="M183.804 29.2804C184.735 31.6338 185.972 33.8536 187.484 35.8828C190.548 39.8277 194.155 43.3193 198.197 46.2544C202.164 49.3901 206.694 51.7387 211.545 53.1743C213.975 53.8519 216.479 54.2335 219.002 54.3109C221.501 54.3759 224 54.1602 226.453 53.6678C226.602 53.6362 226.736 53.5509 226.827 53.4279C226.918 53.3049 226.962 53.1528 226.949 53.0003C226.933 52.8378 226.853 52.6884 226.727 52.5848C226.601 52.4811 226.439 52.4318 226.277 52.4475C221.52 52.9136 216.72 52.403 212.172 50.9472C207.687 49.409 203.502 47.1104 199.8 44.1518C195.932 41.3594 192.422 38.1033 189.347 34.4562C186.334 30.8053 184.312 26.4385 183.477 21.776C183.448 21.6131 183.36 21.4667 183.229 21.3655C183.098 21.2642 182.934 21.2153 182.769 21.2283C182.683 21.2331 182.598 21.2549 182.52 21.2926C182.442 21.3302 182.372 21.383 182.314 21.4477C182.257 21.5124 182.212 21.5879 182.184 21.6698C182.155 21.7517 182.144 21.8384 182.149 21.9248C182.323 24.4473 182.881 26.9277 183.804 29.2804Z" fill="#FFA98E"/>
<path d="M217.169 106.189C217.16 106.108 217.136 106.029 217.097 105.958C217.058 105.886 217.005 105.824 216.941 105.773C216.878 105.723 216.805 105.686 216.726 105.665C216.648 105.644 216.566 105.638 216.486 105.649C207.669 106.792 198.733 106.045 190.265 103.459C181.884 100.673 174.068 96.4243 167.171 90.9063C160.106 85.509 153.342 79.6938 147.918 72.723C142.382 65.8205 138.771 57.5453 137.452 48.7358C137.416 48.5758 137.324 48.4352 137.191 48.3412C137.058 48.2471 136.895 48.2061 136.733 48.2261C136.571 48.2461 136.421 48.3256 136.313 48.4494C136.204 48.5733 136.144 48.7326 136.145 48.8969C136.531 53.4976 137.596 58.0067 139.307 62.2754C141.049 66.5291 143.32 70.5379 146.065 74.2066C151.521 81.5743 158.49 87.588 165.595 93.0385C169.191 95.8188 172.996 98.3132 176.979 100.5C180.99 102.681 185.226 104.423 189.614 105.696C194.003 106.943 198.526 107.677 203.093 107.883C207.64 108.055 212.197 107.726 216.684 106.9C216.837 106.863 216.972 106.77 217.062 106.638C217.152 106.506 217.19 106.346 217.169 106.189Z" fill="#FFA98E"/>
<path d="M144.531 59.1471C146.286 63.034 148.499 66.6967 151.124 70.0575C156.351 76.7677 162.828 82.3019 169.502 87.3319C176.166 92.5895 183.702 96.6374 191.768 99.2921C195.827 100.549 200.015 101.35 204.253 101.678C208.471 101.981 212.711 101.818 216.895 101.191C217.021 101.138 217.126 101.045 217.194 100.926C217.262 100.808 217.288 100.67 217.27 100.535C217.251 100.399 217.189 100.274 217.091 100.178C216.994 100.082 216.868 100.021 216.733 100.005C212.629 100.354 208.501 100.294 204.41 99.8243C200.34 99.38 196.332 98.4836 192.462 97.1516C184.734 94.3815 177.509 90.3746 171.069 85.2874C164.476 80.2962 158.141 74.9516 152.934 68.639C147.618 62.3819 144.012 54.8544 142.467 46.7872C142.441 46.6133 142.348 46.4568 142.207 46.352C142.066 46.2473 141.889 46.2028 141.715 46.2285C141.541 46.2541 141.385 46.3478 141.28 46.4889C141.175 46.6299 141.13 46.8069 141.155 46.9807C141.679 51.1803 142.817 55.2794 144.531 59.1471Z" fill="#FFA98E"/>
<path d="M217.879 87.0057C219.507 83.4717 221.096 80.2951 222.628 77.2131C226.664 69.1143 229.859 62.725 230.477 56.5745C230.805 53.7635 230.494 50.9159 229.565 48.2449C227.454 42.327 222.168 36.3956 212.869 29.5968C203.886 22.9928 193.457 16.0852 183.306 17.6793C181.484 17.9641 179.711 18.5053 178.04 19.2867C172.381 21.8778 167.386 26.9535 161.062 33.3953C158.689 35.7659 156.198 38.3125 153.398 40.9763C143.927 39.7669 136.832 41.8046 133.254 46.8276C131.842 48.8426 131.02 51.211 130.882 53.6656C130.012 65.9421 142.672 83.9773 161.661 97.5189C166.695 101.134 172.035 104.303 177.619 106.992C183.43 109.843 189.587 111.931 195.936 113.203C206.842 115.242 215.005 113.349 218.91 107.875C222.529 102.86 222.097 95.4889 217.879 87.0057ZM162.053 34.2779C168.276 27.9315 173.191 22.9286 178.621 20.4487C180.176 19.7155 181.829 19.2094 183.527 18.9459C188.307 18.1899 193.295 19.5345 198.148 21.8536C203.044 24.3722 207.698 27.3363 212.049 30.7085C221.14 37.3195 226.28 43.0484 228.253 48.6791C229.131 51.1656 229.434 53.8202 229.137 56.4429C228.52 62.3393 225.399 68.6425 221.424 76.6153C220.011 79.4232 218.579 82.3205 217.092 85.4908C216.967 85.7517 216.838 86.0216 216.709 86.2914C216.512 86.3873 216.307 86.4671 216.097 86.53C215.618 86.6966 215.129 86.8321 214.633 86.9356C209.445 88.1048 203.129 87.3863 195.303 84.7515C184.494 81.1679 174.777 74.8958 167.063 66.5234C161.072 60.012 157.27 54.0045 155.436 48.1528L155.347 47.9003C154.288 44.7185 154.111 43.1969 154.18 42.4556C154.19 42.3046 154.221 42.1556 154.27 42.0125L155.074 41.2355C157.58 38.8179 159.852 36.5205 162.053 34.2779ZM217.824 107.145C214.237 112.164 206.54 113.914 196.191 111.932C185.652 109.957 173.664 104.482 162.451 96.4701C143.84 83.1535 131.403 65.6448 132.239 53.8058C132.345 51.5827 133.077 49.4335 134.35 47.6057C137.598 43.1326 144.014 41.2678 152.805 42.3291C152.703 43.508 153.109 45.4266 154.048 48.352L154.128 48.6002C156.028 54.638 159.926 60.8131 166.067 67.4734C171.925 73.8297 178.951 79.0003 186.764 82.7048C189.408 83.9647 192.125 85.0674 194.9 86.0072C202.951 88.7493 209.525 89.4587 214.948 88.2362C215.553 88.1188 216.148 87.956 216.728 87.749C220.164 94.7975 220.921 101.075 218.779 105.545C218.506 106.104 218.187 106.64 217.824 107.145Z" fill="#FFA98E"/>
<path d="M234.587 184.044C234.304 182.952 234.058 181.786 233.783 180.654C233.469 179.588 233.224 178.502 233.052 177.403C233.009 176.992 232.138 174.277 231.811 172.732C231.084 170.338 230.23 167.984 229.254 165.68C226.802 159.967 223.502 154.655 219.467 149.923C218.745 149.136 217.722 152.771 211.259 156.17C194.975 164.727 174.417 153.3 174.312 134.126C174.306 131.451 174.695 128.789 175.467 126.227C175.563 125.795 175.384 125.766 174.333 125.626C164.856 124.499 155.246 125.553 146.238 128.708C143.361 129.276 135.107 133.452 113.261 138.421C112.766 138.474 112.307 138.71 111.976 139.081C111.644 139.453 111.462 139.935 111.465 140.433C111.263 149.655 116.086 164.982 120.671 170.928C121.776 172.357 122.879 172.447 124.513 172.19C128.048 171.582 132.397 169.167 135.447 167.124C135.776 166.91 136.044 166.614 136.225 166.267C137.258 164.302 138.374 162.387 139.298 160.357C139.884 159.066 140.592 157.822 141.178 156.531C141.763 155.239 142.425 153.79 143.112 152.459C143.313 151.834 143.597 151.239 143.958 150.69C143.958 150.69 144.046 150.71 144.095 150.72C144.707 150.794 132.914 173.246 129.769 178.131C121.272 192.67 111.813 206.627 101.456 219.909C96.1598 226.593 96.0113 226.519 95.4662 227.49C94.1261 229.86 95.214 231.738 96.4778 234.169C103.481 247.734 114.442 258.854 127.909 266.058C141.377 273.263 156.717 276.213 171.902 274.518C174.204 274.265 176.143 273.654 176.943 271.257C178.734 265.877 180.898 259.004 185.349 247.953C192.897 229.046 202.022 210.806 212.627 193.426C213.299 192.349 214.016 191.303 214.64 190.205C214.763 189.967 214.943 189.763 215.164 189.611C215.164 189.611 215.252 189.63 215.292 189.639C215.331 189.648 215.292 189.639 215.276 189.708C205.934 204.877 205.784 204.947 205.969 206.388C206.026 206.781 205.575 213.508 207.98 218.55C208.898 220.452 211.138 220.433 213.771 220.315C221.446 219.954 234.114 216.363 241.697 211.399C243.965 209.863 240.204 207.496 234.587 184.044Z" fill="#8ED6FF"/>
<path d="M189.243 149.324C195.793 153.511 206.695 152.276 212.933 145.267C213.659 144.467 213.665 144.396 212.832 143.716C210.323 141.608 207.693 139.647 204.957 137.841C202.46 136.256 200.391 135.075 198.57 133.949C197.993 133.625 197.395 133.34 196.78 133.098C192.165 130.649 187.316 128.666 182.306 127.179C181.674 127.039 181.585 127.019 181.391 127.658C179.947 132.697 180.566 138.102 183.112 142.688C184.567 145.377 186.675 147.658 189.243 149.324Z" fill="#8ED6FF"/>
<path d="M174.769 129.297C174.96 128.433 175.149 127.58 175.4 126.73C175.65 125.88 175.672 126.01 180.882 127.256C181.703 127.438 181.817 127.661 181.588 128.276C178.755 137.673 183.971 148.038 190.869 151.146C194.621 152.753 198.779 153.14 202.773 152.256C206.768 151.371 210.403 149.258 213.18 146.205C213.683 145.65 213.839 145.362 214.236 145.606C215.59 146.781 216.881 148.029 218.103 149.345C218.31 149.567 218.48 149.772 218.248 150.032C212.292 156.958 204.931 159.722 197.364 159.213C193.841 158.994 190.409 158.013 187.3 156.337C184.191 154.661 181.476 152.329 179.336 149.496C177.197 146.663 175.682 143.396 174.894 139.912C174.107 136.428 174.064 132.809 174.769 129.297Z" fill="#FFA98E"/>
<path d="M241.014 205.622C240.231 203.499 239.158 200.603 237.937 196.34C235.806 188.951 234.562 183.77 233.535 179.601C231.801 172.464 230.854 168.538 227.582 161.985C225.767 158.342 223.616 154.877 221.157 151.634C215.762 144.559 204.424 135.933 194.79 131.574C182.551 126.033 173.304 123.31 159.517 124.796C151.708 125.635 146.607 127.421 140.263 129.712C131.256 133.03 122.013 135.672 112.612 137.615C112.043 137.673 111.51 137.92 111.098 138.317C110.686 138.713 110.419 139.236 110.339 139.802C109.835 148.835 115.29 166.475 120.24 171.758C122.949 174.687 130.888 170.069 133.558 168.546L133.852 168.375C125.452 183.684 116.008 198.399 105.589 212.415C100.583 219.098 97.8929 222.331 96.2827 224.264C94.8203 225.993 94.3659 226.56 94.0672 227.489C93.831 228.198 93.7396 228.947 93.7985 229.692C93.8574 230.436 94.0653 231.162 94.4099 231.825C101.465 246.733 113.216 258.919 127.865 266.518C133.779 269.586 140.069 271.867 146.576 273.306C155.095 275.211 163.883 275.598 172.538 274.452C176.18 273.965 176.947 271.435 178.009 267.944C178.161 267.259 178.425 266.578 178.668 265.852C185.277 246.586 193.419 227.88 203.018 209.912C203.655 208.709 204.177 207.695 204.575 206.921C204.59 207.13 204.598 207.419 204.604 207.718C204.604 210.894 205.099 214.051 206.072 217.075C206.48 218.243 207.307 219.75 208.273 220.118C208.53 220.217 208.794 220.296 209.063 220.354C215.496 221.777 234.209 216.752 241.322 211.5C242.795 210.42 242.344 209.211 241.014 205.622ZM207.802 218.073C206.339 215.409 205.648 211.069 205.732 205.504C205.727 205.189 205.796 204.877 205.934 204.594C211.2 195.167 213.35 191.958 214.27 190.591C214.553 190.214 214.792 189.805 214.982 189.373C215.012 189.257 215.002 189.135 214.955 189.025C214.908 188.916 214.826 188.825 214.721 188.766C214.617 188.708 214.496 188.686 214.378 188.704C214.26 188.721 214.151 188.777 214.068 188.863C213.175 189.692 207.138 200.139 205.307 203.347L205.283 203.454C198.817 214.074 190.014 233.516 185.95 243.312C180.693 255.985 178.336 263.182 176.771 267.968C176.477 268.878 176.204 269.69 175.956 270.436C175.715 271.261 175.226 271.994 174.555 272.533C173.884 273.073 173.064 273.395 172.205 273.454C161.266 274.821 150.16 273.748 139.687 270.313C129.214 266.878 119.634 261.166 111.637 253.588C103.405 245.824 97.7261 236.695 95.3647 231.225C94.9857 230.469 94.8407 229.617 94.9482 228.778C95.0557 227.939 95.4108 227.151 95.9683 226.514C119.135 198.589 138.362 164.764 144.063 150.691C144.111 150.589 144.129 150.476 144.116 150.364C144.103 150.252 144.058 150.146 143.988 150.059C143.92 149.98 143.833 149.922 143.734 149.892C143.636 149.861 143.531 149.858 143.431 149.884C143.271 149.948 143.132 150.056 143.031 150.195C142.929 150.334 142.868 150.499 142.856 150.67C142.734 151.218 140.565 155.624 137.081 162.479L137.049 162.626C135.408 166.04 135.221 166.235 134.642 166.62C131.454 168.675 127.009 171.161 123.472 171.59C122.973 171.714 122.449 171.691 121.962 171.523C121.476 171.356 121.049 171.051 120.733 170.645C115.638 164.396 111.064 147.742 111.5 140.264C111.483 140.077 111.504 139.889 111.56 139.711C111.617 139.533 111.709 139.367 111.83 139.225C111.952 139.083 112.101 138.966 112.268 138.882C112.436 138.798 112.618 138.748 112.805 138.736C122.372 136.635 131.793 133.919 141.01 130.606C146.997 128.534 151.727 126.891 157.934 126.14C163.149 125.413 168.436 125.365 173.663 125.996L173.722 126.009C173.933 126.025 174.141 126.071 174.339 126.146C174.342 126.214 174.327 126.281 174.295 126.342L174.269 126.459C173.199 130.143 172.953 134.017 173.549 137.806C174.166 141.64 175.657 145.282 177.906 148.449C179.957 151.332 182.553 153.787 185.549 155.672L186.003 155.988C186.171 156.118 186.347 156.235 186.531 156.341C192.77 159.148 197.859 159.873 203.536 158.871C209.169 157.822 214.285 154.908 218.058 150.599C218.179 150.472 218.373 150.248 218.434 150.251C218.495 150.254 218.691 150.482 218.804 150.62C224.29 157.192 228.679 166.025 230.024 170.982C230.075 171.168 230.174 171.416 230.269 171.683C230.373 171.938 230.462 172.197 230.538 172.461C230.82 173.827 231.214 175.156 231.622 176.509L231.653 176.649C232.234 179.262 234.318 188.529 237.225 197.835C238.749 202.771 239.928 205.977 240.553 207.696C240.829 208.445 241.017 208.938 241.051 209.11C241.151 209.419 241.142 209.754 241.024 210.057C240.906 210.36 240.688 210.613 240.405 210.774C234.053 215.095 218.659 220.024 210.403 219.408C208.786 219.287 208.225 218.855 207.802 218.073ZM180.381 137.203C180.811 139.748 181.753 142.18 183.15 144.352C184.547 146.524 186.369 148.391 188.508 149.84C190.581 151.167 192.905 152.055 195.336 152.448C197.767 152.842 200.253 152.731 202.639 152.125C206.711 151.221 210.409 149.095 213.237 146.032C213.622 145.594 213.639 145.608 213.895 145.798C215.136 146.804 216.304 147.896 217.392 149.066C217.625 149.312 217.625 149.312 217.393 149.569C213.743 153.872 208.712 156.778 203.158 157.79C197.604 158.802 191.872 157.858 186.937 155.12C182.003 152.381 178.172 148.017 176.099 142.772C174.025 137.527 173.837 131.725 175.566 126.356C175.566 126.356 175.577 126.307 175.638 126.31C175.699 126.313 176.225 126.44 176.842 126.577C178.025 126.828 179.193 127.141 180.343 127.515L180.48 127.546C180.754 127.606 180.793 127.615 180.751 127.852C180.744 127.986 180.728 128.12 180.703 128.252C179.907 131.171 179.797 134.234 180.381 137.203ZM212.653 144.959C210.26 147.673 207.145 149.653 203.671 150.669C197.278 152.581 191.052 151.152 186.602 146.76C184.258 144.412 182.579 141.484 181.737 138.276C180.895 135.067 180.92 131.693 181.81 128.497L181.829 128.409C181.879 128.184 181.92 127.998 182.033 127.951C182.102 127.944 182.17 127.959 182.229 127.994L182.308 128.012C192.706 131.181 202.399 136.315 210.859 143.135C211.3 143.51 211.658 143.794 211.939 144.01C212.853 144.705 212.853 144.705 212.653 144.959Z" fill="#FFA98E"/>
<path d="M150.103 174.715C149.942 174.084 149.04 171.431 148.759 170.71C148.337 169.428 147.926 168.147 147.515 166.865C146.301 162.641 145.128 158.416 144.024 154.151C141.426 144.139 139.34 133.907 137.384 123.725C136.482 119.009 130.303 92.9589 129.681 91.2068C129.078 89.4657 128.067 87.8936 126.732 86.6214C124.911 85.123 122.965 83.7832 120.914 82.6167C119.911 81.996 116.21 79.7033 115.598 79.423C116.321 77.9813 117.604 76.049 118.256 74.6073C119.901 71.3707 121.37 68.0488 122.66 64.6557C123.38 62.2649 123.89 59.8161 124.184 57.3371C123.929 53.0951 123.336 48.8801 122.409 44.7323C120.824 37.7942 117.604 32.0375 113.331 26.4209C109.059 20.8043 103.432 16.6094 96.4303 15.3279C89.8303 14.1165 82.9595 16.4492 77.0918 19.3326C65.4265 25.0092 54.7542 34.3802 48.7861 46.0339C48.6256 46.3542 48.4652 46.6746 48.3147 47.035C47.4722 49.5179 47.8332 50.9396 48.084 52.962C48.4681 55.428 49.0143 57.8661 49.719 60.2605C50.4913 63.1339 51.3138 65.9872 52.2466 68.8005C52.5475 69.5815 52.8484 70.3524 53.1594 71.1233C54.6439 74.9077 56.3089 78.8123 58.1745 82.6067C56.5296 83.3676 47.8132 87.3122 45.1953 88.6738C43.2478 89.6281 41.5144 90.9666 40.0998 92.6084C38.9564 94.0802 38.495 96.6131 37.8029 98.3452C33.0789 109.826 27.374 120.88 20.7513 131.384C17.5662 136.461 14.0409 141.318 10.1994 145.921C8.24343 148.284 6.38782 150.697 4.32157 152.929C3.43889 153.93 2.23525 154.871 1.24225 155.933C0.856087 156.577 0.603665 157.292 0.5 158.035C0.710637 161.109 2.82704 163.972 4.81305 166.225C6.17977 167.736 7.62973 169.17 9.1562 170.52C12.9477 173.193 17.672 175.616 17.8325 175.526C20.0707 176.509 22.4329 177.182 24.8537 177.528C24.1716 179.981 23.5999 182.474 23.1586 184.987C25.4064 187.581 28.3189 189.515 31.5841 190.583L32.4968 190.864C41.2533 193.597 50.5515 195.219 59.5186 196.871C68.2126 198.472 77.0065 199.475 85.8383 199.874C90.1582 200.102 94.489 200.022 98.7975 199.634C100.819 199.432 102.828 199.121 104.816 198.703C105.267 198.603 105.728 198.503 106.2 198.382C107.313 198.082 108.427 197.802 109.55 197.521C110.346 197.38 111.115 197.113 111.827 196.73C112.115 196.051 112.353 195.352 112.539 194.638C112.599 194.348 112.659 194.047 112.73 193.747C113.298 191.224 113.793 188.688 114.214 186.138C115.157 180.431 115.869 174.745 116.421 168.978C116.421 168.778 116.421 168.577 116.421 168.387C116.501 167.827 116.571 167.266 116.631 166.695C116.792 168.577 116.979 170.456 117.193 172.332C117.945 178.87 118.898 185.347 119.791 191.865V192.025C119.939 192.408 120.202 192.737 120.543 192.966C121.546 192.966 122.65 192.866 123.673 192.796C125.037 192.716 126.411 192.656 127.765 192.465C130.419 192.073 133.045 191.514 135.629 190.793C138.833 189.931 141.974 188.847 145.027 187.55C146.221 186.959 147.374 186.328 148.488 185.688C149.902 184.857 152.229 183.685 152.5 182.093C151.818 179.59 150.775 177.188 150.103 174.715Z" fill="#FFA98E"/>
<path d="M120.338 191.107C120.178 188.535 119.628 185.963 119.427 183.401C119.157 179.899 118.577 176.397 118.187 172.944C118.087 172.004 117.997 171.073 117.897 170.132C117.367 166.21 116.966 162.267 116.756 158.314C116.576 158.425 116.306 140.302 116.256 134.529L116.216 125.292C115.886 116.797 115.746 108.281 115.036 99.8052C114.606 111.633 114.826 123.511 114.816 135.369C114.816 140.903 115.276 158.745 115.386 163.228C115.326 164.038 113.605 178.118 112.825 183.191C112.455 185.563 111.994 187.934 111.554 190.296C111.305 192.241 110.924 194.167 110.414 196.06C108.632 196.238 106.866 196.552 105.132 197.001C104.191 197.001 103.231 197 102.271 196.92C98.2427 196.514 94.2609 195.737 90.3758 194.599C81.8423 192.357 73.609 189.245 65.2156 186.543C57.2124 183.972 49.2092 181.54 40.7658 180.83C35.4937 180.389 28.871 180.83 23.759 183.311C24.3492 181.14 25.0195 179.008 25.7598 176.887C25.8798 176.727 25.9398 176.557 25.8998 176.477C29.8414 164.889 35.2936 153.912 40.0155 142.574C43.787 133.508 47.7786 124.452 50.4897 115.035C51.1 112.334 51.8203 109.642 52.2904 106.91C52.6406 104.909 53.2909 102.287 53.0107 100.065C52.5706 103.067 52.0103 105.949 51.26 108.831C50.571 106.529 49.7527 104.267 48.809 102.057C48.0487 100.145 47.2484 98.2942 46.4281 96.4429C45.7478 95.2021 45.0275 93.9913 44.2472 92.8005C44.8374 95.8726 46.3881 98.9746 47.4285 101.977C48.5289 105.139 49.4993 108.301 50.4897 111.493C47.4885 122.641 42.7266 133.318 38.2648 143.975C35.3636 150.91 32.0923 157.674 29.2612 164.629C28.811 165.699 28.3408 166.79 27.8706 167.891C26.9703 170.473 25.8698 172.984 25.0495 175.596C24.4092 175.146 23.2388 174.776 22.6885 174.455C21.0971 173.499 19.5545 172.464 18.0667 171.353C14.8619 168.875 11.8303 166.18 8.99302 163.288C7.52242 161.867 6.2119 160.286 4.81133 158.805C4.06103 158.014 2.97059 156.713 1.7401 156.803H1.5C2.42037 156.013 3.17067 154.912 4.00101 154.012C7.43239 150.489 10.3236 146.477 13.4248 142.674C16.7584 138.477 19.8064 134.061 22.5485 129.455C25.2196 125.092 28.3908 120.679 30.4817 116.006C32.7726 110.883 35.3536 105.889 37.6045 100.756C38.5549 98.5844 39.3452 96.3229 40.2256 94.1214C41.286 91.4496 43.717 90.1187 46.228 88.8378C48.7331 87.3738 51.3107 86.0379 53.9511 84.8351C55.0716 84.3848 56.182 83.8945 57.2725 83.3742L58.0528 82.9939C59.6214 86.1107 61.3961 89.1193 63.3649 92C61.2358 87.9178 59.3712 83.7029 57.7827 79.3815C56.4521 76.5996 55.1916 73.7577 54.1012 70.9558C52.5205 66.9531 51.1 62.8304 49.7594 58.7376C49.0594 56.5785 48.5342 54.3665 48.1888 52.1232C47.9907 50.8921 47.9604 49.6399 48.0988 48.4007C48.0988 48.2205 48.1988 48.0404 48.2588 47.8603C49.4693 44.3379 51.9403 41.1058 54.1812 38.1938C58.6185 32.3839 64.0598 27.4156 70.2477 23.524C76.7603 19.5213 84.6035 15.6286 92.4766 16.0289C99.9596 16.4192 105.862 20.552 110.644 26.0356C115.322 31.3774 118.684 37.7418 120.458 44.6181C121.584 49.2107 122.254 53.9033 122.459 58.6275C121.688 64.6316 118.807 70.0552 116.216 75.5189C115.736 76.5196 115.216 77.5202 114.746 78.4709C113.605 81.2427 112.155 83.8845 110.744 86.4762C109.834 88.1774 108.743 89.7685 107.873 91.4796C107.603 92 107.333 92.4803 107.042 93.0206C109.998 88.8688 112.643 84.504 114.956 79.9619C116.066 80.8224 117.427 81.5729 118.447 82.2434C120.218 83.4142 121.908 84.625 123.629 85.8558C127.161 88.3675 128.371 92.05 129.632 95.9926C131.012 100.386 131.632 105.069 132.633 109.572C133.633 114.575 134.694 119.498 135.634 124.482C137.575 134.629 139.636 144.875 142.327 154.842C143.557 159.355 144.968 163.848 146.268 168.301C146.588 169.402 146.949 170.473 147.339 171.533C147.539 172.224 147.749 172.914 147.959 173.595C148.739 176.016 149.85 178.598 150.5 181.11H150.44V181.25C149.53 181.25 148.559 181.67 147.709 181.79C146.068 182.02 144.458 182.531 142.827 182.861C139.397 183.575 136.008 184.47 132.673 185.543C129.472 186.493 126.359 187.719 123.369 189.205C122.268 189.681 121.246 190.322 120.338 191.107Z" fill="#CDC1FF"/>
<path d="M106.675 52.3403C104.407 49.4274 101.796 46.7989 98.8967 44.5119C93.4243 40.1736 87.0529 37.1076 80.2456 35.5368C73.9953 34.0409 67.9746 35.8559 62.3833 38.7379C59.7924 40.0126 57.3763 41.6146 55.1945 43.5047C53.6269 44.8909 51.2007 46.9452 50.6915 49.0693C50.0225 51.8317 51.2506 53.9358 52.1592 56.4788C53.3673 59.8495 54.7152 63.1703 56.2229 66.4512C56.3926 66.8002 56.5524 67.1493 56.7121 67.4484C57.1415 68.5554 57.6307 69.6523 58.1599 70.7194C62.0139 78.3882 67.3656 85.0896 72.3678 92.0005C76.751 90.006 80.9845 87.5328 85.1979 85.3289C91.3214 82.0707 96.9742 77.9981 102.002 73.2225C105.746 69.6922 109.989 64.5465 110.489 59.2611C110.698 56.9176 107.943 53.9957 106.675 52.3403Z" fill="#FFA98E"/>
<path d="M104.69 70.1096C100.085 76.0048 93.3165 80.6124 86.9568 84.3447C82.3123 87.1743 77.5096 89.7305 72.5728 92.0005C72.5866 91.9649 72.5866 91.9254 72.5728 91.8898C69.1038 88.1273 66.4324 83.4695 63.8207 79.0832C62.5548 76.9706 61.1991 74.8278 59.9331 72.6347C57.3414 67.1016 54.9491 61.4277 52.9554 55.6732C52.3673 54.0033 51.4901 52.5345 51.5001 50.6432C51.5101 48.7518 52.7959 47.2931 53.9921 45.9451C56.4941 43.088 59.973 41.086 63.2525 39.3657C66.4784 37.6888 69.9641 36.5797 73.5596 36.0861C77.4771 35.6133 81.7933 37.1927 85.4217 38.5207C92.1901 41.086 97.9317 45.3113 103.075 50.4319C105.568 52.9255 107.645 55.8098 109.226 58.973C110.103 60.824 108.667 63.7415 107.85 65.4316C106.959 67.0965 105.9 68.6641 104.69 70.1096Z" fill="#FFE3B0"/>
<path d="M17.8281 173.899C17.3156 173.732 16.8233 173.527 16.2606 173.312C12.8596 171.611 9.74287 169.42 7.01638 166.811C5.07822 165.003 3.49492 162.866 2.34404 160.506C1.90172 159.837 1.61375 159.083 1.5 158.296C2.50481 156.771 6.27283 161.6 7.01638 162.412C8.95868 164.474 11.0149 166.432 13.1758 168.277C15.3287 170.156 17.5971 171.906 19.9683 173.517C21.0435 174.251 22.1488 174.866 23.2842 175.473C23.5253 175.6 24.0378 175.795 24.5 176C22.2391 175.416 20.0119 174.715 17.8281 173.899Z" fill="#FFE3B0"/>
<path d="M90.5733 198.96C82.5309 198.662 74.512 197.891 66.5567 196.65C58.6082 195.489 50.6798 193.692 42.8319 191.925C38.923 191.07 35.0663 189.983 31.2814 188.669C29.4306 188.079 27.6594 187.254 26.0092 186.215C25.3557 185.714 24.8366 185.054 24.5 184.294C24.7817 184.171 25.0534 184.048 25.2949 183.955C27.3377 183.239 29.4437 182.727 31.5832 182.425C36.1494 181.791 40.7833 181.868 45.3271 182.651C53.4769 183.924 61.4254 186.697 69.223 189.46C77.0206 192.223 85.0295 194.996 93.1591 197.019C95.9005 197.71 98.6886 198.19 101.5 198.457C97.8764 198.917 94.2228 199.086 90.5733 198.96Z" fill="#FFE3B0"/>
<path d="M150.599 183.031C149.051 184.426 146.208 185.353 144.721 185.955C142.086 187.102 139.351 188.029 136.546 188.726C133.733 189.366 130.91 189.949 128.056 190.398C125.885 190.717 123.696 190.918 121.5 191C122.078 190.54 122.698 190.127 123.352 189.768C124.881 189.011 126.455 188.337 128.067 187.752C130.657 186.796 133.288 186.022 135.949 185.277C138.61 184.531 141.554 184.015 144.357 183.365C145.851 182.995 147.364 182.695 148.89 182.467C149.406 182.4 151.48 181.626 151.5 182.228C151.277 182.563 150.967 182.84 150.599 183.031Z" fill="#FFE3B0"/>
<path d="M68.8375 91.0005C68.4554 91.0093 68.0853 91.129 67.7771 91.3435C67.4689 91.558 67.2373 91.8569 67.1136 92.2C66.8315 92.9237 67.0404 94.1827 67.9076 94.5297C67.3748 99.5658 64.1568 104.681 62.1508 109.172C60.7194 112.255 58.8179 117.202 59.8836 120.84C59.5411 120.862 59.217 120.995 58.9658 121.218C58.7146 121.44 58.5517 121.737 58.5045 122.06C58.4418 122.892 59.0478 123.239 59.7582 123.408C59.6626 123.594 59.6274 123.802 59.6572 124.007C59.6869 124.212 59.7803 124.404 59.9254 124.558C60.1009 124.742 60.3264 124.876 60.5771 124.946C60.8278 125.016 61.0939 125.019 61.3463 124.954C61.8146 124.759 62.2214 124.452 62.5269 124.062C62.9115 123.651 63.13 123.124 63.1434 122.575C63.1434 122.575 63.1434 122.575 63.0911 122.575C63.2691 122.432 63.3915 122.237 63.4389 122.02C63.4863 121.803 63.4559 121.578 63.3525 121.379C63.2492 121.181 63.0788 121.021 62.8686 120.925C62.6584 120.829 62.4204 120.803 62.1926 120.85C61.7329 115.844 63.4254 111.928 65.4314 107.328C67.1763 103.224 69.3285 99.2585 69.4643 94.8965C69.519 94.9114 69.5769 94.9114 69.6315 94.8965C71.1047 94.0836 70.6136 91.0302 68.8375 91.0005Z" fill="#FFA98E"/>
<path d="M60.2347 124.968C60.0426 124.901 59.8686 124.743 59.7369 124.516C59.6052 124.288 59.5224 124.003 59.5 123.699C59.5923 123.712 59.6852 123.712 59.7776 123.699C60.0801 123.777 60.3899 123.756 60.6867 123.635C60.9835 123.515 61.2607 123.299 61.5 123C61.3041 123.94 60.9612 125.222 60.2347 124.968Z" fill="#FFE3B0"/>
<path d="M62.0054 121.742C62.0933 121.668 62.236 121.371 62.0054 121.446H61.8737C61.9142 121.394 61.9337 121.33 61.9286 121.265C61.9286 121.265 61.9286 121.159 61.9286 121.106C62.9717 121.403 62.4776 122.812 61.3247 122.961C60.9019 123.014 60.4738 123.014 60.051 122.961C59.664 122.912 59.2909 122.789 58.9531 122.6C58.7608 122.467 58.6183 122.278 58.5468 122.06C58.3162 121.424 58.986 121.117 59.502 121C59.549 121.167 59.6077 121.329 59.6777 121.488H59.2824C59.2056 121.488 58.986 121.668 59.0738 121.742C59.4767 122.091 59.9986 122.283 60.5396 122.283C61.0806 122.283 61.6026 122.091 62.0054 121.742Z" fill="#FFE3B0"/>
<path d="M61.5193 120.993C61.3673 121.003 61.2148 121.003 61.0628 120.993V120.914C59.3794 115.987 61.8236 110.281 63.7828 105.827C65.5327 101.885 68.2242 96.7899 67.7011 92.2666C67.715 92.1785 67.715 92.0886 67.7011 92.0005C67.8241 92.0722 67.9285 92.1736 68.0055 92.2961C68.1776 92.6074 68.3148 92.938 68.4144 93.2816C68.461 93.4149 68.4898 93.5541 68.5 93.6955C67.8533 103.156 59.8074 111.227 61.5193 120.993Z" fill="#FFE3B0"/>
<path d="M68.2707 94.0005C68.4256 93.1765 68.2707 91.6316 67.5938 91.3638C67.3002 91.2402 66.9169 91.6213 66.7782 91.9406C66.7386 92.1991 66.7386 92.4648 66.7782 92.7233C66.7835 92.885 66.8169 93.0433 66.8761 93.1868C66.8761 93.2795 66.8761 93.3722 66.8761 93.4649C66.7057 93.1088 66.5843 92.7187 66.5173 92.3114C66.4801 92.069 66.5033 91.8182 66.5836 91.5932C66.6639 91.3682 66.7974 91.1801 66.9658 91.0548C67.1037 90.9974 67.251 90.9853 67.3936 91.0195C67.5363 91.0537 67.6697 91.1332 67.7814 91.2505C68.2788 91.6522 68.8171 93.4031 68.2707 94.0005Z" fill="#FFE3B0"/>
<path d="M84.822 91.0005C84.4397 91.0128 84.0703 91.1353 83.7627 91.3515C83.455 91.5678 83.2237 91.8677 83.0992 92.2117C82.8173 92.9265 83.0366 94.1973 83.8928 94.5349C83.308 99.5784 80.1548 104.701 78.0874 109.189C76.6674 112.276 74.7566 117.231 75.8216 120.874C75.4965 120.907 75.1918 121.04 74.9541 121.254C74.7165 121.467 74.559 121.749 74.506 122.056C74.4329 122.89 75.0385 123.247 75.7485 123.406C75.6529 123.592 75.6178 123.801 75.6475 124.006C75.6773 124.211 75.7706 124.403 75.9156 124.558C76.0933 124.741 76.3205 124.876 76.5726 124.946C76.8247 125.016 77.0922 125.019 77.346 124.955C77.8145 124.76 78.2212 124.452 78.5259 124.061C78.9098 123.654 79.125 123.128 79.1315 122.582C79.137 122.573 79.1399 122.563 79.1399 122.552C79.1399 122.542 79.137 122.531 79.1315 122.522C79.3114 122.379 79.4352 122.182 79.4829 121.963C79.5306 121.745 79.4994 121.517 79.3944 121.318C79.2894 121.118 79.1167 120.958 78.9042 120.863C78.6917 120.768 78.4517 120.744 78.2231 120.795C77.7741 115.781 79.4656 111.859 81.4599 107.253C83.2036 103.242 85.2919 99.3401 85.4798 94.9717C85.5078 94.9835 85.538 94.9896 85.5686 94.9896C85.5992 94.9896 85.6294 94.9835 85.6573 94.9717C87.0982 94.1179 86.6075 91.07 84.822 91.0005Z" fill="#FFA98E"/>
<path d="M76.2398 124.97C76.0481 124.9 75.8743 124.738 75.7419 124.505C75.6096 124.271 75.5251 123.978 75.5 123.666L75.7764 123.731C76.0796 123.808 76.3895 123.784 76.6863 123.658C76.9831 123.532 77.2603 123.308 77.5 123C77.2967 123.913 76.9878 125.218 76.2398 124.97Z" fill="#FFE3B0"/>
<path d="M77.974 122.769C78.0613 122.696 78.1921 122.405 77.974 122.488H77.8541C77.8855 122.434 77.9042 122.374 77.9086 122.312C77.9086 122.312 77.9086 122.208 77.9086 122.156C78.9991 122.447 78.4538 123.827 77.3088 123.983C76.8862 124.02 76.4603 123.999 76.0439 123.921C75.658 123.879 75.286 123.759 74.9534 123.568C74.7518 123.448 74.6072 123.258 74.5499 123.039C74.31 122.416 74.9861 122.115 75.4877 122C75.4877 122.167 75.5968 122.322 75.6622 122.478H75.2696C75.1933 122.478 74.9861 122.654 75.0624 122.738C75.4585 123.083 75.9747 123.278 76.512 123.283C77.0493 123.289 77.5699 123.106 77.974 122.769Z" fill="#FFE3B0"/>
<path d="M77.5147 121.993C77.3626 122.003 77.21 122.003 77.0579 121.993C77.0675 121.968 77.0675 121.94 77.0579 121.914C75.383 116.985 77.8288 111.277 79.7892 106.822C81.5308 102.878 84.224 97.7817 83.7101 93.2568C83.7147 93.1714 83.7147 93.0859 83.7101 93.0005C83.8338 93.0005 83.9385 93.1977 84.0051 93.2962C84.1842 93.6053 84.3249 93.9365 84.4239 94.282C84.4683 94.4121 84.494 94.5483 84.5 94.6862C83.8529 104.14 75.8112 112.214 77.5147 121.993Z" fill="#FFE3B0"/>
<path d="M84.2855 95.0005C84.4426 94.1776 84.2855 92.6449 83.599 92.3672C83.4281 92.3333 83.2531 92.373 83.1027 92.4796C82.9524 92.5862 82.8357 92.7533 82.772 92.9535C82.7267 93.2076 82.7267 93.4709 82.772 93.725C82.7841 93.8863 82.8206 94.0434 82.8795 94.1879V94.4656C82.7122 94.1066 82.5896 93.7182 82.5157 93.3135C82.4804 93.0717 82.505 92.8222 82.5862 92.5981C82.6674 92.374 82.8015 92.1859 82.9705 92.0586C83.1105 91.9974 83.2612 91.9843 83.4067 92.0205C83.5522 92.0567 83.6872 92.1409 83.7975 92.2643C84.2937 92.6552 84.7982 94.4142 84.2855 95.0005Z" fill="#FFE3B0"/>
</svg>
