<svg width="60" height="60" viewBox="0 0 60 60" fill="none" xmlns="http://www.w3.org/2000/svg">
<g id="Group 39">
<circle id="Ellipse 5" cx="30.0001" cy="30.0001" r="30.0001" fill="#8ED6FF"/>
<g id="Vector">
<path d="M12.9749 23.3005L10.8146 23.4773L12.4187 40.5654L12.7429 41.5106C19.684 40.4617 27.3408 42.338 30.3016 43.4073L30.6212 44.1207L31.0693 44.1825C31.152 44.0032 31.3361 43.6351 31.4106 43.5967C31.4852 43.5583 32.0475 42.4878 32.3193 41.9573L33.5523 41.2632L34.8033 41.4965L35.7574 42.1756L37.1685 43.3802L37.5632 43.1182L37.6206 42.4446C41.1572 38.5607 48.038 35.5523 51.0364 34.5336L48.3534 26.0224L46.4609 19.4456L46.2606 17.6169L44.6682 17.9694L44.5836 17.2519L43.2394 17.0667L43.3275 15.5576L41.1451 15.8045L41.1093 15.1789L40.8254 15.0911C35.0386 18.402 31.8191 23.1879 30.9327 25.167L30.6488 25.0792C29.579 23.2889 26.655 21.6932 23.7445 20.7932C21.4162 20.0731 17.4953 19.9359 15.8258 19.9573L15.7151 20.3072L14.4243 20.4457L14.6065 21.347L13.1203 21.1178L13.2185 22.5309L12.9749 23.3005Z" fill="#FFE3B0"/>
<path d="M37.7596 42.5895C40.6631 39.7528 44.1036 37.5062 47.8862 35.977C48.9554 35.5464 50.0485 35.1759 51.1603 34.8671C51.2746 34.8357 51.3752 34.7146 51.3349 34.5927C50.0762 30.4984 48.5962 26.4682 47.4765 22.3315C47.1864 21.2602 46.9212 20.1819 46.7142 19.092C46.6596 18.8014 46.206 18.9042 46.2613 19.1945C46.6463 21.2257 47.2197 23.2216 47.823 25.1983C48.4697 27.3186 49.172 29.4212 49.8639 31.5271C50.21 32.5812 50.5546 33.6364 50.8809 34.697C50.9393 34.6056 50.9971 34.514 51.0555 34.4225C47.0642 35.537 43.3352 37.4142 40.0801 39.9476C39.1592 40.6652 38.2801 41.4334 37.4471 42.2487C37.2346 42.4567 37.5477 42.7955 37.7601 42.588L37.7596 42.5895Z" fill="#FFA98E"/>
<path d="M31.5884 43.8276C31.8939 42.9838 32.4869 41.7931 33.4681 41.5749C34.0465 41.4461 34.7452 41.7339 35.2272 42.0307C35.7877 42.376 36.2388 42.8582 36.6876 43.3298C36.8927 43.5454 37.2364 43.2368 37.0314 43.0212C36.5213 42.4852 35.9988 41.9355 35.344 41.5687C34.7781 41.2508 34.0195 40.9839 33.3628 41.1301C32.2066 41.3873 31.5086 42.6867 31.1446 43.6926C31.0438 43.9707 31.4876 44.1074 31.5883 43.8298L31.5884 43.8276Z" fill="#FFA98E"/>
<path d="M10.608 23.4788C10.9637 25.7167 11.1191 27.989 11.3025 30.2447C11.5193 32.9055 11.71 35.5713 11.9661 38.2273C12.0756 39.3653 12.1891 40.5051 12.3691 41.6365C12.3892 41.7626 12.5303 41.8292 12.6479 41.8086C17.2028 40.9985 21.9182 41.5602 26.3878 42.609C27.6495 42.9062 28.9002 43.247 30.1409 43.6192C30.4262 43.7074 30.5663 43.2684 30.2793 43.1819C25.7971 41.8362 21.1028 40.8552 16.3965 40.9786C15.1043 41.0093 13.8165 41.137 12.5442 41.3605L12.823 41.5327C12.4666 39.2952 12.3113 37.0229 12.1279 34.7672C11.9109 32.1069 11.7202 29.4427 11.4643 26.7846C11.3547 25.6466 11.2413 24.5068 11.0613 23.3754C11.0143 23.085 10.5613 23.1879 10.608 23.4788Z" fill="#FFA98E"/>
<path d="M30.637 25.1742C30.9702 29.173 31.5457 33.1489 32.3604 37.0806C32.5804 38.1555 32.8214 39.2262 33.0836 40.2927C33.1541 40.5789 33.6075 40.4783 33.5365 40.1902C32.5843 36.3298 31.9052 32.3978 31.4319 28.4545C31.3024 27.3688 31.1923 26.2808 31.1017 25.1904C31.0781 24.9001 30.6129 24.8799 30.637 25.1742Z" fill="#FFA98E"/>
<path d="M30.7072 43.4127C31.043 42.1874 31.8899 40.9756 33.2036 40.6577C34.8693 40.2542 36.3124 41.5047 37.2502 42.7144C37.4323 42.9497 37.774 42.6388 37.5933 42.4061C36.7256 41.287 35.5179 40.2161 34.0221 40.1285C32.896 40.0627 31.8729 40.6239 31.1758 41.4681C30.7471 42.001 30.4364 42.6167 30.2636 43.2755C30.1853 43.5595 30.6295 43.6985 30.7072 43.4127Z" fill="#FFA98E"/>
<path d="M12.7909 21.2175C13.272 26.0397 13.4514 30.8852 13.8013 35.7166C13.8965 37.0298 14.0049 38.3416 14.136 39.6521C14.1452 39.7475 14.2619 39.8317 14.3548 39.8293C18.6365 39.7613 22.8962 40.3938 27.0517 41.3768C28.2325 41.656 29.4059 41.9636 30.5739 42.292C30.861 42.3726 31.0007 41.9351 30.7125 41.8542C26.5771 40.6935 22.3476 39.783 18.0533 39.4753C16.8278 39.3883 15.6002 39.3535 14.3705 39.371L14.5894 39.5482C14.1079 34.727 13.9288 29.8843 13.5787 25.0501C13.4835 23.7367 13.3719 22.4249 13.2439 21.1145C13.2149 20.822 12.7621 20.9261 12.791 21.217L12.7909 21.2175Z" fill="#FFA98E"/>
<path d="M14.2504 20.5302C15.3994 25.0324 15.7938 29.7232 15.7645 34.3558C15.7561 35.6418 15.7096 36.9267 15.625 38.2103C15.6237 38.2709 15.6465 38.3297 15.6885 38.374C15.7306 38.4183 15.7885 38.4446 15.8499 38.4474C20.0092 38.5106 24.1446 39.0912 28.1581 40.1752C29.2988 40.4846 30.4271 40.8335 31.543 41.2221C31.8257 41.3204 31.9636 40.883 31.6815 40.7848C27.7351 39.4118 23.6301 38.5333 19.463 38.1699C18.2664 38.0652 17.0672 38.0046 15.8654 37.988L16.0902 38.225C16.4013 33.5586 16.2338 28.8246 15.4832 24.201C15.2776 22.9331 15.0215 21.6736 14.7038 20.4279C14.6278 20.1417 14.1769 20.2431 14.2504 20.5302Z" fill="#FFA98E"/>
<path d="M33.3314 40.0453C29.5723 38.0928 25.415 36.3013 21.1104 36.1421C19.9228 36.0984 18.7272 36.1994 17.5783 36.5004L17.8625 36.7323C18.1009 31.1575 17.4383 25.5794 15.8996 20.2071C15.8882 20.1396 15.8697 20.0735 15.8443 20.0099L15.8155 19.9112C15.6715 20.1028 15.6401 20.177 15.7211 20.1338C15.7278 20.1408 15.6598 20.1242 15.7389 20.1355C15.7598 20.1381 15.8528 20.1269 15.9278 20.1249C16.1893 20.1199 16.4521 20.1338 16.7129 20.1488C17.4616 20.1925 18.2126 20.2606 18.963 20.3344C19.7029 20.4078 20.4418 20.4879 21.1791 20.5818C21.7679 20.6558 22.3504 20.7726 22.9219 20.9314C25.8226 21.6971 28.6557 22.8639 30.5069 25.3059C30.6864 25.5426 31.0301 25.2323 30.8502 24.9971C29.175 22.7869 26.6737 21.5525 24.0496 20.771C23.2478 20.5318 22.4358 20.2911 21.6043 20.1791C20.9085 20.0838 20.2101 20.0074 19.5119 19.9338C18.7057 19.8487 17.9007 19.7722 17.0934 19.7168C16.7792 19.6952 16.4644 19.6756 16.15 19.6703C15.9727 19.6675 15.7616 19.6498 15.5896 19.7001C15.1933 19.8151 15.4257 20.239 15.5029 20.5109C15.6988 21.2043 15.8801 21.9012 16.0468 22.6016C16.3843 24.0198 16.6614 25.4495 16.8783 26.8906C17.365 30.1438 17.539 33.4345 17.398 36.7189C17.3973 36.7539 17.4046 36.7886 17.4194 36.8204C17.4342 36.8521 17.4561 36.8802 17.4835 36.9025C17.5109 36.9248 17.543 36.9406 17.5774 36.9489C17.6119 36.9572 17.6478 36.9577 17.6824 36.9503C19.7344 36.4129 21.9022 36.5375 23.9647 36.9613C26.0635 37.3914 28.0936 38.1194 30.0503 38.9758C31.0776 39.4255 32.0852 39.9166 33.0802 40.4334C33.3436 40.5697 33.5963 40.1858 33.3316 40.0481L33.3314 40.0453Z" fill="#FFA98E"/>
<path d="M43.3032 17.4086C43.7349 17.4006 44.1668 17.4155 44.597 17.4535L44.3756 17.2755C45.0471 21.5007 46.0486 25.6688 47.3712 29.7428C47.7458 30.8988 48.1474 32.0465 48.5761 33.186C48.6344 33.0946 48.6898 33.0022 48.7507 32.9115C44.9061 33.9968 41.4443 36.1141 38.7513 39.0274C38.0044 39.8371 37.3228 40.7031 36.7127 41.6175C36.548 41.8639 36.9394 42.1119 37.1039 41.866C39.2484 38.6681 42.2471 36.117 45.7698 34.4936C46.7669 34.0343 47.8 33.6548 48.859 33.3589C48.9682 33.3281 49.0788 33.2051 49.0337 33.0844C47.53 29.0709 46.3429 24.9493 45.483 20.7564C45.2395 19.5665 45.0223 18.3718 44.8315 17.1723C44.8194 17.1229 44.7911 17.0788 44.7512 17.0467C44.7112 17.0145 44.6616 16.9962 44.6101 16.9944C44.1798 16.9567 43.7477 16.9416 43.3158 16.9494C43.0186 16.9549 43.0021 17.414 43.3006 17.4078L43.3032 17.4086Z" fill="#FFA98E"/>
<path d="M41.0012 14.7096C39.5519 15.5664 38.1868 16.5818 36.8942 17.6503C35.2405 19.0143 33.6723 20.5149 32.376 22.22C31.69 23.1218 31.0879 24.0918 30.6676 25.1404C30.5575 25.4146 31.0016 25.5503 31.1113 25.2776C31.8616 23.4059 33.2056 21.7873 34.6135 20.356C36.0287 18.928 37.5642 17.621 39.2036 16.449C39.8569 15.9783 40.5254 15.5248 41.2196 15.1143C41.4753 14.9629 41.2608 14.5561 41.0039 14.7082L41.0012 14.7096Z" fill="#FFA98E"/>
<path d="M36.0744 40.7704C38.753 36.8987 42.5546 33.9153 46.9828 32.2099C47.0929 32.1674 47.1429 31.9972 47.0806 31.9008C46.6923 31.3011 46.336 30.6775 46.0004 30.0498C45.8612 29.7878 45.4483 30.0006 45.5889 30.2619C45.927 30.8904 46.2828 31.5139 46.6716 32.1137L46.7695 31.8046C42.2687 33.5458 38.4058 36.5833 35.6832 40.5219C35.5143 40.7658 35.9062 41.014 36.0744 40.7704Z" fill="#FFA98E"/>
<path d="M41.2286 16.0844C41.9089 15.9331 42.6006 15.8358 43.2969 15.7934L43.0722 15.5558C43.0178 19.1441 43.4278 22.7253 44.292 26.2127C44.5379 27.2011 44.8202 28.1808 45.1389 29.1516C45.1788 29.0665 45.2183 28.9816 45.2573 28.897C43.3451 29.8263 41.5405 30.9106 39.8849 32.2401C38.2147 33.5832 36.7158 35.121 35.4211 36.82C34.6908 37.7795 34.0297 38.7884 33.4427 39.8393C33.299 40.0965 33.6893 40.3464 33.8339 40.0878C35.8866 36.4229 38.8159 33.3087 42.3677 31.0153C43.3647 30.3733 44.406 29.8227 45.4735 29.3037C45.5187 29.28 45.5547 29.2423 45.576 29.1964C45.5974 29.1505 45.6029 29.0989 45.5917 29.0496C44.4769 25.6553 43.8074 22.1349 43.5995 18.5743C43.5417 17.5744 43.5209 16.5734 43.5371 15.5715C43.539 15.4566 43.4401 15.3269 43.3127 15.3346C42.5761 15.3779 41.8442 15.479 41.1241 15.6371C40.8327 15.7014 40.936 16.1488 41.2286 16.0844Z" fill="#FFA98E"/>
<path d="M11.1264 23.5433C11.7781 23.4638 12.4379 23.4729 13.0873 23.5706C13.2123 23.5863 13.3242 23.461 13.3277 23.3482C13.3327 23.2129 13.23 23.1303 13.1034 23.1108C12.414 23.0106 11.714 23.0049 11.0232 23.0937C10.8982 23.1098 10.8224 23.2561 10.8486 23.3682C10.8795 23.4987 11.0023 23.5564 11.1272 23.5408L11.1264 23.5433Z" fill="#FFA98E"/>
<path d="M13.0728 21.3955C13.1005 21.3888 13.1283 21.3832 13.1569 21.3789L13.1924 21.3739C13.1606 21.3778 13.1724 21.3754 13.1969 21.3753C13.2559 21.3728 13.3152 21.3729 13.3751 21.3757C13.4422 21.3795 13.5094 21.3866 13.5759 21.3957L13.6291 21.4033L13.6533 21.4075L13.6884 21.414L13.7408 21.4242C13.993 21.4784 14.2421 21.5459 14.4871 21.6265C14.5449 21.6415 14.6063 21.6339 14.6586 21.6054C14.7109 21.5768 14.75 21.5295 14.7678 21.4733C14.7856 21.4171 14.7807 21.3562 14.7542 21.3033C14.7278 21.2504 14.6817 21.2096 14.6255 21.1893C14.367 21.1044 14.1038 21.0344 13.8371 20.9794C13.5538 20.9252 13.2504 20.88 12.9662 20.9498C12.9098 20.9668 12.8621 21.0044 12.8328 21.0548C12.8034 21.1053 12.7946 21.1648 12.8082 21.2215C12.8217 21.2781 12.8566 21.3276 12.9057 21.3599C12.9548 21.3923 13.0146 21.405 13.0728 21.3955Z" fill="#FFA98E"/>
<path d="M14.3296 20.5328C14.7316 20.6412 15.1482 20.6867 15.5643 20.6678C15.6856 20.662 15.8059 20.5783 15.8042 20.4469C15.8031 20.331 15.7098 20.2031 15.58 20.2095C15.386 20.2192 15.1916 20.214 14.9984 20.1939C14.9521 20.1894 14.9055 20.1837 14.8593 20.1771L14.7847 20.1655C14.8375 20.1742 14.7657 20.1624 14.761 20.1615C14.6624 20.143 14.564 20.1203 14.4672 20.0947C14.4376 20.084 14.4061 20.0793 14.3747 20.081C14.3433 20.0826 14.3125 20.0905 14.2843 20.1043C14.256 20.118 14.2309 20.1372 14.2105 20.1608C14.19 20.1843 14.1746 20.2118 14.1653 20.2414C14.1559 20.271 14.1527 20.3022 14.1559 20.3331C14.1591 20.364 14.1687 20.3939 14.1839 20.4211C14.1992 20.4483 14.2199 20.4721 14.2448 20.4912C14.2697 20.5102 14.2983 20.5241 14.3287 20.532L14.3296 20.5328Z" fill="#FFA98E"/>
<path d="M44.8105 18.1491L45.4811 17.9607L45.9904 17.8187C46.0193 17.8147 46.0474 17.8071 46.0743 17.7959C46.1085 17.7737 46.1169 17.814 46.0748 17.7731C46.0658 17.7719 46.0572 17.7683 46.0502 17.7625C46.0432 17.7568 46.038 17.7492 46.0351 17.7406C46.0257 17.7196 46.0237 17.719 46.0291 17.7387C46.0313 17.7618 46.0354 17.7847 46.0413 17.8071C46.0483 17.864 46.0554 17.9171 46.0618 17.9722L46.1082 18.3221C46.1374 18.5549 46.1666 18.7878 46.1958 19.0209C46.2123 19.1442 46.3614 19.2188 46.4744 19.1935C46.6072 19.1634 46.664 19.042 46.6485 18.9189C46.6151 18.6491 46.5813 18.3792 46.5472 18.1092C46.5313 17.9805 46.5152 17.8518 46.4989 17.7231C46.4815 17.5885 46.433 17.4613 46.3106 17.3862C46.1883 17.3111 46.0405 17.3306 45.906 17.3678L45.5059 17.4789L44.7059 17.7023C44.6466 17.7172 44.5954 17.754 44.563 17.8051C44.5306 17.8563 44.5194 17.9178 44.5318 17.9769C44.5462 18.0358 44.5835 18.0869 44.6356 18.1191C44.6877 18.1512 44.7505 18.162 44.8105 18.1491Z" fill="#FFA98E"/>
<path d="M34.8594 40.3469C37.2973 37.0554 39.898 33.6899 43.3973 31.4262C44.3685 30.7952 45.4055 30.2686 46.4907 29.8554C46.6085 29.8114 46.6413 29.6463 46.5886 29.5463C45.7858 28.0208 45.1222 26.4328 44.6556 24.7749C44.1891 23.117 43.9161 21.4285 43.704 19.73C43.6671 19.4377 43.2144 19.5413 43.2511 19.8324C43.4684 21.56 43.751 23.2831 44.2289 24.9615C44.7104 26.622 45.3638 28.2296 46.1786 29.7589L46.2765 29.4497C42.295 30.9556 39.2414 34.0321 36.6408 37.264C35.8943 38.1921 35.1779 39.1426 34.4697 40.0989C34.2931 40.3372 34.6853 40.5844 34.8609 40.3474L34.8594 40.3469Z" fill="#FFA98E"/>
<path d="M40.8702 15.0654C41.0005 18.9186 42.1011 22.6754 43.5656 26.2301C43.9835 27.2434 44.4345 28.2435 44.9095 29.2323C45.0376 29.4997 45.4479 29.2861 45.3211 29.0202C43.6788 25.5989 42.2947 22.0078 41.6615 18.2641C41.4822 17.2113 41.3735 16.1481 41.3361 15.0814C41.3261 14.7887 40.8609 14.7702 40.8712 15.0657L40.8702 15.0654Z" fill="#FFA98E"/>
<path d="M34.9629 22.6488C36.0723 21.5008 37.2664 20.4237 38.5996 19.5321C38.7222 19.4501 38.6156 19.2463 38.4917 19.329C37.1415 20.2324 35.9304 21.3156 34.8067 22.479C34.7035 22.5856 34.8597 22.7554 34.9629 22.6488Z" fill="#FFA98E"/>
<path d="M32.2896 25.9733C32.8653 25.0818 33.5121 24.2369 34.2237 23.4467C34.3213 23.3367 34.1654 23.1659 34.067 23.2767C33.3412 24.0812 32.6815 24.9415 32.0939 25.8493C32.0149 25.9743 32.2099 26.0986 32.2896 25.9733Z" fill="#FFA98E"/>
<path d="M38.2518 22.4972C38.585 22.2375 38.9249 21.9862 39.2714 21.7434C39.2937 21.7226 39.3069 21.6942 39.3083 21.6639C39.3097 21.6337 39.2991 21.6041 39.2788 21.5814C39.2576 21.5596 39.2287 21.5467 39.1981 21.5453C39.1675 21.5439 39.1376 21.5541 39.1145 21.5739C38.7682 21.8164 38.4284 22.0679 38.0953 22.3284C38.0836 22.3383 38.074 22.3505 38.0672 22.3642C38.0603 22.3779 38.0564 22.3928 38.0555 22.4081C38.0545 22.4233 38.0567 22.4386 38.0619 22.453C38.0671 22.4674 38.0751 22.4806 38.0855 22.4919C38.096 22.5032 38.1086 22.5123 38.1227 22.5188C38.1367 22.5252 38.1519 22.5288 38.1674 22.5293C38.1829 22.5299 38.1983 22.5273 38.2128 22.5219C38.2272 22.5165 38.2404 22.5082 38.2516 22.4977L38.2518 22.4972Z" fill="#FFA98E"/>
<path d="M32.9977 28.0628C34.2043 26.4499 35.5057 24.9008 37.0058 23.5434C37.1163 23.4434 36.9594 23.2739 36.8494 23.374C35.3344 24.7437 34.0202 26.3103 32.8025 27.9389C32.7134 28.0575 32.9097 28.1812 32.9977 28.0628Z" fill="#FFA98E"/>
<path d="M37.6106 25.7083C38.2405 25.1402 38.9092 24.6154 39.612 24.1375C39.7341 24.0554 39.6277 23.8512 39.5041 23.9345C38.7845 24.4218 38.0997 24.9572 37.4544 25.5368C37.3435 25.6361 37.5004 25.8056 37.6112 25.7063L37.6106 25.7083Z" fill="#FFA98E"/>
<path d="M33.3142 30.3384C34.3542 29.0675 35.4282 27.8225 36.5961 26.6635C36.7013 26.5592 36.5452 26.3893 36.4393 26.494C35.2576 27.6668 34.1691 28.9276 33.1187 30.2139C33.0266 30.3293 33.2211 30.4519 33.3142 30.3384Z" fill="#FFA98E"/>
<path d="M35.1638 30.8156C36.4571 29.4693 37.8256 28.1851 39.3376 27.0794C39.7775 26.7578 40.2293 26.4535 40.693 26.1667C40.8189 26.0884 40.7117 25.885 40.5851 25.9636C38.9657 26.9649 37.5008 28.1848 36.1393 29.5062C35.7547 29.8789 35.3775 30.2587 35.0076 30.6458C34.9049 30.7526 35.061 30.9229 35.1638 30.8156Z" fill="#FFA98E"/>
<path d="M33.5857 32.5371C33.7646 32.3333 33.9449 32.131 34.1266 31.9303C34.1487 31.9094 34.1617 31.881 34.1631 31.8508C34.1645 31.8207 34.1541 31.7911 34.134 31.7683C34.113 31.7462 34.0841 31.733 34.0534 31.7316C34.0227 31.7302 33.9927 31.7407 33.9697 31.7608C33.788 31.9619 33.6077 32.164 33.429 32.3671C33.407 32.388 33.394 32.4164 33.3927 32.4465C33.3913 32.4766 33.4016 32.5062 33.4216 32.529C33.4425 32.5512 33.4714 32.5644 33.502 32.5659C33.5327 32.5674 33.5627 32.5571 33.5857 32.5371Z" fill="#FFA98E"/>
<path d="M37.8733 31.231C38.6317 30.5513 39.4058 29.8885 40.2191 29.274C40.338 29.1843 40.1804 29.0157 40.0623 29.1045C39.2488 29.7195 38.4747 30.3823 37.7169 31.0616C37.6061 31.1609 37.7629 31.3304 37.8731 31.2315L37.8733 31.231Z" fill="#FFA98E"/>
<path d="M33.8531 35.3344C34.8385 34.0921 35.9805 32.9815 37.1409 31.9023C37.2497 31.8007 37.0928 31.6312 36.9842 31.7323C35.8083 32.827 34.6556 33.9524 33.6574 35.2104C33.5651 35.3264 33.7615 35.4501 33.8531 35.3344Z" fill="#FFA98E"/>
<path d="M23.4486 22.9746C25.5139 23.4037 27.495 24.2003 29.2267 25.3988C29.3497 25.4839 29.4747 25.291 29.3527 25.2062C27.6055 23.9969 25.6034 23.1894 23.5189 22.7561C23.374 22.726 23.3032 22.9444 23.4496 22.9749L23.4486 22.9746Z" fill="#FFA98E"/>
<path d="M19.0848 22.5809C20.0537 22.5679 21.0225 22.6197 21.9845 22.7359C22.1327 22.7538 22.1403 22.5246 21.9926 22.5068C21.0304 22.3906 20.0615 22.3388 19.0924 22.3517C18.9436 22.3533 18.9349 22.5827 19.0848 22.5809Z" fill="#FFA98E"/>
<path d="M19.9142 24.6418C22.3777 24.9148 24.9075 25.2066 27.1886 26.2258C27.8301 26.5109 28.4404 26.86 29.01 27.2675C29.1314 27.3543 29.2563 27.1614 29.1354 27.0747C27.0795 25.6003 24.5567 25.0215 22.0822 24.6745C21.3642 24.574 20.6406 24.4914 19.922 24.4121C19.7738 24.3958 19.7662 24.625 19.9144 24.6413L19.9142 24.6418Z" fill="#FFA98E"/>
<path d="M24.8088 27.6007C26.3535 27.9838 27.8621 28.4972 29.3179 29.1353C29.4545 29.195 29.5228 28.9758 29.3872 28.9164C27.9312 28.2788 26.4226 27.7654 24.8781 27.3818C24.7338 27.3465 24.6636 27.5645 24.8088 27.6007Z" fill="#FFA98E"/>
<path d="M20.2095 26.8528C21.2475 26.9444 22.2811 27.0812 23.305 27.2736C23.4502 27.301 23.521 27.0826 23.3741 27.0552C22.3299 26.8587 21.2761 26.7173 20.2163 26.6261C20.0672 26.6128 20.0596 26.842 20.2087 26.8553L20.2095 26.8528Z" fill="#FFA98E"/>
<path d="M28.9934 31.1863C29.3041 31.3021 29.6133 31.4213 29.9211 31.5438C29.9505 31.5527 29.9823 31.5498 30.0095 31.5358C30.0368 31.5218 30.0574 31.4979 30.067 31.4691C30.0755 31.44 30.0722 31.4088 30.058 31.3819C30.0437 31.3551 30.0195 31.3347 29.9904 31.325C29.6825 31.2027 29.3732 31.0837 29.0626 30.9679C29.0332 30.9591 29.0015 30.9621 28.9743 30.9761C28.9471 30.9901 28.9266 31.0141 28.9172 31.0429C28.9087 31.0718 28.9119 31.1029 28.9261 31.1296C28.9403 31.1564 28.9644 31.1767 28.9934 31.1863Z" fill="#FFA98E"/>
<path d="M20.7156 29.3911C22.5575 29.4133 24.3795 29.748 26.1458 30.2493C26.6444 30.3904 27.1388 30.5444 27.6301 30.7084C27.7723 30.7556 27.8415 30.5372 27.6992 30.49C25.9467 29.908 24.1448 29.4455 22.3027 29.2551C21.7774 29.2022 21.25 29.1719 20.7207 29.1644C20.5717 29.1632 20.5631 29.3921 20.7131 29.3936L20.7156 29.3911Z" fill="#FFA98E"/>
<path d="M23.9075 31.8754C25.9461 32.2462 27.9426 32.8161 29.8673 33.5768C30.0065 33.6319 30.0748 33.4127 29.9365 33.3584C28.0118 32.5975 26.0153 32.0276 23.9767 31.6571C23.8318 31.6303 23.7605 31.8486 23.9075 31.8754Z" fill="#FFA98E"/>
<path d="M20.8605 31.4806C21.3769 31.522 21.8915 31.5759 22.4045 31.6422C22.5529 31.6613 22.56 31.4319 22.4126 31.4132C21.8993 31.3468 21.3846 31.2929 20.8686 31.2515C20.7195 31.2399 20.7116 31.4685 20.8605 31.4806Z" fill="#FFA98E"/>
<path d="M27.5298 35.083C28.6116 35.3957 29.6782 35.7546 30.7432 36.119C30.8844 36.1676 30.9537 35.9487 30.8123 35.9006C29.7475 35.5357 28.6807 35.1773 27.5991 34.8641C27.4556 34.8225 27.3858 35.0413 27.5298 35.083Z" fill="#FFA98E"/>
<path d="M20.8104 34.2176C22.5929 34.0681 24.3781 34.2977 26.1118 34.7075C26.2565 34.7418 26.3266 34.5237 26.1809 34.4891C24.4283 34.0741 22.6211 33.837 20.8187 33.988C20.6716 34 20.6617 34.2296 20.8106 34.2171L20.8104 34.2176Z" fill="#FFA98E"/>
<path d="M30.3563 43.0004C30.2308 43.177 30.1575 43.3847 30.1447 43.6001C30.1406 43.7822 30.2009 43.9602 30.3153 44.1034C30.4188 44.2292 30.5624 44.3168 30.7226 44.352C30.8829 44.3873 31.0504 44.3681 31.198 44.2976C31.3865 44.1962 31.5273 44.0262 31.5902 43.8238C31.6053 43.7668 31.5975 43.7062 31.5685 43.6546C31.5395 43.603 31.4914 43.5644 31.4344 43.5467C31.3773 43.5291 31.3156 43.5338 31.262 43.5598C31.2084 43.5858 31.1671 43.6312 31.1465 43.6866C31.1407 43.705 31.135 43.723 31.1258 43.7398C31.1166 43.7567 31.0978 43.781 31.1368 43.7175C31.1342 43.7255 31.1289 43.7337 31.1248 43.7412C31.1088 43.7707 31.0904 43.7989 31.0698 43.8254L31.0551 43.8439C31.101 43.7814 31.0876 43.8079 31.0731 43.8221C31.0586 43.8362 31.0553 43.8396 31.0459 43.8482C31.0366 43.8568 31.0237 43.8676 31.012 43.8765C31.0003 43.8855 30.9702 43.8981 31.0373 43.8597C31.0298 43.864 31.0232 43.8691 31.0164 43.873C30.9932 43.8851 30.9694 43.896 30.945 43.9056C31.0219 43.8697 30.9825 43.8926 30.9588 43.8989C30.9448 43.9028 30.9304 43.906 30.9162 43.9088C30.8915 43.9132 30.8412 43.9107 30.93 43.9092C30.9189 43.9091 30.9079 43.9106 30.8968 43.9104C30.8858 43.9103 30.8703 43.9099 30.8567 43.909C30.8306 43.9075 30.7736 43.8909 30.8663 43.912C30.8431 43.9048 30.8185 43.9016 30.7954 43.8939L30.7583 43.8796C30.7411 43.8743 30.7199 43.8568 30.7965 43.8975L30.7726 43.8852C30.751 43.8736 30.7303 43.8604 30.7107 43.8458C30.6658 43.8122 30.7534 43.8863 30.7201 43.8547C30.7086 43.8435 30.697 43.8328 30.6862 43.8212L30.6634 43.795C30.6272 43.7499 30.6937 43.8432 30.6695 43.804C30.6546 43.7795 30.6411 43.7543 30.6289 43.7285C30.6092 43.6857 30.6502 43.7931 30.6316 43.7359C30.6275 43.7226 30.6239 43.7094 30.6209 43.6959C30.618 43.6824 30.6152 43.6684 30.6129 43.6546C30.6106 43.6407 30.6113 43.6387 30.6098 43.6312C30.6244 43.7096 30.6134 43.6722 30.6127 43.6501C30.6116 43.614 30.6132 43.5779 30.6174 43.5421C30.6198 43.5204 30.6321 43.4957 30.6124 43.5668C30.616 43.5553 30.6173 43.5426 30.62 43.5303C30.6228 43.518 30.6317 43.4934 30.6376 43.475C30.6434 43.4565 30.6521 43.4291 30.6622 43.4076C30.6654 43.3976 30.6687 43.3872 30.6744 43.378C30.6899 43.3412 30.6473 43.432 30.6666 43.3936C30.6923 43.3438 30.7206 43.2954 30.7515 43.2485C30.7692 43.2232 30.7816 43.1947 30.7879 43.1645C30.7943 43.1344 30.7944 43.1033 30.7882 43.0731C30.7821 43.0429 30.7699 43.0143 30.7523 42.9888C30.7347 42.9634 30.7122 42.9416 30.6859 42.925C30.6596 42.9083 30.6303 42.897 30.5995 42.8917C30.5687 42.8865 30.5372 42.8874 30.5068 42.8944C30.4765 42.9014 30.4478 42.9143 30.4226 42.9325C30.3975 42.9506 30.3762 42.9736 30.3603 43L30.3563 43.0004Z" fill="#FFA98E"/>
<path d="M36.5101 43.1676C36.7296 43.3937 37.0228 43.5939 37.3545 43.5481C37.6291 43.5104 37.7963 43.2419 37.7856 42.9829C37.7749 42.8045 37.7222 42.631 37.6317 42.476C37.6031 42.4222 37.5539 42.3817 37.4951 42.3635C37.4363 42.3453 37.3726 42.3509 37.318 42.379C37.2635 42.4071 37.2225 42.4555 37.2041 42.5135C37.1858 42.5715 37.1915 42.6343 37.2202 42.6882C37.249 42.7396 37.2743 42.793 37.2957 42.8478L37.2748 42.7927C37.2994 42.8562 37.3157 42.9225 37.3234 42.99C37.3219 42.9703 37.3198 42.9505 37.317 42.9332C37.3219 42.9779 37.3209 43.0231 37.3139 43.0675L37.3246 43.0073C37.3188 43.0399 37.3087 43.0715 37.2948 43.1015L37.3208 43.0456C37.3104 43.0683 37.2969 43.0895 37.2808 43.1087L37.3197 43.0633C37.3039 43.0816 37.2859 43.0979 37.266 43.1118L37.3144 43.0781C37.2955 43.0908 37.275 43.1012 37.2535 43.109L37.3094 43.0886C37.2848 43.0972 37.2592 43.1027 37.2332 43.1049L37.2932 43.0994C37.2581 43.1023 37.2228 43.1007 37.188 43.0948L37.2496 43.1056C37.1973 43.0961 37.1463 43.0804 37.0978 43.0587L37.1542 43.0843C37.0733 43.0455 36.9979 42.9966 36.9297 42.9388L36.9732 42.9769C36.9304 42.9407 36.8895 42.9023 36.8508 42.8619C36.809 42.8175 36.7512 42.7912 36.69 42.7886C36.6287 42.786 36.5689 42.8074 36.5236 42.8481C36.4783 42.8887 36.4512 42.9454 36.4481 43.0058C36.4449 43.0662 36.4661 43.1254 36.507 43.1705L36.5101 43.1676Z" fill="#FFA98E"/>
</g>
</g>
</svg>
