<svg width="221" height="390" viewBox="0 0 221 390" fill="none" xmlns="http://www.w3.org/2000/svg">
<path d="M220.55 244.034C212.113 221.19 201.989 196.261 199.321 193.336C195.285 192.203 166.771 192.136 161.068 192.825C160.073 197.042 158.648 215.482 157.77 232.199C157.767 232.496 157.704 232.788 157.585 233.058C157.467 233.328 157.295 233.57 157.081 233.77C156.866 233.97 156.614 234.124 156.338 234.223C156.062 234.321 155.768 234.362 155.475 234.343C155.182 234.323 154.895 234.245 154.631 234.111C154.367 233.977 154.132 233.792 153.94 233.565C153.749 233.338 153.604 233.075 153.514 232.792C153.425 232.508 153.393 232.21 153.421 231.915C155.588 190.565 157.249 189.635 158.443 188.971C161.145 187.446 197.465 187.776 201.158 189.331C202.393 189.861 204.297 190.65 214.86 217.093C219.918 229.764 224.594 242.405 224.637 242.532C224.738 242.803 224.785 243.092 224.776 243.38C224.766 243.669 224.7 243.952 224.582 244.214C224.464 244.475 224.295 244.71 224.086 244.905C223.877 245.1 223.631 245.25 223.363 245.348L223.314 245.371C222.776 245.555 222.185 245.519 221.668 245.269C221.152 245.019 220.75 244.575 220.55 244.034Z" fill="#8ED6FF"/>
<path d="M265.639 264.353C273.149 317.264 267.13 346.51 267.13 346.51C238.832 368.54 169.199 395.17 169.199 395.17C116.153 381.003 69.167 346.407 69.167 346.407C56.6151 321.709 47.9769 284.164 47.9769 284.164L265.639 264.353Z" fill="#FFA98E"/>
<path d="M169.66 387.429C181.51 382.779 235.52 361.094 260.882 342.572C261.972 334.768 264.421 310.522 259.699 272.738L58.2715 290.743C61.4501 302.701 67.873 324.746 75.9573 341.278C84.0762 347.007 124.712 374.72 169.66 387.429Z" fill="#FFA98E"/>
<path d="M146.821 326.401C146.324 324.386 147.627 322.399 149.663 322.013L154.063 321.177C156.078 320.795 158.019 322.146 158.386 324.166C160.146 333.852 165.419 360.893 173.347 384.272C174.084 386.443 172.708 388.769 170.446 389.126L169.648 389.251C168.008 389.51 166.396 388.63 165.755 387.097C156.888 365.901 149.334 336.606 146.821 326.401Z" fill="#8ED6FF"/>
<path d="M171.059 347.798C190.023 341.347 228.05 327.185 265.227 306.119C266.281 305.522 266.646 304.185 266.045 303.14C265.443 302.096 264.102 301.74 263.049 302.336C215.16 329.455 165.81 345.053 158.44 347.306C158.047 347.426 157.635 347.477 157.225 347.458C112.689 345.399 75.1747 324.869 66.6179 319.858C65.5835 319.252 64.2733 319.565 63.6241 320.575C62.9632 321.602 63.2466 322.945 64.2987 323.563C73.1162 328.744 111.984 350.03 158.026 351.879C158.263 351.888 158.502 351.858 158.73 351.791C158.894 351.743 163.448 350.391 171.059 347.798Z" fill="#8ED6FF"/>
<path d="M173.876 365.561C192.774 359.144 230.657 345.062 267.672 324.053C268.723 323.456 269.083 322.115 268.479 321.063C267.875 320.012 266.535 319.65 265.485 320.246C218.579 346.859 170.219 362.287 161.671 364.91C161.112 365.082 160.529 365.104 159.954 364.994C107.765 355.025 80.4027 339.298 73.4313 334.848C72.409 334.195 71.0431 334.433 70.3286 335.409C69.6169 336.382 69.8224 337.735 70.8335 338.397C77.8851 343.01 105.696 359.285 160.576 369.577C160.913 369.639 161.26 369.623 161.589 369.527C161.748 369.481 166.273 368.141 173.876 365.561Z" fill="#8ED6FF"/>
<path d="M168.302 329.498C187.201 323.072 225.099 308.97 262.134 287.971C263.185 287.375 263.548 286.037 262.946 284.99C262.344 283.944 261.005 283.585 259.954 284.181C212.389 311.142 163.348 326.654 155.773 328.963C155.352 329.091 154.922 329.139 154.483 329.104C146.588 328.483 95.4562 323.519 61.511 299.469C60.5225 298.769 59.1514 298.97 58.4282 299.942C57.7037 300.915 57.9048 302.292 58.8944 302.994C96.5998 329.741 152.849 333.411 155.264 333.554C155.517 333.57 155.77 333.542 156.013 333.472C156.168 333.427 160.694 332.085 168.302 329.498Z" fill="#8ED6FF"/>
<path d="M236.701 359.466C237.904 359.445 238.849 358.44 238.79 357.219C238.416 349.538 236.817 322.652 231.416 289.471C231.221 288.273 230.104 287.443 228.928 287.625C227.752 287.807 226.963 288.93 227.157 290.127C232.529 323.125 234.112 349.805 234.479 357.36C234.537 358.558 235.521 359.488 236.701 359.466Z" fill="#8ED6FF"/>
<path d="M206.544 372.6C206.969 373.746 208.206 374.323 209.301 373.913C210.386 373.506 210.923 372.282 210.502 371.148C207.54 363.17 196.66 333.22 190.885 308.405C190.61 307.221 189.468 306.454 188.324 306.69C187.185 306.925 186.474 308.067 186.748 309.247C192.576 334.325 203.55 364.536 206.544 372.6Z" fill="#8ED6FF"/>
<path d="M130.093 376.32C130.592 377.431 131.867 377.925 132.924 377.433C133.982 376.94 134.421 375.646 133.921 374.534C123.438 351.193 117.896 324.243 116.458 316.648C116.236 315.478 115.172 314.695 114.037 314.859C112.856 315.03 112.054 316.161 112.285 317.378C113.776 325.23 119.425 352.589 130.093 376.32Z" fill="#8ED6FF"/>
<path d="M94.4542 356.367C94.8384 357.468 96.0633 358.01 97.1848 357.6C98.3659 357.168 99.0164 355.825 98.6133 354.665C96.1301 347.523 88.2634 323.847 85.5502 304.792C85.3794 303.592 84.2671 302.752 83.041 302.919C81.8146 303.087 80.9388 304.198 81.1086 305.398C83.9184 325.264 91.9996 349.337 94.4542 356.367Z" fill="#8ED6FF"/>
<path d="M37.4111 258.717L268.045 240.95C272.703 249.054 273.897 263.878 273.897 263.878C231.499 295.466 150.108 327.041 150.108 327.041C90.8197 319.482 41.1041 285.142 41.1041 285.142C41.1041 285.142 37.036 270.907 37.4111 258.717Z" fill="#8ED6FF"/>
<path d="M268.181 240.827C181.313 235.55 136.861 221.014 136.861 221.014C110.373 234.2 76.5722 246.595 38.0442 258.471C83.5734 296.331 145.821 306.033 145.821 306.033C207.207 285.603 268.181 240.827 268.181 240.827Z" fill="#FFA98E"/>
<path d="M48.6606 260.357C63.9172 271.46 80.5365 279.702 95.6708 285.733C119.451 295.193 139.51 299.168 144.653 300.089L144.824 300.012C163.246 293.761 181.668 285.284 198.361 276.537C216.738 266.855 234.601 256.229 251.879 244.701C184.414 239.58 146.006 229.254 136.697 226.492C118.013 235.646 95.5293 244.654 68.0426 253.985C61.8749 256.083 55.3859 258.215 48.6606 260.357Z" fill="#FFCECE"/>
<path d="M96.2161 286.137C119.96 295.529 139.995 299.461 145.132 300.372L145.303 300.295C163.717 294.038 182.134 285.564 198.824 276.824C168.883 272.253 150.932 267.398 144.965 265.648C131.01 272.504 114.921 279.258 96.2161 286.137Z" fill="#8ED6FF"/>
<path d="M121.877 310.79C121.297 310.782 120.742 310.544 120.333 310.128C119.924 309.712 119.695 309.151 119.695 308.568C119.774 284.85 119.086 249.888 117.334 246.424C114.838 242.706 78.2772 226.222 70.9803 224.51C68.3375 229.328 63.2722 257.529 59.7095 283.334C59.6239 283.906 59.3174 284.419 58.8566 284.762C58.3957 285.105 57.8176 285.25 57.2477 285.166C56.6779 285.083 56.1623 284.777 55.8129 284.315C55.4634 283.853 55.3083 283.272 55.3812 282.699C55.3989 282.55 57.4624 267.653 60.0355 252.779C65.4223 221.591 67.7235 220.701 69.3921 220.136C71.6374 219.377 84.6931 224.885 95.2559 229.651C110.862 236.661 119.566 241.56 121.095 244.217C124.054 249.294 124.096 294.8 124.068 308.614C124.065 309.196 123.833 309.752 123.422 310.16C123.012 310.568 122.456 310.794 121.877 310.79Z" fill="#8ED6FF"/>
<path d="M211.444 125.651L140.093 145.471L142.44 153.935L213.791 134.115L211.444 125.651Z" fill="#FFCECE"/>
<path d="M153.34 54.2427L152.974 54.3442C151.406 54.78 150.469 56.343 150.883 57.8351L174.197 141.904C174.61 143.396 176.218 144.252 177.786 143.816L178.152 143.715C179.721 143.279 180.657 141.716 180.243 140.224L156.93 56.1555C156.516 54.6633 154.909 53.8069 153.34 54.2427Z" fill="#FFCECE"/>
<path d="M197.677 114.419L146.603 128.607C143.007 129.606 140.874 133.234 141.839 136.712L142.035 137.419C142.999 140.897 146.696 142.906 150.291 141.907L201.366 127.719C204.961 126.721 207.095 123.092 206.13 119.615L205.934 118.907C204.97 115.43 201.273 113.421 197.677 114.419Z" fill="#CDC1FF"/>
<path d="M188.031 102.391L147.875 113.546C144.27 114.547 142.129 118.178 143.094 121.655L143.29 122.363C144.254 125.84 147.958 127.847 151.564 126.846L191.72 115.691C195.325 114.689 197.466 111.059 196.501 107.581L196.305 106.874C195.341 103.397 191.636 101.39 188.031 102.391Z" fill="#8ED6FF"/>
<path d="M180.877 89.6707L149.074 98.5051C145.5 99.4979 143.384 103.122 144.349 106.599L144.545 107.306C145.509 110.784 149.188 112.798 152.762 111.805L184.565 102.971C188.139 101.978 190.255 98.3541 189.291 94.8768L189.094 94.1694C188.13 90.692 184.451 88.6779 180.877 89.6707Z" fill="#CDC1FF"/>
<path d="M172.408 77.8733L147.776 84.7156C144.226 85.7019 142.129 89.3204 143.093 92.7977L143.29 93.5051C144.254 96.9825 147.914 99.0018 151.465 98.0155L176.097 91.1732C179.647 90.1869 181.744 86.5685 180.779 83.0911L180.583 82.3837C179.619 78.9064 175.959 76.887 172.408 77.8733Z" fill="#8ED6FF"/>
<path d="M165.163 65.1786L149.067 69.6496C145.497 70.6414 143.384 74.2642 144.349 77.7415L144.545 78.449C145.509 81.9263 149.185 83.9413 152.755 82.9495L168.851 78.4785C172.421 77.4867 174.533 73.8639 173.569 70.3865L173.373 69.6791C172.409 66.2018 168.733 64.1868 165.163 65.1786Z" fill="#CDC1FF"/>
<path d="M38.8517 195.592C38.0711 194.263 37.8286 192.684 38.174 191.182C38.532 189.674 39.2789 188.287 40.3401 187.158C41.3934 185.989 42.7637 185.01 44.326 184.802C45.8883 184.594 47.6368 185.324 48.2642 186.774" fill="#8ED6FF"/>
<path d="M71.6233 164.746C70.8406 163.409 70.5998 161.822 70.9507 160.313C71.3111 158.817 72.0526 157.441 73.1028 156.318C74.1598 155.144 75.5254 154.165 77.0922 153.953C78.6589 153.742 80.4083 154.483 81.0353 155.927" fill="#CDC1FF"/>
<path d="M113.336 161.053C114.68 163.642 115.271 166.305 114.591 168.425C112.62 174.547 118.401 178.576 117.512 182.646C116.923 185.526 98.5763 203.474 88.1005 213.035C77.9058 222.885 68.435 231.182 65.5196 231.619C61.399 232.229 57.7551 226.192 51.528 227.759C48.175 228.604 43.7199 226.301 40.3431 222.907C36.4804 219.087 34.032 213.871 36.0714 210.334C40.0189 203.523 33.9155 198.984 37.2308 194.471C37.9085 193.554 45.0151 186.506 53.4978 178.258L53.4568 178.231L54.5651 177.223L55.6324 176.189L55.6734 176.216C64.4434 168.271 81.3753 152.602 82.3402 151.989C87.0357 148.958 91.1754 155.356 98.214 151.853C103.056 149.467 110.211 155.06 113.336 161.053Z" fill="#FFA98E"/>
<path d="M104.082 187.466C103.855 188.129 93.9081 197.536 84.8823 205.841L82.9017 207.667C80.8041 209.587 78.796 211.405 77.0442 212.984L75.2052 214.629C72.5574 216.987 70.7391 218.528 70.4533 218.623C70.1675 218.719 69.2722 217.952 67.9381 216.694C66.4106 215.27 64.3409 213.167 62.0847 210.806C56.9162 205.374 50.8318 198.584 48.4509 195.552C50.6153 193.024 56.8317 187.002 63.421 180.818C65.8219 178.571 68.2626 176.296 70.5854 174.159C73.1793 171.776 75.6166 169.564 77.6447 167.748C78.5867 166.908 79.4328 166.155 80.1744 165.511C80.9161 164.867 81.5769 164.287 82.0685 163.881C83.2266 164.947 84.9417 166.62 86.9283 168.602C87.3455 169.019 87.7816 169.465 88.2277 169.913C95.216 176.958 104.34 186.71 104.082 187.466Z" fill="#8ED6FF"/>
<path d="M70.5216 173.481C68.8209 186.886 69.1806 200.588 67.6907 214.046C67.6112 214.738 67.5303 215.441 67.4296 216.142C65.9268 214.73 63.8923 212.643 61.6754 210.3L63.3234 180.214C65.7407 177.956 68.1905 175.649 70.5216 173.481Z" fill="white" fill-opacity="0.1"/>
<path d="M79.996 164.862L76.5787 212.259L74.7431 213.911C75.055 198.301 76.8376 182.727 77.4586 167.128C78.4113 166.265 79.2558 165.509 79.996 164.862Z" fill="white" fill-opacity="0.1"/>
<path d="M88.0516 170.11C86.2828 181.892 85.1563 193.764 84.6772 205.673L82.7164 207.483L82.8119 206.532L86.7729 168.817C87.1773 169.241 87.6151 169.67 88.0516 170.11Z" fill="white" fill-opacity="0.1"/>
<path d="M44.2151 207.471C44.1821 208.107 52.7462 217.071 53.2947 217.239C53.8432 217.406 56.2828 215.14 56.2108 214.39C56.1389 213.64 47.1515 205.057 46.688 205.058C46.2244 205.059 44.2151 207.471 44.2151 207.471Z" fill="#CDC1FF"/>
<path d="M53.7308 205.743C53.0998 205.712 44.1425 214.275 43.9751 214.824C43.8077 215.373 46.0774 217.817 46.8204 217.747C47.5633 217.676 56.1416 208.686 56.1404 208.222C56.1392 207.758 53.7308 205.743 53.7308 205.743Z" fill="#CDC1FF"/>
<path d="M93.2217 164.154C93.4884 164.302 93.7874 164.378 94.0857 164.373C94.4623 164.333 94.8071 164.171 95.0665 163.914C95.323 163.69 95.5199 163.409 95.6419 163.091C95.7639 162.774 95.8079 162.429 95.7704 162.083C95.72 161.734 95.5581 161.402 95.3079 161.136C95.0577 160.87 94.7321 160.683 94.3781 160.603C94.0585 160.552 93.7358 160.576 93.4365 160.671C93.0505 160.77 92.7081 160.976 92.4495 161.265C91.7936 162.084 92.2705 163.656 93.2217 164.154Z" fill="#8ED6FF"/>
<path d="M93.8965 170.267C94.2847 170.494 94.727 170.607 95.168 170.591C95.5608 170.625 95.9475 170.529 96.266 170.319C96.5846 170.109 96.8165 169.796 96.9246 169.431C97.0496 169.147 97.0974 168.833 97.0635 168.519C97.017 168.244 96.8959 167.984 96.7129 167.765C96.4346 167.439 96.062 167.203 95.6489 167.092C95.2359 166.98 94.8037 166.999 94.4149 167.144C93.2887 167.594 92.6692 169.504 93.8965 170.267Z" fill="#8ED6FF"/>
<path d="M99.9913 163.811C100.259 163.959 100.558 164.035 100.857 164.03C101.235 163.992 101.581 163.831 101.84 163.571C102.097 163.347 102.293 163.064 102.415 162.746C102.536 162.428 102.579 162.082 102.54 161.735C102.489 161.39 102.329 161.062 102.082 160.798C101.835 160.534 101.514 160.348 101.164 160.265C100.839 160.213 100.511 160.237 100.207 160.335C99.8192 160.435 99.4752 160.642 99.2161 160.933C98.5561 161.74 99.0352 163.314 99.9913 163.811Z" fill="#8ED6FF"/>
<path d="M100.671 169.928C101.061 170.153 101.503 170.268 101.943 170.258C102.315 170.28 102.678 170.2 102.993 170.027C103.331 169.799 103.58 169.469 103.707 169.084C103.828 168.801 103.873 168.488 103.836 168.175C103.788 167.903 103.667 167.645 103.485 167.426C103.207 167.099 102.834 166.861 102.42 166.746C102.007 166.632 101.575 166.648 101.188 166.792C100.059 167.248 99.4648 169.157 100.671 169.928Z" fill="#8ED6FF"/>
<path d="M100.881 178.018C100.53 178.73 102.421 179.734 102.947 179.557C103.474 179.381 106.222 177.033 106.307 176.515C106.392 175.997 105.099 174.499 104.688 174.575C104.276 174.65 101.143 177.488 100.881 178.018Z" fill="#FFE3B0"/>
<path d="M103.847 180.941C103.495 181.653 105.387 182.657 105.907 182.481C106.426 182.305 109.188 179.955 109.27 179.441C109.353 178.926 108.065 177.421 107.653 177.497C107.242 177.573 104.111 180.407 103.847 180.941Z" fill="#FFE3B0"/>
<path d="M45.9648 209.013C45.6875 209.037 45.1951 207.535 45.5369 207.245C45.8788 206.955 47.3698 207.524 47.3494 207.836C47.329 208.149 46.3022 207.866 46.2038 207.93C46.1054 207.993 46.414 208.974 45.9648 209.013Z" fill="#FFA98E"/>
<path d="M52.0084 214.666C51.9717 214.932 53.544 215.496 53.8629 215.187C54.1818 214.879 53.6409 213.412 53.311 213.411C52.981 213.41 53.247 214.409 53.1598 214.502C53.0727 214.595 52.0632 214.238 52.0084 214.666Z" fill="#FFA98E"/>
<path d="M47.3613 215.106C47.3595 215.383 45.8424 215.682 45.5819 215.303C45.3214 214.925 46.0077 213.529 46.3114 213.586C46.615 213.642 46.2526 214.618 46.3099 214.728C46.3673 214.839 47.3622 214.659 47.3613 215.106Z" fill="#FFA98E"/>
<path d="M53.134 208.915C53.4046 208.916 53.8565 207.258 53.5158 206.979C53.1751 206.7 51.7352 207.444 51.7489 207.79C51.7627 208.137 52.7656 207.718 52.8586 207.786C52.9517 207.855 52.6964 208.916 53.134 208.915Z" fill="#FFA98E"/>
<path d="M57.0143 30.7573L68.6138 18.7417L60.1828 33.1912L48.1264 44.8566L57.0143 30.7573Z" fill="#8ED6FF"/>
<path d="M59.7874 33.89L78.6169 48.2933L87.5351 33.2048L68.7085 18.806L59.7874 33.89Z" fill="#FFA98E"/>
<path d="M48.3145 45.4553L67.3333 60.2593L79.8012 48.0536L60.787 33.2466L48.3145 45.4553Z" fill="#CDC1FF"/>
<path d="M92.5209 26.4248L108.296 19.7821L94.3621 29.9077L78.3212 36.052L92.5209 26.4248Z" fill="#FFA98E"/>
<path d="M93.7728 30.2304L105.198 51.5328L119.26 41.3054L107.84 20L93.7728 30.2304Z" fill="#CDC1FF"/>
<path d="M78.275 35.9277L89.4859 56.7346L105.119 51.059L93.9008 30.2505L78.275 35.9277Z" fill="#8ED6FF"/>
<path d="M132.143 265.817C132.079 265.965 132.015 266.113 131.952 266.259C131.691 266.863 131.415 267.501 131.488 268.155C131.567 268.73 131.854 269.25 132.293 269.616L132.39 269.707C132.795 270.038 133.237 270.321 133.707 270.551C134.059 270.734 134.409 270.905 134.776 271.074C134.81 271.096 134.848 271.112 134.888 271.122C135.845 271.577 136.826 271.983 137.825 272.337C138.346 272.525 138.876 272.7 139.404 272.862C139.933 273.024 140.614 273.171 141.099 272.827C141.328 272.64 141.514 272.405 141.643 272.138C143.432 269.043 145.112 265.894 146.681 262.689C147.262 261.495 147.844 260.232 147.792 258.916C147.686 256.166 143.752 254.786 141.44 255.224C140.029 255.536 138.718 256.221 137.639 257.208C135.038 259.451 133.528 262.66 132.143 265.817Z" fill="#8ED6FF"/>
<path d="M132.143 265.817C132.079 265.965 132.015 266.113 131.952 266.259C131.691 266.863 131.415 267.501 131.488 268.155C131.567 268.73 131.854 269.25 132.293 269.616L132.39 269.707C132.795 270.038 133.237 270.321 133.707 270.551C134.059 270.734 134.409 270.905 134.776 271.074C134.81 271.096 134.848 271.112 134.888 271.122C135.845 271.577 136.826 271.983 137.825 272.337C138.346 272.525 138.876 272.7 139.404 272.862C139.933 273.024 140.614 273.171 141.099 272.827C141.328 272.64 141.514 272.405 141.643 272.138C143.432 269.043 145.112 265.894 146.681 262.689C147.262 261.495 147.844 260.232 147.792 258.916C147.686 256.166 143.752 254.786 141.44 255.224C140.029 255.536 138.718 256.221 137.639 257.208C135.038 259.451 133.528 262.66 132.143 265.817Z" fill="#FFA98E"/>
<path d="M149.745 274.203C149.659 274.343 149.577 274.48 149.498 274.619C149.163 275.192 148.82 275.797 148.807 276.456C148.815 277.04 149.035 277.593 149.425 278.011L149.509 278.114C149.87 278.494 150.272 278.83 150.708 279.118C151.031 279.341 151.357 279.556 151.687 279.763C151.719 279.788 151.754 279.81 151.792 279.827C152.682 280.395 153.597 280.927 154.545 281.392C155.035 281.647 155.536 281.883 156.039 282.107C156.543 282.331 157.197 282.563 157.717 282.278C157.965 282.118 158.177 281.905 158.339 281.655C160.483 278.785 162.527 275.842 164.47 272.826C165.19 271.706 165.915 270.515 166.037 269.202C166.265 266.437 162.547 264.589 160.224 264.738C158.792 264.881 157.413 265.406 156.226 266.26C153.38 268.201 151.501 271.224 149.745 274.203Z" fill="#8ED6FF"/>
<path d="M149.745 274.203C149.659 274.343 149.577 274.48 149.498 274.619C149.163 275.192 148.82 275.797 148.807 276.456C148.815 277.04 149.035 277.593 149.425 278.011L149.509 278.114C149.87 278.494 150.272 278.83 150.708 279.118C151.031 279.341 151.357 279.556 151.687 279.763C151.719 279.788 151.754 279.81 151.792 279.827C152.682 280.395 153.597 280.927 154.545 281.392C155.035 281.647 155.536 281.883 156.039 282.107C156.543 282.331 157.197 282.563 157.717 282.278C157.965 282.118 158.177 281.905 158.339 281.655C160.483 278.785 162.527 275.842 164.47 272.826C165.19 271.706 165.915 270.515 166.037 269.202C166.265 266.437 162.547 264.589 160.224 264.738C158.792 264.881 157.413 265.406 156.226 266.26C153.38 268.201 151.501 271.224 149.745 274.203Z" fill="#FFA98E"/>
<path d="M150.673 238.945C150.673 238.945 150.906 234.942 151.794 234.314C152.683 233.686 153.959 238.135 153.959 238.135L150.673 238.945Z" fill="#FFE3B0"/>
<path d="M155.486 236.788C155.486 236.788 158.119 232.133 159.621 232.013C161.124 231.894 160.18 238.16 160.18 238.16L155.486 236.788Z" fill="#FFE3B0"/>
<path d="M162.15 239.298C162.15 239.298 165.128 236.195 166.263 236.365C167.397 236.535 165.287 241.211 165.287 241.211L162.15 239.298Z" fill="#FFE3B0"/>
<path d="M167.608 242.504C167.608 242.504 171.793 240.818 172.901 241.452C174.009 242.086 170.25 245.593 170.25 245.593L167.608 242.504Z" fill="#FFE3B0"/>
<path d="M172.933 248.695C172.933 248.695 177.178 247.974 177.913 248.884C178.648 249.794 174.042 252.421 174.042 252.421L172.933 248.695Z" fill="#FFE3B0"/>
<path d="M174.532 255.333C174.532 255.333 177.649 255.463 177.966 256.331C178.282 257.2 174.55 258.597 174.55 258.597L174.532 255.333Z" fill="#FFE3B0"/>
<path d="M173.867 261.723C173.867 261.723 177 260.43 177.842 260.896C178.683 261.362 175.903 264.024 175.903 264.024L173.867 261.723Z" fill="#FFE3B0"/>
<path d="M177.084 266.343C177.084 266.343 179.504 263.967 180.6 264.17C181.697 264.373 180.333 267.999 180.333 267.999L177.084 266.343Z" fill="#FFE3B0"/>
<path d="M180.724 269.983C180.724 269.983 183.145 267.607 184.241 267.809C185.338 268.012 183.974 271.639 183.974 271.639L180.724 269.983Z" fill="#FFE3B0"/>
<path d="M128.421 226.59C128.403 226.685 128.398 226.781 128.405 226.877C128.516 229.172 134.823 231.469 134.823 231.469C132.94 234.358 131.567 237.545 130.765 240.891C130.657 241.323 130.561 241.772 130.474 242.226C130.118 244.236 130.156 246.293 130.586 248.284C131.584 253.29 134.65 258.782 139.294 263.981C148.706 274.513 164.394 275.075 169.738 277.902C176.843 281.635 183.035 277.524 186.141 274.186C187.781 272.417 188.566 270.861 188.171 270.769C180.54 269.074 177.858 265.693 175.579 263.162C174.914 262.418 175.039 261.313 175.283 259.836C175.878 256.297 177.12 250.633 169.653 242.494C163.957 236.302 158.042 236.097 153.488 236.687C149.562 237.201 146.645 238.306 145.753 236.692C143.834 233.201 148.999 226.037 147.212 222.618C145.425 219.2 135.767 218.326 133.456 219.345C131.146 220.365 128.859 224.206 128.421 226.59Z" fill="#FFA98E"/>
<path opacity="0.3" d="M153.865 236.427C153.69 236.976 153.52 237.536 153.352 238.092C152.955 239.403 152.584 240.793 152.884 242.124C153.138 243.246 153.841 244.2 154.541 245.124C157.658 249.299 159.593 254.001 164.054 257.104C167.217 259.307 171.835 260.816 175.622 259.482C176.212 255.971 177.447 250.322 169.994 242.223C164.305 236.047 158.406 235.837 153.865 236.427Z" fill="#FFE3B0"/>
<path d="M151.514 277.007C151.45 277.154 151.387 277.301 151.341 277.453C151.107 278.064 150.867 278.711 150.975 279.356C151.092 279.927 151.417 280.437 151.887 280.789L151.993 280.877C152.429 281.195 152.899 281.464 153.394 281.679C153.766 281.838 154.139 281.996 154.522 282.159C154.559 282.179 154.597 282.195 154.638 282.208C155.643 282.635 156.67 283.006 157.719 283.323C158.264 283.498 158.817 283.654 159.37 283.797C159.922 283.94 160.627 284.068 161.103 283.708C161.326 283.513 161.502 283.273 161.619 283.003C163.269 279.86 164.802 276.662 166.219 273.407C166.742 272.198 167.264 270.921 167.134 269.609C166.852 266.858 162.747 265.617 160.405 266.132C158.978 266.489 157.675 267.214 156.629 268.234C154.1 270.564 152.745 273.813 151.514 277.007Z" fill="#FFA98E"/>
<path d="M155.861 280.126C155.104 280.762 154.451 281.51 153.925 282.345C155.035 282.817 156.169 283.226 157.328 283.574C157.516 283.235 157.671 282.879 157.788 282.51C158.039 281.774 157.989 280.971 157.649 280.275C157.537 280.04 157.346 279.853 157.109 279.743C156.69 279.588 156.224 279.839 155.861 280.126Z" fill="#FFE3B0"/>
<path d="M153.411 279.043C152.663 279.689 152.008 280.495 151.488 281.407C151.846 281.711 152.24 281.958 152.663 282.143C152.981 282.278 153.298 282.413 153.626 282.553C154.053 281.681 154.326 280.742 154.425 279.809C154.459 279.322 154.319 278.736 153.923 278.767C153.743 278.796 153.564 278.893 153.411 279.043Z" fill="#FFE3B0"/>
<path d="M151.489 277.637C151.421 277.792 151.354 277.947 151.299 278.105C151.042 278.745 150.775 279.424 150.759 280.049C150.761 280.6 150.92 281.06 151.207 281.343L151.684 280.181C151.9 279.711 152.057 279.218 152.145 278.728C152.187 278.483 152.177 278.25 152.116 278.057C152.055 277.865 151.946 277.721 151.803 277.642C151.707 277.607 151.6 277.605 151.489 277.637Z" fill="#FFE3B0"/>
<path d="M129.222 264.322C129.134 264.458 129.049 264.597 128.968 264.733C128.622 265.297 128.268 265.897 128.238 266.552C128.229 267.136 128.43 267.694 128.802 268.12L128.884 268.225C129.226 268.609 129.611 268.951 130.031 269.244C130.342 269.472 130.661 269.69 130.982 269.903C131.011 269.93 131.044 269.952 131.08 269.968C131.941 270.555 132.832 271.091 133.755 271.576C134.231 271.835 134.718 272.082 135.209 272.313C135.699 272.545 136.336 272.792 136.861 272.51C137.108 272.354 137.322 272.146 137.487 271.9C139.678 269.066 141.771 266.162 143.764 263.189C144.502 262.084 145.252 260.908 145.392 259.592C145.685 256.836 142.077 254.935 139.771 255.058C138.356 255.174 136.982 255.675 135.789 256.509C132.961 258.393 131.027 261.375 129.222 264.322Z" fill="#FFA98E"/>
<path d="M133.292 267.98C132.461 268.459 131.705 269.068 131.054 269.782C132.007 270.428 132.995 271.019 134.017 271.554C134.257 271.26 134.467 270.942 134.645 270.607C135.02 269.942 135.128 269.162 134.945 268.433C134.885 268.187 134.741 267.974 134.538 267.83C134.17 267.601 133.682 267.762 133.292 267.98Z" fill="#FFE3B0"/>
<path d="M131.974 266.915C131.192 267.367 130.473 267.997 129.865 268.763C130.149 269.14 130.475 269.469 130.837 269.745C131.104 269.962 131.378 270.168 131.655 270.367C132.171 269.619 132.556 268.773 132.779 267.89C132.879 267.427 132.841 266.831 132.463 266.766C132.3 266.757 132.129 266.809 131.974 266.915Z" fill="#FFE3B0"/>
<path d="M129.796 264.268C129.715 264.404 129.635 264.543 129.559 264.678C129.237 265.241 128.904 265.839 128.831 266.465C128.779 267.022 128.899 267.539 129.169 267.917C129.367 267.579 129.564 267.241 129.762 266.9C130.026 266.496 130.231 266.048 130.365 265.583C130.431 265.349 130.441 265.112 130.397 264.898C130.352 264.685 130.253 264.505 130.113 264.38C130.02 264.313 129.912 264.274 129.796 264.268Z" fill="#FFE3B0"/>
<path d="M138.982 222.698C139.094 222.478 139.246 222.281 139.431 222.118C139.526 222.007 139.656 221.932 139.797 221.907C139.875 221.917 139.945 221.957 139.994 222.018C140.089 222.109 140.156 222.226 140.188 222.356C140.231 222.723 140.157 223.097 139.979 223.424C139.839 223.748 139.596 224.018 139.291 224.189C138.735 224.416 138.597 223.472 138.982 222.698Z" fill="#FFE3B0"/>
<path d="M132.672 223.276C132.909 223.313 133.16 222.147 132.643 221.949C132.127 221.752 131.584 222.644 131.783 222.769C131.982 222.894 132.164 222.332 132.425 222.443C132.686 222.554 132.434 223.24 132.672 223.276Z" fill="#FFE3B0"/>
<path d="M131.73 228.82C133.321 229.496 134.539 229.127 135.317 228.663C135.891 228.327 136.4 227.835 136.793 227.238C136.816 227.197 136.826 227.151 136.82 227.107C136.814 227.064 136.793 227.028 136.762 227.006C136.746 226.995 136.728 226.988 136.709 226.986C136.69 226.983 136.671 226.985 136.651 226.991C136.632 226.998 136.613 227.009 136.596 227.023C136.579 227.037 136.565 227.055 136.553 227.075C136.477 227.2 134.66 230.13 131.267 228.194C131.25 228.184 131.232 228.179 131.212 228.178C131.193 228.177 131.173 228.18 131.153 228.188C131.134 228.196 131.115 228.208 131.099 228.223C131.083 228.238 131.069 228.257 131.058 228.278C131.036 228.319 131.028 228.366 131.036 228.409C131.044 228.452 131.067 228.487 131.1 228.507C131.317 228.629 131.523 228.732 131.73 228.82Z" fill="#FFE3B0"/>
<path d="M137.474 228.105C137.499 228.125 137.533 228.131 137.567 228.12C137.601 228.11 137.633 228.084 137.655 228.048C137.678 228.013 137.689 227.971 137.687 227.932C137.684 227.893 137.669 227.859 137.643 227.839C137.407 227.52 137.237 227.133 137.143 226.703C137.135 226.667 137.114 226.639 137.085 226.625C137.057 226.612 137.022 226.614 136.99 226.631C136.957 226.648 136.929 226.679 136.912 226.717C136.895 226.754 136.889 226.796 136.898 226.832C137 227.298 137.185 227.715 137.441 228.061C137.449 228.079 137.46 228.094 137.474 228.105Z" fill="#FFE3B0"/>
<path d="M142.985 221.782C142.887 221.799 142.785 221.796 142.687 221.773C142.589 221.75 142.496 221.707 142.414 221.648C142.252 221.529 142.101 221.396 141.963 221.252C141.656 220.967 141.309 220.735 141 220.437C140.679 220.157 140.481 219.774 140.447 219.369C140.439 219.169 140.51 218.977 140.645 218.829C140.78 218.682 140.97 218.59 141.178 218.571C141.435 218.595 141.68 218.699 141.875 218.867C142.291 219.166 142.659 219.521 142.969 219.92C143.343 220.387 143.915 221.551 142.985 221.782Z" fill="#FFE3B0"/>
<path d="M138.061 229.268C137.826 228.998 137.666 228.675 137.597 228.329C137.527 227.984 137.55 227.628 137.664 227.297C137.795 226.911 138.064 226.586 138.422 226.38C138.781 226.175 139.204 226.102 139.617 226.175C140.551 226.417 141.396 227.497 141.122 228.447C140.979 228.831 140.756 229.181 140.466 229.474C139.867 230.191 138.623 229.898 138.061 229.268Z" fill="#FFCECE"/>
<path d="M173.25 252.857C173.331 253.78 173.289 254.772 172.787 255.562C172.619 255.861 172.356 256.096 172.042 256.226C171.832 256.287 171.612 256.296 171.4 256.254C171.188 256.212 170.99 256.119 170.822 255.983C170.491 255.703 170.213 255.364 170.004 254.981C169.344 253.917 168.795 252.785 168.367 251.602C168.061 250.856 167.899 250.056 167.889 249.243C167.887 248.835 167.972 248.431 168.138 248.056C168.305 247.682 168.549 247.346 168.853 247.073C171.669 244.795 173.096 251.131 173.25 252.857Z" fill="#FFCECE"/>
<path d="M168.903 245.598C168.731 245.73 168.528 245.817 168.312 245.851C168.095 245.886 167.873 245.867 167.664 245.797C167.272 245.696 166.906 245.512 166.593 245.258C166.28 245.003 166.028 244.685 165.854 244.326C165.781 244.198 165.744 244.054 165.747 243.908C165.769 243.8 165.817 243.699 165.887 243.614C165.957 243.528 166.047 243.46 166.15 243.416C166.45 243.278 166.781 243.214 167.115 243.23C167.787 243.235 168.612 243.426 168.981 244.051C169.243 244.458 169.265 245.26 168.903 245.598Z" fill="#FFCECE"/>
<path d="M167.407 248.632C167.45 249.103 167.428 249.585 167.34 250.062C167.295 250.302 167.208 250.533 167.083 250.744C166.957 250.954 166.797 251.139 166.611 251.289C166.003 251.734 165.23 251.599 164.591 251.317C164.116 251.123 163.691 250.823 163.343 250.435C162.993 250.042 162.797 249.514 162.79 248.945C162.815 248.423 162.988 247.907 163.285 247.468C163.543 247.042 163.915 246.706 164.344 246.512C165.102 246.201 165.881 246.56 166.582 246.921C167.169 247.216 167.368 247.958 167.407 248.632Z" fill="#FFCECE"/>
<path d="M150.08 247.766C149.71 247.8 149.331 247.754 148.972 247.632C148.614 247.51 148.284 247.315 148.009 247.062C147.74 246.804 147.545 246.487 147.443 246.146C147.342 245.804 147.339 245.448 147.433 245.116C147.5 244.87 147.656 244.658 147.876 244.516C148.131 244.394 148.421 244.341 148.715 244.362C149.602 244.364 150.905 244.339 151.696 244.888C152.54 245.479 152.302 246.547 151.677 247.092C151.244 247.471 150.685 247.707 150.08 247.766Z" fill="#FFCECE"/>
<path d="M153.512 251.617C153.407 251.742 153.278 251.838 153.141 251.893C153.028 251.914 152.916 251.909 152.812 251.876C152.709 251.844 152.616 251.786 152.539 251.705C152.256 251.531 152.04 251.249 151.922 250.898C151.86 250.559 151.902 250.186 152.04 249.837C152.195 249.363 152.457 248.927 152.795 248.581C152.874 248.498 152.963 248.431 153.058 248.384C153.176 248.336 153.298 248.315 153.416 248.322C153.733 248.316 154.031 248.407 154.283 248.586C155.283 249.351 154.274 250.819 153.512 251.617Z" fill="#FFCECE"/>
<path d="M147.523 225.236C147.499 225.342 147.445 225.438 147.367 225.515C147.327 225.553 147.277 225.582 147.222 225.599C147.168 225.616 147.108 225.622 147.049 225.616C146.908 225.583 146.783 225.501 146.699 225.387C146.563 225.236 146.477 225.054 146.451 224.864C146.44 224.771 146.453 224.678 146.49 224.593C146.526 224.508 146.585 224.434 146.661 224.378C146.761 224.319 146.882 224.295 147.004 224.312C147.126 224.328 147.241 224.382 147.33 224.466C147.42 224.577 147.485 224.704 147.518 224.837C147.551 224.97 147.553 225.106 147.523 225.236Z" fill="#FFCECE"/>
<path d="M146.348 222.468C146.364 222.558 146.362 222.651 146.34 222.74C146.318 222.829 146.278 222.913 146.223 222.987C146.169 223.055 146.097 223.107 146.017 223.138C145.936 223.169 145.849 223.178 145.764 223.164C145.667 223.137 145.577 223.088 145.501 223.02C145.37 222.922 145.272 222.785 145.219 222.629C145.195 222.547 145.19 222.46 145.205 222.376C145.219 222.291 145.252 222.211 145.301 222.14C145.35 222.069 145.414 222.01 145.488 221.967C145.562 221.924 145.645 221.898 145.73 221.891C145.887 221.891 146.038 221.95 146.152 222.057C146.267 222.164 146.337 222.311 146.348 222.468Z" fill="#FFCECE"/>
</svg>
