<svg width="270" height="391" viewBox="0 0 270 391" fill="none" xmlns="http://www.w3.org/2000/svg">
<path d="M307.216 152.975C306.09 152.015 304.947 150.947 303.8 149.939C302.659 149.03 301.579 148.048 300.566 146.998C300.21 146.589 297.231 144.329 295.716 142.916C293.133 140.892 290.445 139.007 287.664 137.268C280.733 132.98 273.201 129.763 265.319 127.724C263.954 127.423 265.602 132.1 261.26 140.629C250.312 162.112 219.724 165.348 205.148 144.826C203.123 141.956 201.531 138.803 200.424 135.467C200.201 134.931 199.987 135.035 198.759 135.677C187.781 141.619 178.307 150.003 171.06 160.189C168.413 162.971 162.744 173.687 143.146 195.511C142.657 195.943 142.345 196.541 142.27 197.191C142.196 197.841 142.365 198.496 142.744 199.028C149.485 209.089 166.2 221.918 175.586 224.847C177.844 225.548 179.091 224.811 180.643 223.303C183.963 219.982 186.789 214.106 188.507 209.609C188.696 209.13 188.76 208.611 188.691 208.1C188.314 205.21 188.061 202.31 187.517 199.432C187.169 197.602 186.988 195.732 186.64 193.902C186.291 192.073 185.905 190.016 185.635 188.068C185.378 187.245 185.233 186.391 185.205 185.529C185.205 185.529 185.314 185.483 185.374 185.458C186.084 185.075 190.418 218.098 190.742 225.719C192.629 247.753 193.049 269.887 191.999 291.973C191.382 303.151 191.168 303.184 191.317 304.638C191.673 308.196 194.252 309.393 197.437 311.052C215.154 320.341 235.255 324.017 255.082 321.595C274.908 319.173 293.527 310.766 308.475 297.486C310.745 295.478 312.356 293.358 311.403 290.179C309.259 283.047 306.387 274.029 302.807 258.796C296.611 232.786 292.603 206.303 290.826 179.626C290.731 177.962 290.708 176.297 290.548 174.647C290.499 174.298 290.537 173.943 290.659 173.613C290.659 173.613 290.768 173.567 290.816 173.547C290.865 173.527 290.816 173.547 290.852 173.632C292.31 196.98 292.203 197.168 293.489 198.577C293.846 198.957 298.438 206.525 304.812 210.127C307.227 211.478 309.607 209.767 312.332 207.653C320.261 201.474 331.09 188.055 335.45 177C336.714 173.638 330.909 173.934 307.216 152.975Z" fill="#FFE3B0"/>
<path d="M233.476 148.598C243.65 148.066 254.47 138.577 255.964 126.537C256.15 125.151 256.103 125.073 254.699 124.985C250.425 124.66 246.132 124.579 241.84 124.742C237.97 124.955 234.862 125.271 232.06 125.459C231.198 125.552 230.342 125.704 229.499 125.912C222.704 126.812 216.004 128.376 209.501 130.581C208.716 130.91 208.606 130.956 208.873 131.772C211.073 138.143 215.768 143.348 221.928 146.245C225.498 147.971 229.469 148.78 233.476 148.598Z" fill="#FFE3B0"/>
<path d="M201.169 139.007C200.732 137.958 200.3 136.921 199.936 135.841C199.572 134.761 199.693 134.88 206.256 132.262C207.279 131.834 207.569 131.981 207.781 132.799C211.73 144.787 225.105 151.726 234.883 149.788C240.139 148.646 244.924 145.919 248.583 141.982C252.242 138.045 254.595 133.09 255.32 127.796C255.449 126.836 255.403 126.416 256.015 126.373C258.356 126.585 260.683 126.921 262.986 127.38C263.376 127.457 263.712 127.543 263.655 127.992C262.384 139.741 256.488 148.185 247.926 153.353C243.952 155.778 239.511 157.335 234.898 157.92C230.286 158.505 225.609 158.105 221.182 156.747C216.754 155.388 212.678 153.103 209.227 150.043C205.775 146.984 203.028 143.221 201.169 139.007Z" fill="#FFA98E"/>
<path d="M330.926 170.637C328.48 168.94 325.136 166.631 320.599 162.96C312.72 156.607 307.463 151.963 303.206 148.246C295.943 141.865 291.955 138.35 283.485 133.762C278.781 131.21 273.851 129.103 268.758 127.468C257.615 123.926 238.924 123.213 225.291 125.81C207.97 129.106 195.989 133.173 182.326 145.217C174.585 152.035 170.466 157.824 165.397 165.099C158.246 175.497 150.332 185.345 141.72 194.561C141.154 195.054 140.769 195.724 140.628 196.463C140.486 197.203 140.595 197.969 140.938 198.639C147.235 208.76 166.439 223.647 175.748 225.593C180.872 226.7 185.891 215.709 187.601 212.045L187.788 211.637C190.366 234.505 191.377 257.521 190.812 280.523C190.501 291.52 190.063 297.043 189.799 300.346C189.539 303.318 189.481 304.273 189.864 305.501C190.148 306.444 190.616 307.321 191.243 308.079C191.87 308.837 192.642 309.462 193.514 309.915C212.367 320.645 234.196 324.884 255.661 321.983C264.327 320.811 272.801 318.507 280.869 315.131C291.448 310.732 301.168 304.494 309.583 296.704C313.121 293.42 312.028 290.112 310.525 285.544C310.169 284.69 309.937 283.756 309.649 282.789C302.152 257.013 296.725 230.678 293.419 204.038C293.191 202.258 292.984 200.769 292.825 199.633C292.999 199.847 293.227 200.153 293.459 200.471C295.863 203.895 298.784 206.924 302.117 209.447C303.439 210.397 305.466 211.396 306.781 211.06C307.132 210.973 307.475 210.859 307.807 210.717C315.786 207.379 332.052 187.789 335.706 176.74C336.468 174.46 335.069 173.499 330.926 170.637ZM304.729 209.213C301.142 207.45 297.115 203.293 292.993 197.23C292.749 196.894 292.587 196.505 292.521 196.096C291.033 181.944 290.91 176.855 290.862 174.685C290.88 174.064 290.827 173.442 290.703 172.833C290.648 172.686 290.545 172.561 290.411 172.479C290.278 172.396 290.121 172.36 289.965 172.376C289.809 172.392 289.663 172.46 289.549 172.568C289.435 172.677 289.361 172.82 289.337 172.975C289.007 174.545 290.44 190.381 290.904 195.226L290.96 195.36C292.064 211.706 297.339 239.334 300.396 252.973C304.351 270.617 307.271 280.162 309.215 286.507C309.588 287.711 309.91 288.793 310.209 289.785C310.575 290.858 310.605 292.018 310.294 293.108C309.983 294.198 309.347 295.166 308.471 295.881C297.772 305.639 285.048 312.893 271.214 317.121C257.381 321.349 242.781 322.445 228.466 320.332C213.759 318.196 200.757 312.655 194.084 308.546C193.105 308.018 192.305 307.209 191.785 306.223C191.265 305.237 191.049 304.118 191.165 303.01C194.875 255.358 189.892 204.329 185.353 184.839C185.328 184.692 185.261 184.556 185.163 184.446C185.064 184.335 184.936 184.255 184.794 184.214C184.662 184.18 184.524 184.184 184.395 184.226C184.266 184.267 184.151 184.344 184.064 184.447C183.941 184.638 183.874 184.859 183.87 185.086C183.867 185.313 183.926 185.536 184.042 185.731C184.327 186.413 185.335 192.806 186.788 202.835L186.865 203.018C187.689 207.942 187.636 208.293 187.307 209.147C185.443 213.778 182.557 219.824 179.088 222.965C178.647 223.477 178.067 223.849 177.418 224.036C176.77 224.224 176.081 224.218 175.435 224.021C165.239 221.142 147.725 206.651 142.533 198.258C142.373 198.07 142.253 197.852 142.179 197.617C142.105 197.381 142.078 197.134 142.101 196.888C142.123 196.642 142.195 196.404 142.311 196.187C142.426 195.969 142.585 195.777 142.775 195.622C151.446 186.112 159.496 176.049 166.874 165.497C171.727 158.728 175.557 153.375 181.646 147.864C186.689 143.131 192.324 139.075 198.408 135.797L198.481 135.767C198.719 135.623 198.977 135.515 199.246 135.447C199.301 135.518 199.336 135.602 199.348 135.691L199.409 135.837C201.049 140.619 203.718 144.982 207.226 148.615C210.79 152.283 215.146 155.08 219.956 156.79C224.338 158.346 228.981 159.026 233.622 158.789L234.348 158.786C234.626 158.799 234.904 158.793 235.181 158.767C243.998 157.068 250.006 153.996 255.336 148.617C260.585 143.219 263.866 136.203 264.651 128.699C264.684 128.471 264.722 128.083 264.79 128.04C264.858 127.997 265.241 128.095 265.466 128.158C276.326 131.088 287.72 137.288 292.915 141.614C293.111 141.775 293.405 141.967 293.709 142.184C294.013 142.379 294.306 142.591 294.586 142.819C295.923 144.077 297.351 145.212 298.814 146.361L298.953 146.489C301.554 148.866 310.804 157.279 320.967 165.111C326.339 169.277 330.03 171.842 332.002 173.221C332.865 173.82 333.44 174.209 333.606 174.369C333.948 174.626 334.191 174.994 334.294 175.41C334.397 175.825 334.354 176.264 334.172 176.652C330.631 186.122 317.851 203.094 308.529 208.683C306.703 209.776 305.773 209.736 304.729 209.213ZM214.097 142.791C216.486 145.21 219.337 147.119 222.479 148.402C225.621 149.686 228.989 150.318 232.38 150.261C235.608 150.122 238.774 149.32 241.679 147.902C244.584 146.485 247.167 144.483 249.267 142.022C252.951 137.964 255.308 132.872 256.022 127.428C256.103 126.663 256.133 126.666 256.551 126.677C258.643 126.822 260.723 127.114 262.776 127.551C263.212 127.641 263.212 127.641 263.158 128.093C262.5 135.497 259.303 142.439 254.113 147.737C248.922 153.034 242.059 156.358 234.693 157.143C227.327 157.928 219.915 156.124 213.72 152.039C207.525 147.955 202.931 141.842 200.722 134.744C200.722 134.744 200.696 134.683 200.764 134.64C200.832 134.597 201.493 134.335 202.258 134.015C203.716 133.391 205.206 132.844 206.722 132.376L206.892 132.305C207.232 132.163 207.281 132.143 207.415 132.43C207.51 132.58 207.594 132.736 207.667 132.897C209.023 136.648 211.223 140.034 214.097 142.791ZM254.584 126.712C254.071 131.451 252.229 135.944 249.273 139.672C243.863 146.574 236.102 149.749 228.005 148.383C223.712 147.627 219.695 145.743 216.363 142.921C213.031 140.1 210.504 136.443 209.039 132.323L208.993 132.214C208.876 131.933 208.78 131.702 208.866 131.565C208.934 131.506 209.019 131.471 209.109 131.464L209.206 131.423C222.758 126.964 237.041 125.159 251.279 126.105C252.036 126.175 252.635 126.21 253.1 126.231C254.606 126.288 254.606 126.288 254.584 126.712Z" fill="#FFA98E"/>
<path d="M223.819 346.51C223.567 345.645 222.198 342.021 221.777 341.038C221.136 339.286 220.509 337.534 219.882 335.782C218.009 329.999 216.192 324.214 214.469 318.37C210.413 304.653 207.05 290.605 203.869 276.62C202.399 270.144 192.646 234.422 191.706 232.029C190.793 229.651 189.328 227.527 187.432 225.833C184.857 223.851 182.117 222.093 179.243 220.581C177.835 219.772 172.638 216.784 171.783 216.426C172.706 214.397 174.376 211.662 175.202 209.636C177.305 205.079 179.163 200.412 180.77 195.656C181.644 192.315 182.226 188.903 182.51 185.46C181.954 179.606 180.934 173.807 179.459 168.116C176.945 158.599 172.242 150.796 166.098 143.239C159.954 135.682 152.018 130.158 142.336 128.731C133.208 127.38 123.879 130.944 115.956 135.221C100.202 143.645 85.9917 157.13 78.3561 173.54C78.1511 173.991 77.9461 174.442 77.7568 174.948C76.7195 178.423 77.2846 180.371 77.7273 183.156C78.3747 186.547 79.2434 189.892 80.3279 193.169C81.5286 197.104 82.7972 201.01 84.2154 204.855C84.6668 205.92 85.1177 206.971 85.5823 208.022C87.8058 213.182 90.2831 218.5 93.0308 223.656C90.8073 224.789 79.0213 230.673 75.49 232.685C72.8602 234.101 70.5433 236.037 68.6791 238.377C67.1792 240.469 66.6681 243.995 65.8011 246.424C59.8666 262.533 52.5635 278.101 43.9726 292.954C39.8422 300.132 35.2336 307.022 30.1781 313.577C27.605 316.941 25.1722 320.369 22.4412 323.558C21.2769 324.986 19.6686 326.347 18.3556 327.863C17.8562 328.773 17.544 329.774 17.4376 330.807C17.8761 335.048 20.9232 338.903 23.7615 341.921C25.7128 343.943 27.7748 345.855 29.9378 347.647C35.2774 351.157 41.8866 354.275 42.1028 354.142C45.2261 355.392 48.5048 356.207 51.8479 356.566C51.0297 359.992 50.365 363.467 49.8804 366.964C53.095 370.441 57.191 372.973 61.7295 374.289L62.9973 374.632C75.1624 377.981 88.0178 379.766 100.42 381.609C112.444 383.396 124.577 384.35 136.732 384.467C142.679 384.57 148.626 384.245 154.528 383.497C157.296 383.118 160.041 382.59 162.752 381.913C163.368 381.752 163.997 381.591 164.639 381.402C166.154 380.932 167.67 380.489 169.2 380.046C170.288 379.811 171.331 379.404 172.291 378.84C172.654 377.887 172.947 376.908 173.168 375.912C173.237 375.507 173.305 375.089 173.387 374.67C174.045 371.153 174.602 367.621 175.057 364.074C176.076 356.136 176.779 348.236 177.257 340.234C177.248 339.957 177.238 339.68 177.229 339.417C177.312 338.638 177.381 337.859 177.436 337.067C177.748 339.662 178.096 342.251 178.481 344.835C179.832 353.839 181.456 362.75 182.998 371.719L183.006 371.941C183.228 372.464 183.605 372.905 184.086 373.205C185.464 373.156 186.975 372.963 188.378 372.816C190.248 372.638 192.134 372.487 193.985 372.158C197.612 371.484 201.194 370.582 204.71 369.458C209.071 368.107 213.333 366.454 217.467 364.51C219.078 363.634 220.633 362.705 222.132 361.764C224.035 360.545 227.176 358.811 227.471 356.596C226.412 353.168 224.862 349.897 223.819 346.51Z" fill="#FFE3B0"/>
<path d="M184.408 370.824C184.063 367.268 183.182 363.731 182.782 360.19C182.24 355.35 181.272 350.524 180.568 345.759C180.385 344.46 180.216 343.175 180.033 341.876C179.113 336.466 178.371 331.022 177.89 325.554C177.648 325.716 176.396 300.614 176.046 292.614L175.542 279.816C174.675 268.058 174.069 256.263 172.68 244.552C172.664 260.965 173.544 277.416 174.106 293.85C174.375 301.519 175.875 326.223 176.244 332.431C176.201 333.557 174.52 353.155 173.694 360.224C173.3 363.529 172.782 366.839 172.292 370.133C172.043 372.841 171.613 375.528 171.004 378.177C168.562 378.512 166.15 379.035 163.787 379.741C162.494 379.788 161.174 379.835 159.849 379.771C154.291 379.407 148.779 378.526 143.382 377.14C131.539 374.454 120.068 370.546 108.396 367.215C97.2668 364.045 86.1445 361.069 74.5007 360.501C67.2303 360.15 58.1459 361.087 51.2376 364.778C51.9436 361.739 52.7616 358.752 53.6764 355.776C53.8337 355.548 53.9079 355.309 53.849 355.2C58.7053 338.947 65.6682 323.465 71.6095 307.519C76.3545 294.769 81.4026 282.022 84.6726 268.838C85.3803 265.064 86.2398 261.298 86.7535 257.489C87.1377 254.698 87.9043 251.032 87.4112 247.967C86.9519 252.149 86.3217 256.171 85.4301 260.202C84.3708 257.045 83.1358 253.951 81.7308 250.934C80.5926 248.323 79.4022 245.796 78.1843 243.271C77.1886 241.585 76.1394 239.943 75.0086 238.331C75.9695 242.559 78.2523 246.782 79.8288 250.891C81.4955 255.219 82.9835 259.554 84.5004 263.929C80.9157 279.526 74.8873 294.558 69.2705 309.547C65.6186 319.301 61.4495 328.837 57.8948 338.615C57.3279 340.121 56.7344 341.656 56.1414 343.204C55.029 346.827 53.638 350.362 52.637 354.022C51.7348 353.429 50.1075 352.974 49.3354 352.557C47.1007 351.31 44.9294 349.951 42.8297 348.486C38.3028 345.208 34.0035 341.623 29.9618 337.755C27.8707 335.858 25.992 333.731 23.9943 331.748C22.9242 330.689 21.3617 328.94 19.6742 329.125L19.344 329.137C20.5711 327.996 21.5492 326.434 22.6471 325.145C27.1939 320.094 30.9741 314.391 35.0533 308.968C39.4328 302.987 43.4091 296.717 46.9555 290.199C50.416 284.021 54.5619 277.748 57.2095 271.169C60.1104 263.956 63.4165 256.908 66.2619 249.683C67.4631 246.627 68.4398 243.454 69.5433 240.359C70.8714 236.604 74.1492 234.64 77.5395 232.741C80.9127 230.589 84.3919 228.611 87.9639 226.814C89.4826 226.134 90.9856 225.4 92.4596 224.625L93.514 224.06C95.8223 228.302 98.4086 232.384 101.256 236.28C98.1298 230.727 95.3612 224.978 92.967 219.067C91.0024 215.277 89.1311 211.4 87.4956 207.571C85.1277 202.102 82.9741 196.458 80.932 190.852C79.8646 187.894 79.0349 184.854 78.4509 181.762C78.1186 180.066 78.0161 178.332 78.1462 176.608C78.1374 176.358 78.2662 176.104 78.34 175.851C79.8331 170.91 83.0735 166.309 86.0132 162.163C91.8318 153.892 99.0719 146.739 107.391 141.04C116.151 135.172 126.746 129.391 137.59 129.558C147.898 129.731 156.215 135.167 163.056 142.532C169.748 149.704 174.679 158.359 177.453 167.801C179.225 174.111 180.374 180.581 180.885 187.118C180.118 195.477 176.42 203.136 173.123 210.835C172.511 212.246 171.845 213.658 171.244 214.999C169.811 218.897 167.945 222.629 166.131 226.291C164.962 228.693 163.54 230.952 162.427 233.366C162.081 234.101 161.733 234.78 161.36 235.543C165.223 229.643 168.647 223.464 171.606 217.055C173.174 218.193 175.081 219.166 176.517 220.045C179.009 221.58 181.392 223.175 183.818 224.796C188.795 228.103 190.639 233.147 192.564 238.549C194.675 244.569 195.756 251.029 197.35 257.22C198.969 264.105 200.666 270.876 202.201 277.736C205.363 291.703 208.695 305.802 212.879 319.482C214.791 325.676 216.948 331.834 218.953 337.941C219.447 339.451 219.994 340.917 220.582 342.368C220.891 343.315 221.213 344.261 221.535 345.194C222.726 348.512 224.378 352.035 225.394 355.484L225.312 355.487L225.318 355.681C224.067 355.726 222.753 356.356 221.589 356.564C219.345 356.964 217.155 357.751 214.929 358.289C210.248 359.447 205.631 360.855 201.098 362.506C196.743 363.981 192.523 365.832 188.484 368.04C186.993 368.753 185.618 369.692 184.408 370.824Z" fill="#FFA98E"/>
<path d="M159.001 179.236C155.725 175.313 151.986 171.802 147.868 168.778C140.092 163.039 131.135 159.108 121.648 157.27C112.934 155.507 104.699 158.319 97.1096 162.588C93.5898 164.482 90.3275 166.821 87.403 169.547C85.3033 171.544 82.0489 174.51 81.4481 177.477C80.6575 181.337 82.4575 184.19 83.8371 187.668C85.6711 192.277 87.6958 196.81 89.9394 201.279C90.191 201.754 90.4289 202.23 90.6642 202.636C91.3115 204.148 92.0412 205.644 92.8246 207.095C98.5251 217.527 106.249 226.544 113.5 235.868C119.463 232.889 125.195 229.254 130.913 225.992C139.22 221.176 146.837 215.255 153.555 208.391C158.56 203.316 164.176 195.978 164.61 188.633C164.786 185.376 160.834 181.466 159.001 179.236Z" fill="#FFE3B0"/>
<path d="M157.463 203.245C151.399 211.573 142.291 218.239 133.705 223.682C127.439 227.799 120.942 231.549 114.246 234.912C114.264 234.863 114.262 234.808 114.241 234.76C109.278 229.761 105.371 223.492 101.56 217.594C99.7127 214.753 97.7408 211.876 95.8901 208.925C92.0509 201.449 88.4798 193.771 85.4543 185.962C84.5632 183.696 83.2832 181.721 83.2058 179.121C83.1284 176.522 84.8306 174.454 86.4145 172.542C89.7256 168.493 94.4245 165.57 98.8622 163.044C103.228 160.58 107.979 158.884 112.912 158.028C118.289 157.185 124.315 159.142 129.38 160.788C138.833 163.979 146.951 169.502 154.288 176.284C157.845 179.588 160.847 183.449 163.178 187.717C164.476 190.218 162.638 194.297 161.593 196.66C160.445 198.992 159.061 201.199 157.463 203.245Z" fill="#FFE3B0"/>
<path d="M42.0077 352.137C41.2868 351.922 40.5918 351.65 39.7985 351.368C34.9836 349.082 30.5391 346.074 26.6161 342.444C23.8297 339.93 21.5201 336.924 19.8004 333.574C19.1516 332.631 18.713 331.558 18.515 330.427C19.8349 328.175 25.3185 334.959 26.3934 336.093C29.1984 338.974 32.1565 341.698 35.2546 344.254C38.3431 346.859 41.5856 349.272 44.9642 351.48C46.4962 352.484 48.0642 353.318 49.6736 354.137C50.0153 354.308 50.7378 354.565 51.3908 354.838C48.2176 354.108 45.0854 353.206 42.0077 352.137Z" fill="#FFA98E"/>
<path d="M143.204 382.677C132.126 382.67 121.057 382.022 110.054 380.735C99.064 379.558 88.0713 377.518 77.1908 375.516C71.7726 374.552 66.4152 373.273 61.1458 371.683C58.5716 370.976 56.0958 369.948 53.7762 368.624C52.8534 367.98 52.1079 367.112 51.6088 366.101C51.9905 365.921 52.3584 365.741 52.6862 365.604C55.4627 364.535 58.3356 363.738 61.2648 363.225C67.5167 362.143 73.8953 362.018 80.1836 362.853C91.456 364.174 102.523 367.532 113.381 370.883C124.24 374.235 135.389 377.589 146.67 379.925C150.474 380.723 154.332 381.235 158.213 381.458C153.249 382.259 148.231 382.666 143.204 382.677Z" fill="#FFA98E"/>
<path d="M224.296 359.064C222.252 361.154 218.416 362.631 216.415 363.573C212.875 365.357 209.186 366.829 205.39 367.973C201.58 369.035 197.754 370.014 193.88 370.802C190.93 371.369 187.951 371.766 184.956 371.992C185.722 371.299 186.547 370.673 187.422 370.122C189.473 368.954 191.589 367.905 193.76 366.981C197.249 365.475 200.803 364.229 204.4 363.022C207.996 361.816 211.992 360.927 215.787 359.852C217.808 359.244 219.859 358.737 221.932 358.334C222.633 358.212 225.427 356.993 225.485 357.861C225.197 358.356 224.788 358.77 224.296 359.064Z" fill="#FFA98E"/>
<path d="M107.274 234.507C106.766 234.537 106.279 234.724 105.878 235.041C105.478 235.359 105.185 235.791 105.037 236.281C104.697 237.316 105.037 239.082 106.21 239.53C105.749 246.661 101.715 254.032 99.264 260.464C97.5093 264.882 95.2204 271.952 96.8205 277.035C96.3652 277.082 95.9399 277.286 95.6162 277.611C95.2925 277.936 95.0902 278.364 95.0432 278.821C95.0009 279.999 95.8255 280.46 96.7805 280.663C96.6623 280.93 96.6257 281.226 96.6755 281.514C96.7253 281.801 96.8593 282.067 97.0602 282.278C97.3032 282.529 97.6103 282.707 97.9478 282.794C98.2853 282.881 98.6401 282.872 98.9732 282.77C99.5874 282.471 100.114 282.018 100.502 281.454C100.994 280.857 101.259 280.103 101.25 279.327C101.25 279.327 101.25 279.327 101.18 279.329C101.41 279.119 101.564 278.838 101.616 278.53C101.669 278.222 101.617 277.905 101.469 277.63C101.322 277.355 101.087 277.137 100.802 277.012C100.517 276.887 100.199 276.861 99.8977 276.939C99.0374 269.897 101.099 264.292 103.544 257.706C105.666 251.832 108.338 246.134 108.303 239.974C108.376 239.992 108.453 239.989 108.525 239.966C110.448 238.748 109.643 234.464 107.274 234.507Z" fill="#FFA98E"/>
<path d="M98.6703 280.927C98.38 280.87 98.1136 280.722 97.9083 280.502C97.7029 280.281 97.5688 280 97.5245 279.698C97.6633 279.706 97.8026 279.701 97.9405 279.683C98.3968 279.745 98.8604 279.707 99.3012 279.571C99.7419 279.435 100.15 279.204 100.498 278.893C100.237 279.842 99.7683 281.141 98.6703 280.927Z" fill="#FFE3B0"/>
<path d="M99.918 277.955C100.024 277.84 100.187 277.389 99.9024 277.51L99.7378 277.516C99.7857 277.437 99.8067 277.34 99.7969 277.244C99.7969 277.244 99.7913 277.085 99.7886 277.005C101.107 277.404 100.564 279.538 99.1317 279.812C98.6063 279.911 98.0715 279.93 97.5406 279.869C97.0546 279.813 96.582 279.646 96.1501 279.378C95.903 279.187 95.715 278.909 95.6142 278.586C95.2927 277.644 96.1132 277.153 96.7518 276.955C96.8192 277.202 96.9011 277.444 96.9968 277.678L96.5031 277.696C96.407 277.699 96.1422 277.979 96.2558 278.086C96.7774 278.591 97.4395 278.856 98.1154 278.832C98.7912 278.808 99.4331 278.495 99.918 277.955Z" fill="#FFE3B0"/>
<path d="M99.4651 277.91C99.2377 277.932 99.0092 277.94 98.7808 277.934L98.7769 277.823C96.0092 270.951 99.3903 262.758 102.106 256.359C104.534 250.696 108.316 243.352 107.308 236.989C107.324 236.864 107.32 236.737 107.295 236.613C107.483 236.708 107.644 236.846 107.766 237.015C108.039 237.445 108.261 237.905 108.428 238.385C108.504 238.571 108.554 238.766 108.576 238.965C108.076 252.367 96.4148 264.203 99.4651 277.91Z" fill="#FFE3B0"/>
<path d="M108.295 238.902C108.488 237.796 108.184 235.746 107.157 235.425C106.711 235.276 106.154 235.805 105.961 236.238C105.914 236.584 105.926 236.938 105.998 237.281C106.013 237.496 106.071 237.705 106.166 237.893C106.17 238.017 106.175 238.14 106.179 238.264C105.907 237.798 105.707 237.285 105.587 236.746C105.52 236.425 105.543 236.089 105.653 235.785C105.763 235.481 105.954 235.223 106.201 235.047C106.405 234.963 106.625 234.939 106.84 234.977C107.056 235.015 107.26 235.114 107.432 235.264C108.197 235.773 109.086 238.077 108.295 238.902Z" fill="#FFE3B0"/>
<path d="M129.254 234.507C128.745 234.543 128.259 234.729 127.859 235.043C127.46 235.356 127.166 235.782 127.017 236.263C126.676 237.264 127.03 239.009 128.187 239.435C127.652 246.43 123.699 253.658 121.162 259.956C119.419 264.289 117.113 271.225 118.709 276.208C118.277 276.268 117.878 276.467 117.571 276.773C117.265 277.08 117.069 277.476 117.013 277.903C116.956 279.058 117.78 279.523 118.734 279.709C118.616 279.97 118.579 280.26 118.629 280.542C118.678 280.824 118.812 281.085 119.013 281.292C119.258 281.537 119.567 281.712 119.907 281.796C120.246 281.881 120.603 281.873 120.938 281.772C121.553 281.48 122.08 281.035 122.467 280.481C122.958 279.901 123.22 279.164 123.202 278.409C123.209 278.396 123.212 278.382 123.212 278.367C123.211 278.353 123.207 278.339 123.199 278.326C123.432 278.12 123.587 277.842 123.64 277.537C123.693 277.233 123.641 276.92 123.491 276.65C123.341 276.379 123.104 276.166 122.816 276.045C122.528 275.924 122.207 275.902 121.905 275.983C121.064 269.078 123.127 263.58 125.562 257.12C127.691 251.496 130.284 246.006 130.323 239.962C130.361 239.977 130.401 239.984 130.442 239.983C130.483 239.981 130.523 239.971 130.559 239.954C132.438 238.705 131.636 234.518 129.254 234.507Z" fill="#FFA98E"/>
<path d="M120.678 280.928C120.388 280.869 120.122 280.716 119.915 280.49C119.709 280.264 119.572 279.976 119.523 279.665L119.94 279.715C120.397 279.776 120.861 279.735 121.301 279.593C121.742 279.452 122.15 279.213 122.498 278.893C122.225 279.816 121.808 281.136 120.678 280.928Z" fill="#FFE3B0"/>
<path d="M121.88 277.996C121.985 277.883 122.133 277.442 121.865 277.576L121.716 277.581C121.752 277.498 121.772 277.407 121.774 277.314C121.774 277.314 121.769 277.159 121.766 277.081C123.144 277.468 122.535 279.562 121.113 279.847C120.587 279.92 120.054 279.908 119.53 279.81C119.045 279.764 118.574 279.601 118.149 279.329C117.891 279.159 117.7 278.881 117.617 278.554C117.284 277.631 118.113 277.149 118.734 276.956C118.743 277.205 118.887 277.433 118.977 277.664L118.487 277.681C118.391 277.685 118.142 277.959 118.241 278.08C118.754 278.58 119.409 278.848 120.081 278.833C120.752 278.818 121.393 278.52 121.88 277.996Z" fill="#FFE3B0"/>
<path d="M121.458 277.91C121.231 277.932 121.002 277.94 120.773 277.934C120.787 277.898 120.785 277.858 120.77 277.823C118.014 270.949 121.398 262.752 124.116 256.351C126.531 250.686 130.316 243.341 129.321 236.975C129.324 236.854 129.319 236.733 129.308 236.613C129.494 236.606 129.66 236.879 129.765 237.015C130.049 237.442 130.276 237.902 130.442 238.385C130.515 238.567 130.56 238.758 130.576 238.952C130.074 252.345 118.42 264.184 121.458 277.91Z" fill="#FFE3B0"/>
<path d="M130.317 238.902C130.514 237.797 130.207 235.763 129.165 235.43C128.907 235.394 128.646 235.456 128.426 235.606C128.205 235.756 128.038 235.985 127.952 236.255C127.896 236.596 127.909 236.947 127.988 237.283C128.014 237.498 128.076 237.705 128.171 237.894L128.184 238.264C127.917 237.795 127.715 237.284 127.585 236.749C127.521 236.428 127.546 236.095 127.657 235.792C127.768 235.489 127.961 235.231 128.208 235.052C128.415 234.963 128.64 234.938 128.86 234.978C129.08 235.018 129.286 235.123 129.457 235.282C130.219 235.776 131.058 238.093 130.317 238.902Z" fill="#FFE3B0"/>
<path d="M260.697 79.3794C260.697 79.3193 260.787 79.2702 260.827 79.2206C260.787 64.8995 262.191 54.1991 259.458 46.3283C258.593 43.7203 257.154 41.3455 255.25 39.3828C251.132 35.1121 244.23 31.9731 232.788 29.6462C222.757 27.6149 210.125 25.4755 201.662 31.1623C200.195 32.1593 198.873 33.3584 197.734 34.725C192.3 41.1557 189.86 51.5744 184.726 64.8882C184.715 64.9578 184.715 65.0287 184.724 65.0985C176.026 67.8085 170.217 72.3924 169.101 78.4591C168.69 80.7982 168.942 83.207 169.826 85.407C173.999 96.468 192.242 107.471 215.437 111.838C243.449 117.148 268.128 110.735 270.559 97.5822C271.675 91.5155 267.857 85.085 260.697 79.3794Z" fill="#FFCECE"/>
<path d="M186.847 78.2888C189.729 80.9865 192.932 83.3066 196.381 85.1951C203.296 88.9799 210.855 91.1441 218.37 92.8227C225.984 94.6799 233.875 95.0672 241.632 93.9645C245.519 93.3357 249.322 92.2542 252.966 90.7415C256.558 89.2157 259.972 87.2898 263.146 84.9992C263.246 84.8961 263.307 84.7612 263.32 84.6174C263.333 84.4735 263.297 84.3295 263.218 84.2098C263.139 84.09 263.021 84.0018 262.885 83.9602C262.749 83.9185 262.603 83.9258 262.472 83.981C259.24 85.9604 255.827 87.6161 252.281 88.9247C248.739 90.244 245.062 91.1502 241.319 91.6261C233.832 92.4722 226.257 91.9865 218.935 90.1906C211.52 88.5535 204.178 86.4725 197.468 83.0538C190.69 79.7077 184.896 74.6078 180.667 68.2651C180.568 68.1352 180.425 68.0471 180.266 68.0178C180.107 67.9884 179.943 68.0199 179.805 68.1061C179.667 68.1924 179.566 68.3273 179.52 68.485C179.474 68.6427 179.487 68.8121 179.556 68.9606C181.516 72.4222 183.974 75.5663 186.847 78.2888Z" fill="#FFA98E"/>
<path d="M206.178 39.9597C208.016 41.7015 210.075 43.1932 212.302 44.3965C216.745 46.6828 221.489 48.3295 226.392 49.288C231.313 50.4599 236.411 50.6808 241.414 49.9387C243.903 49.529 246.334 48.82 248.654 47.827C250.946 46.8328 253.121 45.5841 255.136 44.1043C255.258 44.0125 255.343 43.879 255.374 43.7289C255.405 43.5788 255.38 43.4226 255.304 43.2898C255.221 43.1491 255.085 43.0472 254.927 43.0063C254.769 42.9654 254.602 42.9888 254.461 43.0716C250.346 45.4987 245.78 47.0584 241.042 47.6549C236.327 48.1496 231.563 47.8286 226.957 46.7057C222.272 45.8031 217.715 44.3294 213.388 42.3176C209.115 40.2763 205.439 37.1681 202.713 33.2918C202.618 33.1561 202.476 33.0606 202.315 33.0239C202.153 32.9871 201.984 33.0119 201.84 33.0932C201.764 33.134 201.696 33.1895 201.641 33.2565C201.586 33.3236 201.545 33.4008 201.52 33.4838C201.496 33.5669 201.487 33.654 201.496 33.7402C201.505 33.8265 201.531 33.9101 201.572 33.9863C202.795 36.2004 204.348 38.2147 206.178 39.9597Z" fill="#FFA98E"/>
<path d="M268.195 95.7665C268.154 95.6962 268.099 95.6352 268.034 95.5869C267.969 95.5387 267.896 95.5041 267.817 95.4854C267.739 95.4666 267.658 95.464 267.579 95.4776C267.5 95.4913 267.425 95.521 267.357 95.5649C259.923 100.317 251.594 103.406 242.915 104.63C234.231 105.636 225.443 105.078 216.949 102.981C208.354 101.064 199.855 98.6421 192.075 94.6069C184.224 90.6809 177.526 84.6984 172.661 77.2656C172.563 77.1354 172.421 77.0471 172.262 77.0178C172.104 76.9884 171.941 77.0199 171.803 77.1064C171.666 77.1928 171.565 77.328 171.52 77.4861C171.474 77.6442 171.487 77.8139 171.556 77.9627C173.824 81.9722 176.665 85.612 179.983 88.7621C183.324 91.8853 187.036 94.5635 191.033 96.7331C199.007 101.115 207.772 103.631 216.425 105.579C220.813 106.585 225.27 107.243 229.757 107.547C234.268 107.834 238.796 107.629 243.265 106.934C247.725 106.214 252.089 104.973 256.273 103.235C260.425 101.475 264.376 99.2557 268.057 96.616C268.18 96.5175 268.262 96.3757 268.287 96.2185C268.313 96.0613 268.28 95.9001 268.195 95.7665Z" fill="#FFA98E"/>
<path d="M182.708 83.6442C185.904 86.4293 189.418 88.8179 193.175 90.7593C200.663 94.6413 208.782 96.9298 216.867 98.6779C225.038 100.637 233.486 101.131 241.826 100.139C245.991 99.5681 250.08 98.5288 254.017 97.0402C257.926 95.5369 261.66 93.6016 265.15 91.2696C265.241 91.1685 265.296 91.0398 265.307 90.9037C265.318 90.7675 265.285 90.6314 265.212 90.5165C265.138 90.4017 265.03 90.3145 264.903 90.2686C264.776 90.2226 264.637 90.2205 264.509 90.2624C260.975 92.3095 257.248 93.9947 253.384 95.293C249.549 96.6057 245.581 97.4819 241.554 97.9053C233.468 98.6506 225.317 98.0623 217.419 96.1633C209.422 94.4162 201.51 92.24 194.206 88.71C186.826 85.2768 180.449 79.9703 175.695 73.3059C175.6 73.159 175.451 73.0564 175.281 73.0208C175.111 72.9852 174.933 73.0194 174.788 73.116C174.643 73.2126 174.542 73.3636 174.506 73.5358C174.471 73.708 174.505 73.8873 174.6 74.0342C176.824 77.6217 179.555 80.8595 182.708 83.6442Z" fill="#FFA98E"/>
<path d="M260.88 78.6052C260.864 74.7144 260.962 71.164 261.049 67.7233C261.287 58.6777 261.484 51.537 259.467 45.6993C258.587 43.0117 257.117 40.5607 255.166 38.5299C250.796 34.0534 243.571 30.9026 232.38 28.6568C221.554 26.4547 209.303 24.5865 200.855 30.3111C199.339 31.3373 197.974 32.5753 196.8 33.9883C192.802 38.7235 190.44 45.4317 187.456 53.9389C186.316 57.0889 185.145 60.4481 183.744 64.0443C174.735 66.9397 169.217 71.7782 168.105 77.8415C167.68 80.2638 167.932 82.7578 168.834 85.0421C173.186 96.5415 192.093 107.56 214.802 111.836C220.833 112.992 226.952 113.615 233.09 113.699C239.499 113.836 245.899 113.134 252.131 111.611C262.776 108.863 269.313 103.706 270.53 97.0952C271.682 91.0224 268.213 84.5204 260.88 78.6052ZM188.714 54.3216C191.647 45.9436 193.969 39.3347 197.807 34.7972C198.897 33.4767 200.169 32.3213 201.584 31.3664C205.559 28.666 210.6 27.7828 215.926 27.8404C221.375 28.0605 226.792 28.7869 232.109 30.0106C243.034 32.1738 250.044 35.2024 254.169 39.4768C255.998 41.3613 257.379 43.6412 258.209 46.1445C260.12 51.7517 259.954 58.783 259.718 67.6889C259.624 70.8304 259.549 74.0617 259.54 77.5632C259.537 77.8525 259.533 78.1517 259.53 78.451C259.393 78.621 259.243 78.7795 259.081 78.9249C258.721 79.278 258.338 79.607 257.936 79.9102C253.767 83.1571 247.797 85.1676 239.668 86.0773C228.465 87.3839 217.119 85.792 206.694 81.4511C198.593 78.0714 192.667 74.2265 188.574 69.693L188.389 69.5015C186.108 67.0626 185.313 65.7572 185.064 65.0562C185.011 64.9147 184.976 64.7668 184.961 64.6161L185.357 63.5729C186.596 60.3242 187.675 57.2832 188.714 54.3216ZM269.25 96.8918C268.128 102.955 261.949 107.786 251.83 110.351C241.542 113.003 228.49 113.091 215.073 110.552C192.797 106.32 174.31 95.6857 170.112 84.597C169.277 82.5364 169.035 80.2791 169.414 78.0851C170.46 72.6595 175.441 68.2641 183.777 65.5211C184.179 66.6328 185.345 68.2016 187.412 70.4586L187.587 70.65C191.817 75.3246 197.899 79.281 206.196 82.7326C214.114 86.0271 222.583 87.7544 231.146 87.8207C234.047 87.8485 236.947 87.7034 239.831 87.3859C248.206 86.4789 254.405 84.3512 258.763 80.9566C259.256 80.5953 259.722 80.1969 260.157 79.7646C266.189 84.708 269.493 90.0809 269.438 95.0383C269.427 95.6604 269.364 96.2804 269.25 96.8918Z" fill="#FFA98E"/>
</svg>
