<svg width="134" height="108" viewBox="0 0 134 108" fill="none" xmlns="http://www.w3.org/2000/svg">
<g id="Group 3060">
<g id="Group 28">
<g id="Group 6">
<path id="Vector 2" d="M68.329 6.11162C69.2849 33.0361 63.9476 78.0422 61.1595 97.1796C71.1171 94.0121 117.718 105.89 124.091 102.327C130.464 98.7634 136.837 -1.80734 130.862 0.172401C117.32 5.71567 72.7103 -3.78708 68.329 6.11162Z" fill="#8ED6FF"/>
<path id="Vector 3" d="M75.2256 14.2091C83.5528 12.8303 104.881 10.4863 123.577 12.1409" stroke="#FFE3B0" stroke-width="2" stroke-linecap="round"/>
<path id="Vector 4" d="M75.2256 20.3634C83.5528 18.9846 104.881 16.6406 123.577 18.2952" stroke="#FFE3B0" stroke-width="2" stroke-linecap="round"/>
<path id="Vector 5" d="M75.2256 27.3962C83.5528 26.0173 104.881 23.6733 123.577 25.3279" stroke="#FFE3B0" stroke-width="2" stroke-linecap="round"/>
<path id="Vector 6" d="M73.0204 73.9518C81.4638 73.9867 102.889 75.2466 121.041 80.0068" stroke="#FFE3B0" stroke-width="2" stroke-linecap="round"/>
<path id="Vector 7" d="M73.0204 80.9845C81.4638 81.0194 102.889 82.2794 121.041 87.0395" stroke="#FFE3B0" stroke-width="2" stroke-linecap="round"/>
<path id="Vector 8" d="M72.1413 87.1388C80.5848 87.1737 102.01 88.4336 120.161 93.1938" stroke="#FFE3B0" stroke-width="2" stroke-linecap="round"/>
<path id="Vector 9" d="M75.2659 62.6184C76.5422 59.8028 76.8612 42.4138 76.8612 34.0712C76.8632 32.898 119.536 34.0712 121.929 34.0712C124.322 34.0712 123.923 73.568 121.929 69.2664C119.935 64.9648 73.6706 66.138 75.2659 62.6184Z" fill="#FFE3B0"/>
<g id="Group 3036">
<path id="Vector" d="M108.808 59.9987L89.3616 59.3882L89.2918 61.6096L108.738 62.2201L108.808 59.9987Z" fill="#8ED6FF"/>
<path id="Vector_2" d="M99.8321 37.3739L99.7367 37.3709C99.3274 37.3581 98.9852 37.6795 98.9723 38.0888L98.2484 61.1495C98.2356 61.5588 98.557 61.901 98.9663 61.9139L99.0616 61.9169C99.471 61.9297 99.8132 61.6083 99.826 61.199L100.55 38.1383C100.563 37.729 100.241 37.3868 99.8321 37.3739Z" fill="#8ED6FF"/>
<path id="Vector_3" d="M106.14 56.1761L92.2666 55.7406C91.2899 55.7099 90.4733 56.4768 90.4427 57.4535L90.4364 57.6522C90.4058 58.6288 91.1726 59.4454 92.1493 59.4761L106.022 59.9116C106.999 59.9422 107.816 59.1754 107.846 58.1987L107.852 58C107.883 57.0233 107.116 56.2067 106.14 56.1761Z" fill="#FFA98E"/>
<path id="Vector_4" d="M104.759 52.3917L93.88 52.0501C92.9033 52.0195 92.0867 52.7864 92.0561 53.763L92.0498 53.9617C92.0192 54.9384 92.786 55.755 93.7627 55.7856L104.641 56.1271C105.618 56.1578 106.435 55.3909 106.465 54.4143L106.471 54.2156C106.502 53.2389 105.735 52.4223 104.759 52.3917Z" fill="#8ED6FF"/>
<path id="Vector_5" d="M103.783 48.6218L95.0921 48.349C94.1155 48.3183 93.2989 49.0852 93.2682 50.0619L93.262 50.2606C93.2313 51.2372 93.9982 52.0538 94.9749 52.0845L103.666 52.3573C104.642 52.388 105.459 51.6211 105.49 50.6444L105.496 50.4457C105.527 49.4691 104.76 48.6525 103.783 48.6218Z" fill="#FFA98E"/>
<path id="Vector_6" d="M102.943 44.8561L96.1671 44.6434C95.1904 44.6127 94.3738 45.3796 94.3432 46.3563L94.3369 46.555C94.3063 47.5316 95.0732 48.3482 96.0498 48.3789L102.825 48.5916C103.802 48.6223 104.619 47.8554 104.649 46.8787L104.656 46.68C104.686 45.7034 103.919 44.8868 102.943 44.8561Z" fill="#8ED6FF"/>
<path id="Vector_7" d="M101.874 41.0809L97.4705 40.9427C96.4939 40.9121 95.6773 41.6789 95.6466 42.6556L95.6404 42.8543C95.6097 43.831 96.3766 44.6476 97.3533 44.6782L101.756 44.8164C102.733 44.8471 103.55 44.0802 103.58 43.1036L103.587 42.9049C103.617 41.9282 102.85 41.1116 101.874 41.0809Z" fill="#FFA98E"/>
</g>
</g>
</g>
<g id="Group 3364">
<g id="Group 5">
<path id="Vector 10" d="M5.99374 42.7301C10.1213 60.4463 12.4567 90.9582 13.1084 104C19.25 100.611 51.4623 102.447 55.1933 99.261C58.9243 96.0746 50.0506 28.6118 46.3759 30.6972C38.1839 36.1238 7.59094 35.604 5.99374 42.7301Z" fill="#8ED6FF"/>
<path id="Vector 11" d="M11.3879 46.7039C16.7076 44.7203 30.4852 40.4167 43.0382 39.071" stroke="#FFE3B0" stroke-width="2" stroke-linecap="round"/>
<path id="Vector 12" d="M12.2671 51.0999C17.5867 49.1163 31.3644 44.8127 43.9174 43.467" stroke="#FFE3B0" stroke-width="2" stroke-linecap="round"/>
<path id="Vector 13" d="M13.1461 55.4954C18.4658 53.5118 32.2434 49.2082 44.7964 47.8625" stroke="#FFE3B0" stroke-width="2" stroke-linecap="round"/>
<path id="Vector 14" d="M18.1259 86.2973C23.7035 85.2395 38.0088 83.3218 50.6095 84.1129" stroke="#FFE3B0" stroke-width="2" stroke-linecap="round"/>
<path id="Vector 15" d="M19.0051 90.6923C24.5826 89.6345 38.8879 87.7168 51.4886 88.5079" stroke="#FFE3B0" stroke-width="2" stroke-linecap="round"/>
<path id="Vector 16" d="M19.0051 95.9677C24.5826 94.9099 38.8879 92.9922 51.4886 93.7833" stroke="#FFE3B0" stroke-width="2" stroke-linecap="round"/>
<path id="Vector 17" d="M18.4128 79.3993C18.8852 77.3466 16.8106 65.6517 15.7142 60.0608C15.5613 59.2744 43.8825 54.5183 45.462 54.2075C47.0416 53.8967 51.969 80.4178 50.0874 77.794C48.2058 75.1702 17.8224 81.9651 18.4128 79.3993Z" fill="#FFE3B0"/>
</g>
<g id="Group 3029">
<g id="Group">
<g id="&#208;&#160;&#194;&#160;&#208;&#160;&#194;&#181;&#208;&#160;&#194;&#182;&#208;&#160;&#209;&#145;&#208;&#160;&#209;&#152; &#208;&#160;&#209;&#145;&#208;&#160;&#194;&#183;&#208;&#160;&#209;&#149;&#208;&#160;&#194;&#187;&#208;&#161;&#208;&#143;&#208;&#161;&#226;&#128;&#160;&#208;&#160;&#209;&#145;&#208;&#160;&#209;&#145;">
<path id="Vector_8" d="M27.4345 62.2406C28.8011 60.8746 30.6203 60.0558 32.549 59.9384C34.4777 59.8211 36.3827 60.4135 37.9048 61.6038C38.1569 61.8014 38.3969 62.0141 38.6234 62.2406C39.5093 63.127 40.172 64.2112 40.557 65.4038C40.942 66.5964 41.0383 67.8634 40.8379 69.1005C40.6375 70.3376 40.1463 71.5094 39.4045 72.5195C38.6627 73.5297 37.6917 74.3492 36.5713 74.9107C34.891 75.7525 32.9658 75.9687 31.1406 75.5205C29.3154 75.0723 27.7094 73.989 26.6101 72.4646C25.5108 70.9402 24.99 69.0743 25.1411 67.2009C25.2921 65.3276 26.1051 63.5692 27.4345 62.2406Z" fill="#FFE3B0"/>
<path id="Vector_9" d="M25.3446 65.9554C27.1905 64.5011 30.8847 63.713 33.4871 65.6077C33.8672 65.8855 34.211 66.2097 34.5107 66.5728C34.109 66.7125 33.7297 66.9098 33.3846 67.1584C31.9157 68.1698 29.7928 70.5367 29.9502 75.124C28.2189 74.3914 26.8049 73.0666 25.9611 71.3868C25.1172 69.7069 24.8987 67.7817 25.3446 65.9554Z" fill="#8ED6FF"/>
<path id="Vector_10" d="M34.54 66.6095C34.9882 66.4412 35.4591 66.3413 35.937 66.313C37.7227 66.215 39.4881 66.7317 40.9391 67.7771C40.95 69.2554 40.5466 70.7072 39.7746 71.968C39.0027 73.2288 37.893 74.2482 36.5714 74.9106C37.5474 72.4144 37.1021 69.8682 35.4929 67.7124C35.2024 67.3222 34.8839 66.9536 34.54 66.6095Z" fill="#FFA98E"/>
<path id="Vector_11" d="M32.1755 59.9713C34.227 59.7453 36.2854 60.3317 37.9097 61.605C37.6657 63.1032 36.9996 64.6062 35.6709 65.7592C35.3207 66.0626 34.941 66.3303 34.5375 66.5583C34.6498 66.3521 34.7157 65.8348 34.6839 65.1638C34.6034 63.6022 33.9885 61.206 32.1755 59.9713Z" fill="#CDC1FF"/>
<path id="Vector_12" d="M35.8284 67.3535C35.2184 67.7769 34.357 67.5841 33.8946 66.9228C33.4322 66.2616 33.5518 65.3819 34.1581 64.9586C34.7645 64.5352 35.6295 64.7292 36.0968 65.3905C36.5641 66.0517 36.4347 66.9314 35.8284 67.3535Z" fill="#FFCECE"/>
</g>
</g>
</g>
</g>
</g>
</svg>
