<svg width="60" height="60" viewBox="0 0 60 60" fill="none" xmlns="http://www.w3.org/2000/svg">
<g id="Group 45">
<circle id="Ellipse 11" cx="30" cy="30.0001" r="30.0001" fill="#CDC1FF"/>
<g id="Vector">
<path d="M38.5828 11L21.3222 11.0429C19.7596 11.0468 18.4961 12.2955 18.5 13.8321L18.5807 45.2249C18.5846 46.7614 19.8546 48.0039 21.4172 48L38.6778 47.9571C40.2404 47.9532 41.5039 46.7045 41.5 45.1679L41.4193 13.7751C41.4154 12.2386 40.1454 10.9961 38.5828 11Z" fill="#FFE3B0"/>
<path d="M37.442 12.7243L22.3991 12.7442C21.4187 12.7455 20.6249 13.5281 20.6263 14.4922L20.6472 29.768C20.6485 30.7321 21.4444 31.5126 22.4248 31.5113L37.4677 31.4913C38.4481 31.49 39.2418 30.7074 39.2405 29.7434L39.2196 14.4675C39.2183 13.5035 38.4224 12.723 37.442 12.7243Z" fill="#FFA98E"/>
<path d="M23.978 39.4124C23.9391 39.7103 23.7912 39.9842 23.562 40.1827C23.3327 40.3813 23.0378 40.491 22.7323 40.4915C22.4268 40.4919 22.1316 40.383 21.9018 40.185C21.672 39.9871 21.5233 39.7137 21.4835 39.4158C21.5224 39.1179 21.6704 38.844 21.8996 38.6455C22.1288 38.4469 22.4237 38.3372 22.7292 38.3367C23.0347 38.3363 23.3299 38.4452 23.5598 38.6432C23.7896 38.8411 23.9382 39.1145 23.978 39.4124Z" fill="#FFA98E"/>
<path d="M29.45 39.4058C29.411 39.7038 29.2631 39.9776 29.0339 40.1762C28.8047 40.3747 28.5098 40.4845 28.2043 40.4849C27.8988 40.4853 27.6035 40.3764 27.3737 40.1785C27.1439 39.9805 26.9952 39.7071 26.9554 39.4093C26.9944 39.1113 27.1423 38.8375 27.3715 38.6389C27.6008 38.4403 27.8957 38.3306 28.2012 38.3302C28.5067 38.3298 28.8019 38.4387 29.0317 38.6366C29.2615 38.8346 29.4102 39.108 29.45 39.4058Z" fill="#FFA98E"/>
<path d="M26.7156 41.6584C26.7498 41.9077 26.7059 42.1613 26.5897 42.3854C26.4735 42.6096 26.2906 42.7935 26.0654 42.9128C25.8401 43.032 25.5832 43.0809 25.329 43.0529C25.0747 43.0248 24.8352 42.9212 24.6424 42.7559C24.4496 42.5906 24.3126 42.3713 24.2498 42.1275C24.187 41.8836 24.2013 41.6267 24.2909 41.391C24.3804 41.1554 24.5409 40.9522 24.7509 40.8085C24.9609 40.6649 25.2105 40.5876 25.4663 40.587C25.7712 40.5864 26.066 40.6947 26.2958 40.8917C26.5256 41.0888 26.6748 41.3612 26.7156 41.6584Z" fill="#FFA98E"/>
<path d="M26.7091 37.1612C26.6701 37.4591 26.5222 37.7329 26.293 37.9315C26.0637 38.1301 25.7688 38.2398 25.4633 38.2403C25.1578 38.2407 24.8626 38.1317 24.6328 37.9338C24.403 37.7359 24.2543 37.4625 24.2145 37.1646C24.2535 36.8667 24.4014 36.5928 24.6306 36.3943C24.8598 36.1957 25.1548 36.0859 25.4603 36.0855C25.7658 36.0851 26.061 36.194 26.2908 36.392C26.5206 36.5899 26.6693 36.8633 26.7091 37.1612Z" fill="#FFA98E"/>
<path d="M38.1351 36.9774C38.1334 37.4663 37.9844 37.9438 37.7069 38.3495C37.4295 38.7552 37.0359 39.0709 36.576 39.2568C36.1161 39.4427 35.6106 39.4904 35.1231 39.3939C34.6357 39.2974 34.1882 39.061 33.8373 38.7146C33.4864 38.3682 33.2478 37.9273 33.1516 37.4477C33.0554 36.968 33.1059 36.471 33.2968 36.0195C33.4876 35.5681 33.8103 35.1824 34.224 34.9111C34.6377 34.6398 35.1238 34.4952 35.621 34.4955C35.952 34.4957 36.2796 34.5601 36.5852 34.685C36.8908 34.8099 37.1683 34.9929 37.4018 35.2234C37.6354 35.454 37.8204 35.7276 37.9462 36.0286C38.072 36.3295 38.1362 36.652 38.1351 36.9774Z" fill="#FFA98E"/>
<path d="M37.4646 43.2657C37.4651 43.671 37.3433 44.0674 37.1147 44.4047C36.8861 44.742 36.5609 45.005 36.1802 45.1606C35.7996 45.3161 35.3806 45.3572 34.9762 45.2786C34.5718 45.2 34.2002 45.0053 33.9083 44.719C33.6165 44.4327 33.4175 44.0678 33.3366 43.6703C33.2557 43.2729 33.2964 42.8608 33.4537 42.4861C33.611 42.1114 33.8777 41.791 34.2202 41.5654C34.5626 41.3397 34.9654 41.219 35.3776 41.2185C35.6514 41.2182 35.9225 41.2708 36.1755 41.3735C36.4286 41.4762 36.6586 41.6269 36.8524 41.817C37.0462 42.0071 37.2 42.2329 37.305 42.4815C37.4101 42.73 37.4643 42.9965 37.4646 43.2657Z" fill="#FFA98E"/>
</g>
</g>
</svg>
