<svg width="23" height="35" viewBox="0 0 23 35" fill="none" xmlns="http://www.w3.org/2000/svg">
<g id="&#208;&#160;&#194;&#160;&#208;&#160;&#194;&#181;&#208;&#160;&#194;&#182;&#208;&#160;&#209;&#145;&#208;&#160;&#209;&#152;_&#208;&#160;&#209;&#145;&#208;&#160;&#194;&#183;&#208;&#160;&#209;&#149;&#208;&#160;&#194;&#187;&#208;&#161;&#208;&#143;&#208;&#161;&#226;&#128;&#160;&#208;&#160;&#209;&#145;&#208;&#160;&#209;&#145;" clip-path="url(#clip0_1082_5312)">
<path id="Vector" d="M1.97693 17.9707C2.58445 19.054 3.36012 20.0272 4.27301 20.8513C2.79485 8.62437 15.002 6.00049 15.002 6.00049C13.748 7.09123 12.9449 11.0042 15.7189 13.7297C19.0645 17.0198 17.6479 20.3403 17.0714 22.0946C18.7117 21.0945 20.0738 19.6739 21.0255 17.9707C21.9913 19.6964 22.4998 21.6541 22.5 23.647C22.5002 25.6399 21.9921 27.5977 21.0267 29.3237C20.0613 31.0496 18.6726 32.4829 17.0003 33.4794C15.328 34.4759 13.431 35.0005 11.5 35.0005C9.56897 35.0005 7.67197 34.4759 5.99968 33.4794C4.32739 32.4829 2.93875 31.0496 1.97335 29.3237C1.00795 27.5977 0.499804 25.6399 0.5 23.647C0.500196 21.6541 1.00873 19.6964 1.97447 17.9707H1.97693Z" fill="#FFA98E"/>
<path id="Vector_2" d="M11.1116 17.0005C11.1116 17.0005 17.5173 20.8877 12.7137 30.0005C12.7137 30.0005 8.89491 29.5442 8.51203 25.2619C8.25258 22.4426 12.288 21.6142 11.1116 17.0005Z" fill="#FFE3B0"/>
<path id="Vector_3" d="M17.87 0.000488281C17.87 0.000488281 21.9053 2.7669 19.979 5.9416C18.0528 9.1163 17.4013 9.86745 17.87 12.0005C17.87 12.0005 15.8055 10.4485 16.7452 7.06963C17.6849 3.69078 18.6948 1.84564 17.87 0.000488281Z" fill="#FFA98E"/>
</g>
<defs>
<clipPath id="clip0_1082_5312">
<rect width="22" height="35" fill="white" transform="matrix(-1 0 0 1 22.5 0.000488281)"/>
</clipPath>
</defs>
</svg>
