<svg width="23" height="35" viewBox="0 0 23 35" fill="none" xmlns="http://www.w3.org/2000/svg">
<g id="&#208;&#160;&#194;&#160;&#208;&#160;&#194;&#181;&#208;&#160;&#194;&#182;&#208;&#160;&#209;&#145;&#208;&#160;&#209;&#152;_&#208;&#160;&#209;&#145;&#208;&#160;&#194;&#183;&#208;&#160;&#209;&#149;&#208;&#160;&#194;&#187;&#208;&#161;&#208;&#143;&#208;&#161;&#226;&#128;&#160;&#208;&#160;&#209;&#145;&#208;&#160;&#209;&#145;" clip-path="url(#clip0_1082_5316)">
<path id="Vector" d="M21.0231 17.9707C20.4155 19.054 19.6399 20.0272 18.727 20.8513C20.2052 8.62437 7.99798 6.00049 7.99798 6.00049C9.25196 7.09123 10.0551 11.0042 7.28108 13.7297C3.9355 17.0198 5.35207 20.3403 5.92856 22.0946C4.28827 21.0945 2.92621 19.6739 1.97447 17.9707C1.00873 19.6964 0.500197 21.6541 0.5 23.647C0.499803 25.6399 1.00795 27.5977 1.97335 29.3237C2.93875 31.0496 4.32739 32.4829 5.99968 33.4794C7.67196 34.4759 9.56897 35.0005 11.5 35.0005C13.431 35.0005 15.328 34.4759 17.0003 33.4794C18.6726 32.4829 20.0613 31.0496 21.0267 29.3237C21.9921 27.5977 22.5002 25.6399 22.5 23.647C22.4998 21.6541 21.9913 19.6964 21.0255 17.9707H21.0231Z" fill="#FFA98E"/>
<path id="Vector_2" d="M11.8884 17.0005C11.8884 17.0005 5.48267 20.8877 10.2863 30.0005C10.2863 30.0005 14.1051 29.5442 14.488 25.2619C14.7474 22.4426 10.712 21.6142 11.8884 17.0005Z" fill="#FFE3B0"/>
<path id="Vector_3" d="M5.13002 0.000488281C5.13002 0.000488281 1.09473 2.7669 3.02098 5.9416C4.94723 9.1163 5.59869 9.86745 5.13002 12.0005C5.13002 12.0005 7.19452 10.4485 6.25483 7.06963C5.31514 3.69078 4.30515 1.84564 5.13002 0.000488281Z" fill="#FFA98E"/>
</g>
<defs>
<clipPath id="clip0_1082_5316">
<rect width="22" height="35" fill="white" transform="translate(0.5 0.000488281)"/>
</clipPath>
</defs>
</svg>
