<svg width="26" height="35" viewBox="0 0 26 35" fill="none" xmlns="http://www.w3.org/2000/svg">
<g id="Group 3044">
<path id="Vector" d="M23.8959 8.00049H2.10412C1.21819 8.00049 0.5 8.70569 0.5 9.57561V33.4254C0.5 34.2953 1.21819 35.0005 2.10412 35.0005H23.8959C24.7818 35.0005 25.5 34.2953 25.5 33.4254V9.57561C25.5 8.70569 24.7818 8.00049 23.8959 8.00049Z" fill="#FFE3B0"/>
<path id="Vector_2" d="M23.8959 5.00049H2.10412C1.21819 5.00049 0.5 5.70569 0.5 6.57561V30.4254C0.5 31.2953 1.21819 32.0005 2.10412 32.0005H23.8959C24.7818 32.0005 25.5 31.2953 25.5 30.4254V6.57561C25.5 5.70569 24.7818 5.00049 23.8959 5.00049Z" fill="#8ED6FF"/>
<path id="Vector_3" d="M23.8959 2.00049H2.10412C1.21819 2.00049 0.5 2.70569 0.5 3.57561V27.4254C0.5 28.2953 1.21819 29.0005 2.10412 29.0005H23.8959C24.7818 29.0005 25.5 28.2953 25.5 27.4254V3.57561C25.5 2.70569 24.7818 2.00049 23.8959 2.00049Z" fill="#FFE3B0"/>
<path id="Vector_4" d="M23.9139 26.0005H2.0861C1.66544 26.0005 1.26201 26.1585 0.964559 26.4398C0.667107 26.7211 0.5 27.1027 0.5 27.5005C0.5 27.8983 0.667107 28.2798 0.964559 28.5611C1.26201 28.8425 1.66544 29.0005 2.0861 29.0005H23.9139C24.3346 29.0005 24.738 28.8425 25.0354 28.5611C25.3329 28.2798 25.5 27.8983 25.5 27.5005C25.5 27.1027 25.3329 26.7211 25.0354 26.4398C24.738 26.1585 24.3346 26.0005 23.9139 26.0005Z" fill="#FFE3B0"/>
<path id="Vector_5" d="M16.8818 0.000488308H8.11801C7.9541 0.000488308 7.79691 0.066798 7.68101 0.18483C7.56511 0.302863 7.5 0.462949 7.5 0.629872V1.76731L10.8804 8.00049L12.4962 7.59859L14.1194 8.00049L17.4998 1.78248V0.645037C17.5018 0.561118 17.4873 0.477642 17.4571 0.399522C17.427 0.321403 17.3817 0.250218 17.3242 0.190159C17.2666 0.130099 17.1978 0.0823789 17.1218 0.0498053C17.0458 0.0172316 16.9642 0.000463934 16.8818 0.000488308ZM12.4962 7.58343L9.44338 1.79006H15.549L12.4962 7.58343Z" fill="#8ED6FF"/>
<path id="Vector_6" d="M9.5 2.00049L12.5 8.00049L15.5 2.00049H9.5Z" fill="#FFE3B0"/>
<path id="Vector_7" d="M17.5069 12.0005H22.5V17.1228C22.5 17.6208 22.3261 18.0984 22.0166 18.4505C21.707 18.8027 21.2872 19.0005 20.8494 19.0005H19.1506C18.7128 19.0005 18.293 18.8027 17.9834 18.4505C17.6739 18.0984 17.5 17.6208 17.5 17.1228V12.0005H17.5069Z" fill="#8ED6FF"/>
<path id="Vector_8" d="M22.5 12.0005H17.5V13.0005H22.5V12.0005Z" fill="#FFE3B0"/>
<path id="Vector_9" d="M14.5 3.00049H11.5V4.00049H14.5V3.00049Z" fill="#8ED6FF"/>
</g>
</svg>
