<svg width="105" height="103" viewBox="0 0 105 103" fill="none" xmlns="http://www.w3.org/2000/svg">
<g id="Group 3065" opacity="0.5">
<g id="Group 3062">
<path id="Vector" d="M83.8171 38.5181C83.5391 38.2812 83.2571 38.0177 82.974 37.7688C82.6925 37.5446 82.4259 37.3022 82.1759 37.0431C82.0881 36.9421 81.3528 36.3843 80.979 36.0356C80.3415 35.5361 79.6781 35.0709 78.9917 34.6418C77.2813 33.5835 75.4223 32.7895 73.4772 32.2865C73.1402 32.212 73.5471 33.3663 72.4753 35.4713C69.7736 40.773 62.2245 41.5718 58.6274 36.507C58.1275 35.7988 57.7346 35.0205 57.4615 34.1973C57.4063 34.065 57.3537 34.0906 57.0505 34.2492C54.3413 35.7154 52.003 37.7847 50.2145 40.2986C49.5614 40.9851 48.1622 43.6297 43.3256 49.0158C43.2048 49.1223 43.1278 49.27 43.1095 49.4304C43.0912 49.5908 43.1328 49.7523 43.2263 49.8838C44.89 52.3667 49.0152 55.5328 51.3316 56.2556C51.889 56.4286 52.1966 56.2469 52.5797 55.8747C53.399 55.0551 54.0963 53.6049 54.5204 52.495C54.5671 52.3769 54.5828 52.2487 54.5658 52.1228C54.4727 51.4094 54.4103 50.6937 54.2762 49.9834C54.1902 49.5319 54.1456 49.0702 54.0596 48.6188C53.9736 48.1673 53.8782 47.6597 53.8117 47.179C53.7482 46.9758 53.7125 46.765 53.7054 46.5523C53.7054 46.5523 53.7324 46.541 53.7473 46.5348C53.9225 46.4403 54.992 54.59 55.072 56.471C55.5376 61.9088 55.6413 67.3713 55.3823 72.822C55.23 75.5807 55.1771 75.5887 55.214 75.9477C55.3019 76.8258 55.9384 77.1211 56.7243 77.5305C61.0967 79.8229 66.0575 80.7303 70.9506 80.1325C75.8438 79.5347 80.4387 77.4599 84.1278 74.1826C84.688 73.6869 85.0856 73.1638 84.8503 72.3792C84.3212 70.619 83.6124 68.3936 82.729 64.6342C81.1998 58.2151 80.2106 51.6792 79.772 45.0954C79.7488 44.6848 79.743 44.2739 79.7035 43.8666C79.6914 43.7806 79.7008 43.6929 79.7308 43.6115C79.7308 43.6115 79.7578 43.6002 79.7698 43.5952C79.7817 43.5901 79.7698 43.5952 79.7785 43.6162C80.1385 49.3784 80.1121 49.4248 80.4292 49.7724C80.5175 49.8662 81.6506 51.7339 83.2237 52.6229C83.8198 52.9563 84.4071 52.534 85.0797 52.0124C87.0366 50.4873 89.709 47.1758 90.785 44.4474C91.097 43.6175 89.6643 43.6906 83.8171 38.5181Z" fill="#FFE3B0"/>
<path id="Vector_2" d="M65.6184 37.4377C68.1293 37.3066 70.7997 34.9647 71.1683 31.9932C71.2142 31.6513 71.2026 31.6319 70.8561 31.6104C69.8015 31.5301 68.7419 31.51 67.6827 31.5502C66.7275 31.6029 65.9604 31.6809 65.2691 31.7273C65.0563 31.7503 64.8451 31.7876 64.637 31.8391C62.96 32.0611 61.3066 32.4472 59.7015 32.9914C59.5079 33.0724 59.4806 33.0838 59.5467 33.2852C60.0896 34.8575 61.2482 36.1421 62.7684 36.8571C63.6497 37.2831 64.6296 37.4827 65.6184 37.4377Z" fill="#FFE3B0"/>
<path id="Vector_3" d="M57.6452 35.071C57.5373 34.812 57.4307 34.556 57.3409 34.2895C57.2511 34.023 57.281 34.0524 58.9006 33.4063C59.1531 33.3006 59.2248 33.337 59.2771 33.5389C60.2515 36.4974 63.5524 38.2099 65.9656 37.7316C67.2626 37.4498 68.4436 36.7769 69.3466 35.8052C70.2496 34.8335 70.8304 33.6106 71.0094 32.3042C71.0413 32.0672 71.0299 31.9636 71.1808 31.9529C71.7585 32.0054 72.3328 32.0883 72.9011 32.2014C72.9974 32.2206 73.0804 32.2418 73.0664 32.3525C72.7526 35.2522 71.2975 37.336 69.1846 38.6115C68.2039 39.2098 67.1076 39.5941 65.9693 39.7385C64.831 39.8829 63.6768 39.7842 62.5842 39.449C61.4915 39.1137 60.4856 38.5497 59.6338 37.7947C58.782 37.0396 58.104 36.111 57.6452 35.071Z" fill="#FFA98E"/>
<path id="Vector_4" d="M89.6683 42.8772C89.0646 42.4584 88.2395 41.8885 87.1197 40.9825C85.1752 39.4147 83.8779 38.2685 82.8273 37.3513C81.0347 35.7764 80.0506 34.9091 77.9603 33.7767C76.7993 33.1469 75.5825 32.6268 74.3257 32.2234C71.5757 31.3493 66.9629 31.1734 63.5982 31.8143C59.3235 32.6275 56.3668 33.6313 52.9948 36.6037C51.0845 38.2863 50.0678 39.715 48.8167 41.5104C47.0521 44.0768 45.0989 46.5072 42.9735 48.7814C42.8338 48.9032 42.7389 49.0686 42.7039 49.251C42.6689 49.4334 42.6958 49.6225 42.7804 49.7879C44.3345 52.2858 49.074 55.9597 51.3714 56.4401C52.6358 56.7131 53.8745 54.0008 54.2966 53.0963L54.3427 52.9958C54.9791 58.6393 55.2284 64.3196 55.089 69.9964C55.0122 72.7103 54.9042 74.0733 54.8391 74.8885C54.775 75.6219 54.7606 75.8576 54.8552 76.1608C54.9251 76.3936 55.0408 76.6099 55.1955 76.7971C55.3502 76.9842 55.5408 77.1383 55.7558 77.2503C60.4086 79.8984 65.796 80.9445 71.0934 80.2284C73.232 79.9391 75.3234 79.3706 77.3145 78.5373C79.9254 77.4518 82.3243 75.9123 84.4011 73.9897C85.2741 73.1792 85.0044 72.3628 84.6335 71.2355C84.5457 71.0248 84.4885 70.7944 84.4172 70.5557C82.5672 64.1943 81.2278 57.6951 80.4118 51.1203C80.3555 50.681 80.3046 50.3137 80.2653 50.0334C80.3083 50.086 80.3644 50.1615 80.4217 50.24C81.0151 51.0851 81.736 51.8325 82.5584 52.4553C82.8848 52.6897 83.3851 52.9362 83.7096 52.8535C83.7961 52.832 83.8808 52.8037 83.9628 52.7687C85.9317 51.945 89.9463 47.1103 90.8481 44.3834C91.036 43.8207 90.6909 43.5835 89.6683 42.8772ZM83.203 52.3976C82.3179 51.9623 81.3241 50.9365 80.3067 49.4401C80.2465 49.3573 80.2066 49.2614 80.1902 49.1603C79.8229 45.6676 79.7926 44.4119 79.7807 43.8763C79.7853 43.7229 79.7722 43.5695 79.7416 43.4192C79.7279 43.3828 79.7025 43.3521 79.6695 43.3317C79.6366 43.3113 79.5978 43.3024 79.5593 43.3064C79.5209 43.3104 79.4848 43.3271 79.4567 43.3539C79.4287 43.3806 79.4103 43.4159 79.4043 43.4543C79.3229 43.8417 79.6767 47.7498 79.7911 48.9456L79.8049 48.9787C80.0774 53.0127 81.3794 59.8313 82.1338 63.1973C83.1098 67.5518 83.8304 69.9073 84.3102 71.4732C84.4023 71.7703 84.4818 72.0374 84.5556 72.2821C84.6459 72.547 84.6532 72.8332 84.5765 73.1022C84.4998 73.3712 84.3427 73.6101 84.1265 73.7866C81.4862 76.1948 78.346 77.985 74.9319 79.0285C71.5178 80.0719 67.9147 80.3426 64.3819 79.8211C60.7523 79.2938 57.5435 77.9263 55.8966 76.9123C55.655 76.7819 55.4574 76.5823 55.3291 76.339C55.2008 76.0956 55.1476 75.8196 55.1762 75.546C56.0918 63.7859 54.8619 51.1922 53.7419 46.3821C53.7355 46.346 53.7192 46.3124 53.6948 46.2852C53.6704 46.2579 53.6388 46.2381 53.6037 46.2279C53.5713 46.2196 53.5373 46.2207 53.5054 46.2309C53.4736 46.241 53.4453 46.26 53.4237 46.2856C53.3934 46.3326 53.3769 46.3871 53.3759 46.4431C53.375 46.4991 53.3897 46.5542 53.4183 46.6023C53.4885 46.7708 53.7374 48.3485 54.0961 50.8236L54.1149 50.8687C54.3183 52.0838 54.3052 52.1706 54.224 52.3812C53.7639 53.5241 53.0517 55.0163 52.1956 55.7914C52.0867 55.9177 51.9436 56.0096 51.7836 56.0558C51.6236 56.1021 51.4536 56.1007 51.2942 56.0519C48.7778 55.3416 44.4555 51.7653 43.1741 49.6939C43.1347 49.6475 43.105 49.5937 43.0867 49.5356C43.0684 49.4776 43.0618 49.4164 43.0674 49.3558C43.073 49.2952 43.0906 49.2363 43.1192 49.1827C43.1478 49.129 43.1868 49.0817 43.234 49.0434C45.3738 46.6963 47.3605 44.2129 49.1814 41.6087C50.3789 39.9382 51.3243 38.617 52.827 37.2569C54.0716 36.0888 55.4621 35.0878 56.9638 34.279L56.9818 34.2715C57.0405 34.236 57.1041 34.2094 57.1706 34.1925C57.184 34.21 57.1927 34.2308 57.1957 34.2527L57.2107 34.2888C57.6154 35.4691 58.2741 36.5458 59.14 37.4424C60.0195 38.3475 61.0944 39.0378 62.2816 39.4599C63.3632 39.844 64.509 40.0116 65.6543 39.9533L65.8334 39.9525C65.902 39.9557 65.9707 39.9542 66.0391 39.9478C68.2151 39.5285 69.6977 38.7705 71.0133 37.4427C72.3085 36.1107 73.1184 34.3792 73.3121 32.5273C73.3203 32.4709 73.3296 32.3751 73.3464 32.3646C73.3631 32.354 73.4576 32.3781 73.5133 32.3937C76.1934 33.1168 79.0053 34.6468 80.2875 35.7145C80.3358 35.7543 80.4083 35.8017 80.4834 35.8551C80.5583 35.9034 80.6306 35.9557 80.6999 36.0118C81.0299 36.3225 81.3823 36.6026 81.7433 36.8862L81.7775 36.9178C82.4195 37.5043 84.7024 39.5807 87.2106 41.5134C88.5362 42.5417 89.4473 43.1745 89.9339 43.5151C90.1468 43.6627 90.2888 43.7588 90.3299 43.7981C90.4141 43.8617 90.474 43.9524 90.4995 44.0551C90.5249 44.1577 90.5143 44.2659 90.4695 44.3616C89.5954 46.6988 86.4414 50.8873 84.1408 52.2667C83.6902 52.5365 83.4608 52.5265 83.203 52.3976ZM60.8357 36.0051C61.4252 36.602 62.1289 37.073 62.9044 37.3899C63.6798 37.7067 64.511 37.8627 65.3477 37.8485C66.1446 37.8144 66.9257 37.6163 67.6426 37.2665C68.3596 36.9167 68.997 36.4227 69.5155 35.8152C70.4245 34.8138 71.0062 33.557 71.1826 32.2134C71.2026 32.0248 71.2098 32.0253 71.313 32.0281C71.8294 32.0638 72.3428 32.136 72.8492 32.244C72.9569 32.266 72.9569 32.266 72.9436 32.3776C72.7812 34.2048 71.9923 35.9182 70.7112 37.2256C69.4302 38.5329 67.7364 39.3534 65.9186 39.547C64.1008 39.7406 62.2715 39.2955 60.7427 38.2874C59.2138 37.2793 58.0801 35.7708 57.5347 34.019C57.5347 34.019 57.5284 34.0039 57.5451 33.9934C57.5619 33.9829 57.725 33.9182 57.9138 33.8392C58.2737 33.6851 58.6415 33.55 59.0157 33.4347L59.0576 33.4172C59.1415 33.382 59.1535 33.377 59.1866 33.448C59.21 33.4849 59.2308 33.5235 59.2487 33.5633C59.5833 34.4889 60.1265 35.3245 60.8357 36.0051ZM70.8275 32.0369C70.701 33.2063 70.2465 34.3153 69.5168 35.2352C68.1816 36.9385 66.2664 37.7221 64.268 37.3852C63.2087 37.1986 62.2173 36.7335 61.395 36.0372C60.5727 35.3409 59.9489 34.4383 59.5874 33.4217L59.5761 33.3946C59.5473 33.3254 59.5234 33.2682 59.5446 33.2346C59.5614 33.22 59.5824 33.2112 59.6046 33.2095L59.6286 33.1995C62.9733 32.099 66.4982 31.6535 70.012 31.8869C70.1987 31.9042 70.3466 31.913 70.4613 31.918C70.8331 31.9321 70.8331 31.9321 70.8275 32.0369Z" fill="#FFA98E"/>
</g>
<g id="Group">
<g id="&#208;&#160;&#194;&#160;&#208;&#160;&#194;&#181;&#208;&#160;&#194;&#182;&#208;&#160;&#209;&#145;&#208;&#160;&#209;&#152; &#208;&#160;&#209;&#145;&#208;&#160;&#194;&#183;&#208;&#160;&#209;&#149;&#208;&#160;&#194;&#187;&#208;&#161;&#208;&#143;&#208;&#161;&#226;&#128;&#160;&#208;&#160;&#209;&#145;&#208;&#160;&#209;&#145;">
<path id="Vector_5" d="M63.2347 86.2812C63.1727 86.0679 62.8348 85.1734 62.7309 84.9308C62.5727 84.4985 62.4179 84.0661 62.2631 83.6338C61.801 82.2065 61.3524 80.7788 60.9272 79.3366C59.9263 75.9511 59.0963 72.4843 58.3112 69.033C57.9486 67.4346 55.5414 58.6186 55.3095 58.0282C55.0842 57.4413 54.7225 56.917 54.2546 56.499C53.6191 56.0097 52.9431 55.5761 52.2338 55.2029C51.8862 55.0032 50.6036 54.2657 50.3927 54.1775C50.6204 53.6766 51.0327 53.0016 51.2365 52.5016C51.7554 51.377 52.2141 50.2253 52.6106 49.0516C52.8261 48.2269 52.9698 47.3849 53.0401 46.5353C52.9028 45.0905 52.651 43.6592 52.2871 42.2548C51.6666 39.9061 50.5058 37.9804 48.9895 36.1154C47.4733 34.2504 45.5148 32.887 43.1252 32.5347C40.8725 32.2014 38.5703 33.0811 36.615 34.1364C32.7269 36.2156 29.2199 39.5436 27.3355 43.5934C27.2849 43.7047 27.2343 43.816 27.1876 43.9409C26.9316 44.7985 27.071 45.2793 27.1803 45.9665C27.34 46.8035 27.5545 47.629 27.8221 48.4377C28.1184 49.409 28.4315 50.3728 28.7815 51.3217C28.8929 51.5845 29.0042 51.844 29.1188 52.1033C29.6676 53.3769 30.279 54.6893 30.9571 55.9617C30.4083 56.2413 27.4996 57.6935 26.6281 58.1901C25.9791 58.5394 25.4073 59.0173 24.9472 59.5948C24.5771 60.111 24.4509 60.9811 24.237 61.5807C22.7724 65.5564 20.97 69.3983 18.8498 73.0639C17.8305 74.8356 16.6931 76.536 15.4454 78.1536C14.8104 78.9838 14.21 79.8298 13.536 80.6169C13.2487 80.9693 12.8518 81.3051 12.5277 81.6794C12.4045 81.9039 12.3274 82.151 12.3012 82.406C12.4094 83.4524 13.1614 84.404 13.8619 85.1487C14.3434 85.6478 14.8523 86.1196 15.3861 86.5618C16.7039 87.4281 18.335 88.1976 18.3884 88.1649C19.1592 88.4733 19.9683 88.6745 20.7934 88.763C20.5915 89.6085 20.4274 90.4662 20.3078 91.3293C21.1012 92.1873 22.112 92.8122 23.2321 93.137L23.545 93.2216C26.5473 94.0481 29.7199 94.4887 32.7806 94.9435C35.7482 95.3844 38.7424 95.6201 41.7422 95.6489C43.2099 95.6742 44.6776 95.5941 46.1341 95.4094C46.8172 95.316 47.4948 95.1855 48.1639 95.0185C48.3158 94.9789 48.471 94.9391 48.6295 94.8924C49.0034 94.7763 49.3777 94.6671 49.7553 94.5578C50.0236 94.4998 50.281 94.3993 50.518 94.2602C50.6075 94.0249 50.6799 93.7833 50.7344 93.5374C50.7513 93.4376 50.7682 93.3343 50.7884 93.231C50.9509 92.363 51.0884 91.4913 51.2007 90.616C51.4522 88.6569 51.6256 86.7074 51.7437 84.7325C51.7413 84.6642 51.7389 84.5958 51.7366 84.5309C51.7571 84.3386 51.7742 84.1464 51.7878 83.9509C51.8647 84.5913 51.9507 85.2303 52.0457 85.8678C52.3791 88.09 52.7798 90.2892 53.1605 92.5028L53.1624 92.5575C53.2173 92.6865 53.3103 92.7954 53.4288 92.8695C53.769 92.8573 54.1419 92.8098 54.4881 92.7734C54.9497 92.7295 55.415 92.6923 55.8719 92.6109C56.7672 92.4447 57.6512 92.2222 58.5187 91.9448C59.595 91.6113 60.647 91.2032 61.6671 90.7235C62.0648 90.5074 62.4485 90.2781 62.8184 90.0459C63.288 89.7451 64.0632 89.317 64.136 88.7704C63.8747 87.9245 63.4922 87.1171 63.2347 86.2812Z" fill="#FFE3B0"/>
<path id="Vector_6" d="M53.5087 92.2821C53.4236 91.4044 53.206 90.5315 53.1074 89.6578C52.9737 88.4632 52.7348 87.2723 52.561 86.0963C52.5158 85.7757 52.4741 85.4585 52.4288 85.138C52.2019 83.8028 52.0188 82.4592 51.9001 81.1098C51.8403 81.1497 51.5312 74.9546 51.445 72.9804L51.3206 69.8219C51.1067 66.9201 50.957 64.0092 50.6143 61.1189C50.6102 65.1696 50.8274 69.2296 50.9663 73.2854C51.0326 75.1781 51.4028 81.275 51.4939 82.807C51.4833 83.0849 51.0683 87.9214 50.8644 89.6662C50.7672 90.4818 50.6395 91.2986 50.5185 92.1116C50.4571 92.7799 50.3509 93.4431 50.2006 94.0969C49.598 94.1795 49.0026 94.3085 48.4195 94.4829C48.1004 94.4943 47.7746 94.506 47.4477 94.4903C46.076 94.4003 44.7156 94.1829 43.3836 93.8408C40.461 93.1779 37.6299 92.2135 34.7493 91.3915C32.0028 90.6092 29.2579 89.8748 26.3842 89.7344C24.5899 89.6479 22.348 89.879 20.643 90.7899C20.8173 90.0401 21.0192 89.3029 21.2449 88.5683C21.2837 88.5121 21.3021 88.4532 21.2875 88.4263C22.486 84.415 24.2044 80.5942 25.6707 76.659C26.8417 73.5123 28.0876 70.3663 28.8946 67.1127C29.0692 66.1812 29.2814 65.2517 29.4082 64.3117C29.503 63.6229 29.6922 62.7183 29.5705 61.9619C29.4571 62.994 29.3016 63.9865 29.0815 64.9813C28.8201 64.2022 28.5153 63.4386 28.1686 62.694C27.8877 62.0496 27.5939 61.4261 27.2933 60.8029C27.0476 60.3868 26.7886 59.9814 26.5096 59.5836C26.7467 60.6272 27.3101 61.6693 27.6992 62.6834C28.1105 63.7516 28.4777 64.8213 28.8521 65.9011C27.9674 69.7503 26.4796 73.4601 25.0934 77.1594C24.1922 79.5665 23.1633 81.92 22.286 84.3331C22.1461 84.7048 21.9996 85.0835 21.8533 85.4657C21.5787 86.3597 21.2354 87.2322 20.9884 88.1354C20.7657 87.9892 20.3641 87.8768 20.1736 87.774C19.6221 87.4663 19.0862 87.1309 18.568 86.7691C17.4508 85.9604 16.3898 85.0756 15.3923 84.1208C14.8762 83.6527 14.4126 83.1279 13.9196 82.6383C13.6555 82.3771 13.2698 81.9454 12.8534 81.9912L12.7719 81.9941C13.0747 81.7125 13.3161 81.3269 13.5871 81.0088C14.7092 79.7623 15.6421 78.3547 16.6489 77.0164C17.7297 75.5404 18.711 73.9929 19.5862 72.3843C20.4403 70.8596 21.4635 69.3117 22.1169 67.6879C22.8328 65.9077 23.6487 64.1685 24.3509 62.3853C24.6474 61.631 24.8884 60.8479 25.1608 60.0843C25.4885 59.1575 26.2975 58.6728 27.1342 58.2042C27.9667 57.673 28.8253 57.1847 29.7069 56.7413C30.0817 56.5736 30.4526 56.3924 30.8164 56.2012L31.0766 56.0616C31.6463 57.1086 32.2846 58.1161 32.9872 59.0774C32.2157 57.7071 31.5325 56.2881 30.9416 54.8294C30.4567 53.8941 29.9949 52.9374 29.5913 51.9923C29.0069 50.6425 28.4754 49.2497 27.9714 47.8661C27.708 47.1361 27.5032 46.386 27.3591 45.6229C27.2771 45.2042 27.2518 44.7763 27.2839 44.3508C27.2817 44.2892 27.3135 44.2263 27.3317 44.164C27.7002 42.9445 28.5 41.809 29.2254 40.7858C30.6614 38.7447 32.4482 36.9792 34.5013 35.573C36.6632 34.1248 39.2779 32.6981 41.9544 32.7393C44.4982 32.7818 46.5507 34.1235 48.2391 35.941C49.8907 37.7112 51.1076 39.8471 51.7922 42.1774C52.2294 43.7345 52.5131 45.3314 52.6392 46.9447C52.4498 49.0076 51.5372 50.8977 50.7236 52.7979C50.5726 53.146 50.4081 53.4946 50.2599 53.8255C49.9062 54.7874 49.4457 55.7086 48.9981 56.6122C48.7096 57.2051 48.3587 57.7625 48.0839 58.3584C47.9984 58.5396 47.9126 58.7072 47.8206 58.8956C48.7738 57.4396 49.619 55.9145 50.3491 54.3329C50.7363 54.6137 51.2069 54.8539 51.5612 55.0708C52.1761 55.4497 52.7644 55.8433 53.363 56.2434C54.5915 57.0595 55.0464 58.3043 55.5214 59.6375C56.0426 61.1232 56.3092 62.7174 56.7027 64.2454C57.1022 65.9446 57.5211 67.6156 57.9 69.3086C58.6803 72.7555 59.5025 76.2352 60.5352 79.6114C61.0069 81.14 61.5394 82.6596 62.0342 84.1668C62.156 84.5394 62.2911 84.9012 62.4362 85.2593C62.5123 85.493 62.5919 85.7266 62.6714 85.9568C62.9652 86.7756 63.373 87.6451 63.6238 88.4963L63.6034 88.497L63.6051 88.5449C63.2962 88.556 62.9719 88.7115 62.6848 88.7629C62.1308 88.8616 61.5904 89.0557 61.0411 89.1885C59.8858 89.4743 58.7464 89.8217 57.6276 90.2292C56.5529 90.5932 55.5113 91.0502 54.5145 91.595C54.1465 91.7711 53.8074 92.0028 53.5087 92.2821Z" fill="#FFA98E"/>
<path id="Vector_7" d="M47.2385 44.9991C46.4299 44.0311 45.5074 43.1645 44.491 42.4181C42.5719 41.002 40.3614 40.0318 38.02 39.5781C35.8696 39.1431 33.8372 39.8371 31.9641 40.8906C31.0955 41.358 30.2903 41.9352 29.5686 42.608C29.0504 43.101 28.2473 43.8329 28.099 44.5652C27.9039 45.5177 28.3481 46.2219 28.6886 47.0801C29.1412 48.2176 29.6409 49.3363 30.1946 50.4394C30.2567 50.5566 30.3154 50.674 30.3735 50.7743C30.5332 51.1474 30.7133 51.5164 30.9066 51.8747C32.3135 54.4491 34.2197 56.6745 36.0092 58.9757C37.4808 58.2404 38.8955 57.3432 40.3066 56.5384C42.3567 55.3497 44.2365 53.8885 45.8946 52.1945C47.1297 50.942 48.5158 49.1311 48.6227 47.3183C48.6662 46.5146 47.6909 45.5495 47.2385 44.9991Z" fill="#FFE3B0"/>
<path id="Vector_8" d="M46.8586 50.9237C45.362 52.9791 43.1143 54.6241 40.9952 55.9674C39.4489 56.9836 37.8455 57.909 36.193 58.739C36.1973 58.7268 36.1969 58.7134 36.1917 58.7015C34.9669 57.4678 34.0027 55.9207 33.0621 54.465C32.6063 53.764 32.1196 53.0538 31.6629 52.3255C30.7154 50.4806 29.834 48.5855 29.0874 46.6583C28.8675 46.0992 28.5516 45.6117 28.5325 44.9702C28.5134 44.3287 28.9335 43.8183 29.3244 43.3466C30.1415 42.3471 31.3012 41.6258 32.3964 41.0024C33.4738 40.3944 34.6464 39.9758 35.8637 39.7646C37.1907 39.5565 38.6778 40.0395 39.928 40.4457C42.261 41.2332 44.2645 42.5961 46.0752 44.27C46.953 45.0853 47.6938 46.0381 48.269 47.0916C48.5895 47.7087 48.1359 48.7156 47.8779 49.2987C47.5946 49.8742 47.253 50.4187 46.8586 50.9237Z" fill="#FFE3B0"/>
<path id="Vector_9" d="M18.3651 87.6692C18.1871 87.6163 18.0156 87.5492 17.8199 87.4795C16.6316 86.9155 15.5347 86.1729 14.5665 85.2771C13.8788 84.6567 13.3088 83.915 12.8844 83.0881C12.7243 82.8555 12.6161 82.5905 12.5672 82.3114C12.8929 81.7557 14.2463 83.4299 14.5115 83.7099C15.2038 84.4207 15.9338 85.0931 16.6984 85.7238C17.4607 86.3668 18.2609 86.9623 19.0947 87.5071C19.4728 87.7551 19.8598 87.9609 20.257 88.1629C20.3413 88.2052 20.5196 88.2686 20.6808 88.336C19.8976 88.1557 19.1246 87.9331 18.3651 87.6692Z" fill="#FFA98E"/>
<path id="Vector_10" d="M43.3398 95.2072C40.6057 95.2055 37.874 95.0455 35.1585 94.728C32.4462 94.4374 29.7332 93.934 27.048 93.44C25.7108 93.2021 24.3887 92.8863 23.0882 92.494C22.4529 92.3194 21.8419 92.0658 21.2694 91.739C21.0417 91.58 20.8577 91.3659 20.7345 91.1164C20.8287 91.0719 20.9195 91.0275 21.0004 90.9937C21.6857 90.7299 22.3947 90.5333 23.1176 90.4066C24.6605 90.1396 26.2347 90.1087 27.7866 90.3149C30.5686 90.6408 33.2997 91.4695 35.9796 92.2966C38.6594 93.1237 41.4111 93.9517 44.195 94.528C45.1338 94.725 46.0861 94.8515 47.0437 94.9064C45.8188 95.104 44.5803 95.2046 43.3398 95.2072Z" fill="#FFA98E"/>
<path id="Vector_11" d="M63.3528 89.3796C62.8484 89.8953 61.9017 90.2599 61.4078 90.4923C60.5342 90.9326 59.6237 91.296 58.6868 91.5782C57.7467 91.8403 56.8025 92.082 55.8463 92.2765C55.1183 92.4163 54.383 92.5143 53.6439 92.5701C53.833 92.399 54.0367 92.2446 54.2526 92.1086C54.7586 91.8204 55.2808 91.5615 55.8166 91.3334C56.6778 90.9617 57.5548 90.6541 58.4425 90.3565C59.3301 90.0588 60.3161 89.8394 61.2527 89.5741C61.7517 89.424 62.2579 89.2989 62.7694 89.1994C62.9425 89.1693 63.6319 88.8685 63.6463 89.0828C63.5752 89.2049 63.4742 89.307 63.3528 89.3796Z" fill="#FFA98E"/>
<path id="Vector_12" d="M34.4725 58.64C34.347 58.6475 34.2268 58.6936 34.128 58.7719C34.0293 58.8502 33.9568 58.957 33.9203 59.0779C33.8364 59.3333 33.9205 59.7692 34.2099 59.8798C34.0962 61.6396 33.1004 63.4587 32.4956 65.0461C32.0626 66.1365 31.4977 67.8814 31.8926 69.1357C31.7802 69.1473 31.6752 69.1975 31.5954 69.2778C31.5155 69.3581 31.4655 69.4636 31.4539 69.5765C31.4435 69.8672 31.647 69.9809 31.8827 70.0312C31.8535 70.097 31.8445 70.17 31.8568 70.241C31.8691 70.312 31.9021 70.3776 31.9517 70.4296C32.0117 70.4915 32.0875 70.5356 32.1708 70.557C32.2541 70.5784 32.3416 70.5763 32.4238 70.551C32.5754 70.4774 32.7055 70.3655 32.8012 70.2264C32.9226 70.0788 32.988 69.8928 32.9857 69.7013C32.9857 69.7013 32.9857 69.7013 32.9685 69.702C33.0253 69.6501 33.0632 69.5806 33.0761 69.5046C33.0891 69.4285 33.0763 69.3504 33.0399 69.2825C33.0035 69.2146 32.9455 69.161 32.8752 69.1301C32.8049 69.0991 32.7264 69.0928 32.652 69.1119C32.4397 67.3741 32.9484 65.9907 33.5519 64.3654C34.0756 62.9157 34.7349 61.5096 34.7263 59.9892C34.7444 59.9937 34.7635 59.993 34.7813 59.9872C35.2558 59.6868 35.057 58.6294 34.4725 58.64Z" fill="#FFA98E"/>
<path id="Vector_13" d="M32.349 70.0956C32.2774 70.0817 32.2116 70.0451 32.161 69.9907C32.1103 69.9363 32.0772 69.867 32.0662 69.7923C32.1005 69.7943 32.1349 69.7931 32.1689 69.7886C32.2815 69.804 32.396 69.7946 32.5047 69.761C32.6135 69.7274 32.7141 69.6703 32.8001 69.5936C32.7358 69.8279 32.62 70.1486 32.349 70.0956Z" fill="#FFE3B0"/>
<path id="Vector_14" d="M32.657 69.3622C32.6831 69.3337 32.7233 69.2224 32.6531 69.2524L32.6125 69.2539C32.6243 69.2343 32.6295 69.2104 32.6271 69.1866C32.6271 69.1866 32.6257 69.1474 32.625 69.1278C32.9505 69.226 32.8164 69.7529 32.4629 69.8205C32.3333 69.8448 32.2013 69.8495 32.0703 69.8345C31.9503 69.8206 31.8337 69.7795 31.7271 69.7134C31.6661 69.6662 31.6197 69.5977 31.5948 69.518C31.5155 69.2853 31.718 69.1642 31.8756 69.1154C31.8922 69.1763 31.9124 69.2359 31.9361 69.2938L31.8142 69.2981C31.7905 69.299 31.7251 69.3681 31.7532 69.3945C31.8819 69.519 32.0453 69.5845 32.2121 69.5786C32.3789 69.5726 32.5373 69.4955 32.657 69.3622Z" fill="#FFE3B0"/>
<path id="Vector_15" d="M32.5452 69.3511C32.4891 69.3566 32.4327 69.3586 32.3763 69.3572L32.3753 69.3297C31.6923 67.6338 32.5267 65.6118 33.197 64.0326C33.7962 62.6349 34.7296 60.8226 34.4808 59.2523C34.4848 59.2213 34.4837 59.19 34.4775 59.1595C34.5239 59.1828 34.5637 59.2168 34.5937 59.2585C34.6612 59.3648 34.716 59.4783 34.7571 59.5967C34.7759 59.6426 34.7883 59.6908 34.7938 59.7399C34.6703 63.0474 31.7924 65.9684 32.5452 69.3511Z" fill="#FFE3B0"/>
<path id="Vector_16" d="M34.7241 59.7248C34.7719 59.4518 34.6968 58.9458 34.4433 58.8667C34.3332 58.8299 34.1958 58.9603 34.1482 59.0672C34.1365 59.1527 34.1396 59.2401 34.1572 59.3246C34.161 59.3777 34.1752 59.4293 34.1988 59.4757C34.1999 59.5062 34.2009 59.5367 34.202 59.5672C34.1348 59.4523 34.0854 59.3257 34.0559 59.1926C34.0394 59.1134 34.0451 59.0306 34.0722 58.9555C34.0993 58.8805 34.1465 58.8168 34.2074 58.7734C34.2577 58.7527 34.3121 58.7468 34.3652 58.7561C34.4184 58.7655 34.4687 58.7899 34.5114 58.827C34.7 58.9525 34.9194 59.5211 34.7241 59.7248Z" fill="#FFE3B0"/>
<path id="Vector_17" d="M39.8968 58.6401C39.7712 58.6489 39.6512 58.6949 39.5527 58.7723C39.4541 58.8497 39.3816 58.9547 39.3448 59.0734C39.2606 59.3204 39.3479 59.7511 39.6335 59.8561C39.5016 61.5826 38.5259 63.3664 37.8997 64.9207C37.4696 65.9902 36.9006 67.7017 37.2944 68.9315C37.1879 68.9465 37.0892 68.9956 37.0136 69.0711C36.938 69.1467 36.8896 69.2446 36.8759 69.3498C36.8618 69.635 37.0652 69.7497 37.3006 69.7955C37.2714 69.8601 37.2623 69.9317 37.2746 70.0013C37.2868 70.0709 37.3198 70.1352 37.3693 70.1862C37.43 70.2468 37.5063 70.2899 37.59 70.3108C37.6738 70.3317 37.7618 70.3296 37.8445 70.3047C37.9962 70.2327 38.1263 70.1229 38.2218 69.9862C38.3431 69.8429 38.4076 69.6612 38.4032 69.4747C38.4049 69.4716 38.4058 69.468 38.4056 69.4645C38.4055 69.4609 38.4044 69.4574 38.4025 69.4544C38.46 69.4034 38.4983 69.3348 38.5114 69.2597C38.5245 69.1846 38.5115 69.1074 38.4746 69.0406C38.4377 68.9737 38.379 68.9211 38.3079 68.8913C38.2369 68.8615 38.1577 68.8561 38.0831 68.8761C37.8755 67.172 38.3849 65.815 38.9856 64.2209C39.511 62.8329 40.1511 61.478 40.1606 59.9864C40.17 59.9901 40.18 59.9918 40.19 59.9914C40.2001 59.9911 40.21 59.9886 40.219 59.9843C40.6826 59.6762 40.4848 58.6428 39.8968 58.6401Z" fill="#FFA98E"/>
<path id="Vector_18" d="M37.7803 70.096C37.7088 70.0814 37.6431 70.0436 37.5921 69.9879C37.5411 69.9321 37.5073 69.861 37.4953 69.7842L37.5981 69.7966C37.711 69.8117 37.8254 69.8015 37.9341 69.7665C38.0428 69.7316 38.1434 69.6727 38.2295 69.5936C38.1622 69.8215 38.0592 70.1472 37.7803 70.096Z" fill="#FFE3B0"/>
<path id="Vector_19" d="M38.077 69.3723C38.1029 69.3444 38.1395 69.2355 38.0734 69.2686L38.0364 69.2699C38.0454 69.2495 38.0503 69.227 38.0509 69.204C38.0509 69.204 38.0496 69.1656 38.0489 69.1464C38.3888 69.2419 38.2387 69.7587 37.8877 69.829C37.7579 69.8471 37.6263 69.844 37.4969 69.8199C37.3774 69.8087 37.2612 69.7683 37.1561 69.7014C37.0924 69.6592 37.0454 69.5906 37.0249 69.51C36.9428 69.2822 37.1474 69.1633 37.3005 69.1156C37.3027 69.177 37.3383 69.2334 37.3605 69.2903L37.2395 69.2946C37.2159 69.2955 37.1544 69.363 37.179 69.3929C37.3056 69.5165 37.4672 69.5827 37.6329 69.5789C37.7987 69.575 37.9568 69.5015 38.077 69.3723Z" fill="#FFE3B0"/>
<path id="Vector_20" d="M37.9731 69.3512C37.917 69.3566 37.8605 69.3587 37.8041 69.3572C37.8073 69.3483 37.807 69.3384 37.8032 69.3297C37.1232 67.6332 37.9582 65.6104 38.629 64.0307C39.225 62.6326 40.1591 60.8197 39.9136 59.2487C39.9142 59.2189 39.9132 59.1891 39.9104 59.1594C39.9562 59.1577 39.9974 59.2251 40.0232 59.2586C40.0932 59.364 40.1494 59.4776 40.1902 59.5968C40.2082 59.6416 40.2194 59.6887 40.2233 59.7367C40.0995 63.0419 37.2233 65.9637 37.9731 69.3512Z" fill="#FFE3B0"/>
<path id="Vector_21" d="M40.1594 59.7246C40.2081 59.4519 40.1323 58.95 39.8751 58.8677C39.8115 58.8589 39.7472 58.8742 39.6928 58.9113C39.6384 58.9483 39.5972 59.0049 39.5759 59.0715C39.5621 59.1557 39.5651 59.2423 39.5848 59.3252C39.5911 59.3781 39.6065 59.4293 39.6299 59.476L39.6331 59.5674C39.5671 59.4515 39.5172 59.3254 39.4852 59.1933C39.4694 59.1142 39.4756 59.0319 39.5031 58.9571C39.5305 58.8823 39.578 58.8187 39.639 58.7746C39.6901 58.7526 39.7457 58.7463 39.8 58.7563C39.8542 58.7662 39.9051 58.7922 39.9474 58.8313C40.1354 58.9532 40.3424 59.525 40.1594 59.7246Z" fill="#FFE3B0"/>
</g>
</g>
<g id="Group 3061">
<path id="Vector_22" d="M72.336 20.3546C72.3361 20.3398 72.3582 20.3277 72.3682 20.3155C72.3583 16.7811 72.7048 14.1403 72.0303 12.1978C71.8168 11.5542 71.4617 10.9681 70.9918 10.4837C69.9754 9.42976 68.2721 8.65506 65.4482 8.08079C62.9727 7.5795 59.8552 7.05149 57.7666 8.45496C57.4046 8.70101 57.0783 8.99695 56.7972 9.33423C55.4561 10.9213 54.8539 13.4925 53.587 16.7783C53.5842 16.7955 53.584 16.813 53.5864 16.8302C51.4399 17.499 50.0062 18.6303 49.7308 20.1275C49.6294 20.7048 49.6914 21.2993 49.9097 21.8422C50.9394 24.572 55.4418 27.2875 61.1661 28.3651C68.0795 29.6756 74.1701 28.093 74.7699 24.847C75.0453 23.3498 74.1031 21.7627 72.336 20.3546Z" fill="#FFCECE"/>
<g id="Group_2">
<path id="Vector_23" d="M54.1105 20.0856C54.8218 20.7514 55.6122 21.324 56.4634 21.79C58.17 22.7241 60.0354 23.2582 61.89 23.6725C63.7692 24.1308 65.7166 24.2264 67.6309 23.9543C68.5902 23.7991 69.5288 23.5322 70.4282 23.1589C71.3145 22.7823 72.1571 22.307 72.9406 21.7417C72.9651 21.7162 72.9803 21.6829 72.9835 21.6474C72.9868 21.6119 72.9778 21.5764 72.9582 21.5469C72.9387 21.5173 72.9096 21.4955 72.8761 21.4853C72.8425 21.475 72.8065 21.4768 72.7741 21.4904C71.9765 21.9789 71.1342 22.3875 70.259 22.7105C69.3849 23.0361 68.4774 23.2597 67.5538 23.3772C65.706 23.586 63.8366 23.4661 62.0295 23.0229C60.1994 22.6189 58.3877 22.1053 56.7316 21.2616C55.0587 20.4358 53.6288 19.1771 52.5852 17.6118C52.5607 17.5798 52.5255 17.558 52.4862 17.5508C52.4469 17.5435 52.4064 17.5513 52.3724 17.5726C52.3384 17.5939 52.3134 17.6272 52.302 17.6661C52.2907 17.705 52.2939 17.7468 52.311 17.7835C52.7947 18.6378 53.4012 19.4137 54.1105 20.0856Z" fill="#FFA98E"/>
<path id="Vector_24" d="M58.8813 10.6263C59.3349 11.0562 59.843 11.4243 60.3926 11.7213C61.4893 12.2855 62.66 12.6919 63.8701 12.9285C65.0844 13.2177 66.3426 13.2722 67.5774 13.0891C68.1917 12.9879 68.7916 12.813 69.364 12.5679C69.9299 12.3225 70.4665 12.0144 70.9637 11.6492C70.994 11.6265 71.0149 11.5936 71.0225 11.5565C71.0301 11.5195 71.024 11.4809 71.0052 11.4481C70.9847 11.4134 70.9513 11.3883 70.9123 11.3782C70.8734 11.3681 70.832 11.3739 70.7973 11.3943C69.7817 11.9933 68.6547 12.3782 67.4854 12.5254C66.3219 12.6475 65.1462 12.5683 64.0096 12.2912C62.8533 12.0684 61.7287 11.7047 60.6607 11.2082C59.6062 10.7044 58.6989 9.93735 58.0261 8.98071C58.0027 8.94721 57.9677 8.92364 57.9279 8.91458C57.8881 8.90552 57.8463 8.91162 57.8108 8.93169C57.7919 8.94176 57.7752 8.95545 57.7617 8.972C57.7482 8.98855 57.738 9.00761 57.7319 9.0281C57.7257 9.04859 57.7237 9.07009 57.7258 9.09137C57.728 9.11266 57.7344 9.13329 57.7446 9.1521C58.0464 9.69854 58.4298 10.1957 58.8813 10.6263Z" fill="#FFA98E"/>
<path id="Vector_25" d="M74.1868 24.399C74.1765 24.3817 74.163 24.3666 74.147 24.3547C74.131 24.3428 74.1128 24.3343 74.0935 24.3297C74.0743 24.325 74.0543 24.3244 74.0347 24.3277C74.0152 24.3311 73.9966 24.3384 73.9798 24.3493C72.1453 25.5221 70.0896 26.2845 67.9477 26.5865C65.8045 26.8348 63.6357 26.697 61.5394 26.1795C59.4184 25.7065 57.3207 25.1087 55.4008 24.1128C53.4631 23.1439 51.8102 21.6675 50.6096 19.8331C50.5852 19.801 50.5502 19.7792 50.5111 19.772C50.472 19.7647 50.4317 19.7725 50.3979 19.7938C50.364 19.8152 50.3391 19.8485 50.3278 19.8875C50.3165 19.9266 50.3197 19.9684 50.3367 20.0052C50.8966 20.9947 51.5976 21.893 52.4165 22.6704C53.241 23.4412 54.1572 24.1021 55.1436 24.6376C57.1114 25.719 59.2747 26.34 61.4103 26.8207C62.4931 27.0689 63.5931 27.2313 64.7004 27.3064C65.8137 27.3773 66.9313 27.3265 68.0342 27.155C69.1348 26.9775 70.2119 26.6712 71.2445 26.2422C72.2691 25.8079 73.2443 25.2602 74.1527 24.6087C74.1829 24.5844 74.2032 24.5494 74.2095 24.5106C74.2158 24.4718 74.2077 24.432 74.1868 24.399Z" fill="#FFA98E"/>
<path id="Vector_26" d="M53.0889 21.4077C53.8778 22.095 54.745 22.6845 55.6722 23.1636C57.5203 24.1217 59.5239 24.6865 61.5193 25.1179C63.5358 25.6013 65.6206 25.7234 67.679 25.4784C68.7068 25.3376 69.7159 25.0811 70.6876 24.7137C71.6524 24.3427 72.5738 23.8651 73.4351 23.2896C73.4575 23.2646 73.4712 23.2329 73.4739 23.1993C73.4767 23.1657 73.4684 23.1321 73.4504 23.1037C73.4323 23.0754 73.4055 23.0539 73.3741 23.0425C73.3428 23.0312 73.3086 23.0307 73.2768 23.041C72.4047 23.5462 71.485 23.9621 70.5314 24.2825C69.5848 24.6065 68.6057 24.8227 67.6119 24.9272C65.6164 25.1112 63.6047 24.966 61.6554 24.4973C59.682 24.0662 57.7292 23.5291 55.9265 22.6579C54.1052 21.8106 52.5316 20.501 51.3583 18.8563C51.3348 18.82 51.298 18.7947 51.256 18.7859C51.214 18.7771 51.1703 18.7856 51.1344 18.8094C51.0986 18.8332 51.0736 18.8705 51.0649 18.913C51.0562 18.9555 51.0645 18.9997 51.088 19.036C51.6368 19.9214 52.3109 20.7204 53.0889 21.4077Z" fill="#FFA98E"/>
</g>
<path id="Vector_27" d="M72.3814 20.1633C72.3773 19.2031 72.4016 18.3269 72.4231 17.4777C72.4818 15.2453 72.5305 13.483 72.0327 12.0423C71.8155 11.379 71.4526 10.7741 70.9713 10.273C69.8929 9.16818 68.1097 8.3906 65.3478 7.83634C62.6759 7.29289 59.6526 6.83181 57.5677 8.24461C57.1935 8.49787 56.8565 8.8034 56.5669 9.15212C55.5802 10.3207 54.9972 11.9763 54.2608 14.0758C53.9795 14.8532 53.6904 15.6822 53.3447 16.5698C51.1215 17.2843 49.7596 18.4784 49.4851 19.9748C49.3802 20.5726 49.4425 21.1881 49.6651 21.7519C50.7391 24.5899 55.4051 27.3091 61.0098 28.3644C62.4981 28.6497 64.0082 28.8036 65.523 28.8243C67.1048 28.8581 68.6843 28.6848 70.2223 28.3089C72.8492 27.6307 74.4627 26.358 74.7631 24.7265C75.0474 23.2278 74.1911 21.6231 72.3814 20.1633ZM54.5713 14.1703C55.2952 12.1026 55.8683 10.4716 56.8154 9.35177C57.0844 9.02587 57.3983 8.74073 57.7474 8.50507C58.7285 7.83863 59.9725 7.62065 61.287 7.63486C62.6317 7.68918 63.9687 7.86846 65.2808 8.17044C67.9772 8.70431 69.7071 9.45177 70.7253 10.5067C71.1765 10.9717 71.5174 11.5344 71.7223 12.1522C72.1939 13.536 72.1529 15.2713 72.0946 17.4692C72.0714 18.2445 72.0529 19.042 72.0507 19.9061C72.0499 19.9775 72.0491 20.0514 72.0483 20.1252C72.0145 20.1672 71.9774 20.2063 71.9374 20.2422C71.8485 20.3293 71.7541 20.4105 71.6548 20.4854C70.6259 21.2867 69.1525 21.7829 67.1465 22.0074C64.3817 22.3298 61.5815 21.937 59.0085 20.8656C57.0093 20.0316 55.5469 19.0826 54.5368 17.9638L54.4911 17.9166C53.9281 17.3147 53.732 16.9925 53.6706 16.8195C53.6574 16.7846 53.6488 16.7481 53.645 16.7109L53.7428 16.4534C54.0486 15.6517 54.315 14.9012 54.5713 14.1703ZM74.4472 24.6763C74.1702 26.1727 72.6452 27.365 70.1478 27.9979C67.6088 28.6524 64.3878 28.6742 61.0766 28.0475C55.5789 27.0032 51.0165 24.3787 49.9804 21.642C49.7744 21.1335 49.7148 20.5764 49.8082 20.0349C50.0664 18.6959 51.2956 17.6112 53.3529 16.9342C53.4521 17.2086 53.7399 17.5958 54.2499 18.1528L54.2932 18.2C55.337 19.3537 56.8381 20.3301 58.8858 21.1819C60.8398 21.995 62.93 22.4213 65.0432 22.4376C65.7592 22.4445 66.4749 22.4087 67.1867 22.3303C69.2536 22.1065 70.7834 21.5814 71.8589 20.7436C71.9807 20.6544 72.0957 20.5561 72.2029 20.4494C73.6915 21.6694 74.5071 22.9954 74.4936 24.2189C74.4909 24.3724 74.4753 24.5254 74.4472 24.6763Z" fill="#FFA98E"/>
</g>
</g>
</svg>
