<svg width="99" height="80" viewBox="0 0 99 80" fill="none" xmlns="http://www.w3.org/2000/svg">
<g id="Group 3060" opacity="0.5">
<g id="Group 28">
<g id="Group 6">
<path id="Vector 2" d="M50.4455 4.4703C51.1494 24.402 47.2193 57.7192 45.1664 71.8864C52.4985 69.5415 86.8129 78.3348 91.5055 75.6968C96.198 73.0588 100.891 -1.39197 96.4913 0.0736005C86.5196 4.17719 53.6716 -2.85753 50.4455 4.4703Z" fill="#8ED6FF"/>
<path id="Vector 3" d="M55.5237 10.4651C61.6555 9.44436 77.3606 7.7091 91.1272 8.93399" stroke="#FFE3B0" stroke-width="2" stroke-linecap="round"/>
<path id="Vector 4" d="M55.5237 15.0208C61.6555 14 77.3606 12.2648 91.1272 13.4897" stroke="#FFE3B0" stroke-width="2" stroke-linecap="round"/>
<path id="Vector 5" d="M55.5237 20.2268C61.6555 19.2061 77.3606 17.4708 91.1272 18.6957" stroke="#FFE3B0" stroke-width="2" stroke-linecap="round"/>
<path id="Vector 6" d="M53.9001 54.6913C60.1173 54.7171 75.8933 55.6498 89.2593 59.1737" stroke="#FFE3B0" stroke-width="2" stroke-linecap="round"/>
<path id="Vector 7" d="M53.9001 59.8978C60.1173 59.9237 75.8933 60.8564 89.2593 64.3802" stroke="#FFE3B0" stroke-width="2" stroke-linecap="round"/>
<path id="Vector 8" d="M53.2528 64.453C59.47 64.4788 75.246 65.4115 88.612 68.9354" stroke="#FFE3B0" stroke-width="2" stroke-linecap="round"/>
<path id="Vector 9" d="M55.5534 46.3017C56.4932 44.2174 56.7281 31.3446 56.7281 25.1687C56.7296 24.3002 88.1513 25.1687 89.9133 25.1687C91.6754 25.1687 91.3817 54.4075 89.9133 51.2231C88.445 48.0387 54.3787 48.9071 55.5534 46.3017Z" fill="#FFE3B0"/>
<g id="Group 3036">
<path id="Vector" d="M80.2518 44.3621L65.9326 43.9102L65.8812 45.5546L80.2004 46.0066L80.2518 44.3621Z" fill="#8ED6FF"/>
<path id="Vector_2" d="M73.6427 27.6132L73.5725 27.611C73.2711 27.6015 73.0191 27.8394 73.0096 28.1424L72.4765 45.2138C72.4671 45.5168 72.7037 45.7702 73.0051 45.7797L73.0754 45.7819C73.3768 45.7914 73.6288 45.5535 73.6382 45.2505L74.1713 28.1791C74.1808 27.8761 73.9441 27.6227 73.6427 27.6132Z" fill="#8ED6FF"/>
<path id="Vector_3" d="M78.2869 41.5324L68.0717 41.21C67.3525 41.1873 66.7512 41.7551 66.7286 42.4781L66.7241 42.6252C66.7015 43.3482 67.2662 43.9527 67.9853 43.9754L78.2006 44.2978C78.9197 44.3205 79.521 43.7527 79.5436 43.0297L79.5482 42.8827C79.5708 42.1597 79.0061 41.5551 78.2869 41.5324Z" fill="#FFA98E"/>
<path id="Vector_4" d="M77.2703 38.7304L69.26 38.4776C68.5408 38.4549 67.9395 39.0226 67.9169 39.7456L67.9123 39.8927C67.8898 40.6157 68.4544 41.2202 69.1736 41.2429L77.184 41.4958C77.9031 41.5184 78.5044 40.9507 78.527 40.2277L78.5316 40.0806C78.5542 39.3576 77.9895 38.7531 77.2703 38.7304Z" fill="#8ED6FF"/>
<path id="Vector_5" d="M76.552 35.9403L70.1525 35.7384C69.4333 35.7157 68.832 36.2834 68.8094 37.0064L68.8049 37.1535C68.7823 37.8765 69.347 38.481 70.0661 38.5037L76.4657 38.7057C77.1848 38.7284 77.7861 38.1606 77.8087 37.4376L77.8133 37.2905C77.8358 36.5675 77.2712 35.963 76.552 35.9403Z" fill="#FFA98E"/>
<path id="Vector_6" d="M75.9332 33.1522L70.9441 32.9947C70.2249 32.972 69.6236 33.5397 69.6011 34.2627L69.5965 34.4098C69.5739 35.1328 70.1386 35.7373 70.8577 35.76L75.8469 35.9175C76.566 35.9402 77.1673 35.3725 77.1899 34.6495L77.1945 34.5024C77.2171 33.7794 76.6524 33.1749 75.9332 33.1522Z" fill="#8ED6FF"/>
<path id="Vector_7" d="M75.1461 30.3578L71.9039 30.2555C71.1847 30.2328 70.5834 30.8005 70.5608 31.5235L70.5563 31.6706C70.5337 32.3936 71.0984 32.9981 71.8175 33.0208L75.0597 33.1231C75.7789 33.1458 76.3802 32.5781 76.4027 31.8551L76.4073 31.708C76.4299 30.985 75.8652 30.3805 75.1461 30.3578Z" fill="#FFA98E"/>
</g>
</g>
<g id="Group 5">
<path id="Vector 10" d="M4.54537 31.5785C7.58465 44.6935 9.3043 67.2809 9.78421 76.9352C14.3065 74.427 38.0258 75.7861 40.7731 73.4273C43.5203 71.0684 36.9863 21.1269 34.2805 22.6707C28.2483 26.6879 5.72145 26.3031 4.54537 31.5785Z" fill="#8ED6FF"/>
<path id="Vector 11" d="M8.51743 34.5199C12.4345 33.0515 22.5796 29.8657 31.8229 28.8694" stroke="#FFE3B0" stroke-width="2" stroke-linecap="round"/>
<path id="Vector 12" d="M9.16452 37.7743C13.0816 36.3059 23.2267 33.12 32.47 32.1238" stroke="#FFE3B0" stroke-width="2" stroke-linecap="round"/>
<path id="Vector 13" d="M9.81203 41.0282C13.7291 39.5598 23.8742 36.374 33.1175 35.3777" stroke="#FFE3B0" stroke-width="2" stroke-linecap="round"/>
<path id="Vector 14" d="M13.4786 63.83C17.5856 63.047 28.1192 61.6273 37.3977 62.213" stroke="#FFE3B0" stroke-width="2" stroke-linecap="round"/>
<path id="Vector 15" d="M14.1261 67.0839C18.2331 66.3009 28.7667 64.8812 38.0452 65.4669" stroke="#FFE3B0" stroke-width="2" stroke-linecap="round"/>
<path id="Vector 16" d="M14.1261 70.9892C18.2331 70.2062 28.7667 68.7865 38.0452 69.3721" stroke="#FFE3B0" stroke-width="2" stroke-linecap="round"/>
<path id="Vector 17" d="M13.69 58.724C14.0379 57.2044 12.5102 48.5469 11.7029 44.4081C11.5904 43.8258 32.4444 40.305 33.6075 40.075C34.7706 39.8449 38.3989 59.478 37.0134 57.5356C35.6279 55.5933 13.2552 60.6234 13.69 58.724Z" fill="#FFE3B0"/>
</g>
</g>
<g id="Group 3029">
<g id="Group">
<g id="&#208;&#160;&#194;&#160;&#208;&#160;&#194;&#181;&#208;&#160;&#194;&#182;&#208;&#160;&#209;&#145;&#208;&#160;&#209;&#152; &#208;&#160;&#209;&#145;&#208;&#160;&#194;&#183;&#208;&#160;&#209;&#149;&#208;&#160;&#194;&#187;&#208;&#161;&#208;&#143;&#208;&#161;&#226;&#128;&#160;&#208;&#160;&#209;&#145;&#208;&#160;&#209;&#145;">
<path id="Vector_8" d="M20.3331 46.0217C21.3394 45.0105 22.6789 44.4043 24.0991 44.3175C25.5193 44.2306 26.922 44.6691 28.0428 45.5503C28.2284 45.6966 28.4051 45.854 28.5719 46.0217C29.2243 46.6779 29.7122 47.4805 29.9957 48.3634C30.2792 49.2462 30.3501 50.1842 30.2026 51.1C30.055 52.0158 29.6933 52.8832 29.1471 53.631C28.6009 54.3788 27.8859 54.9855 27.0609 55.4011C25.8236 56.0243 24.406 56.1844 23.062 55.8526C21.7181 55.5208 20.5355 54.7188 19.726 53.5904C18.9165 52.4619 18.5331 51.0806 18.6443 49.6937C18.7556 48.3069 19.3542 47.0052 20.3331 46.0217Z" fill="#FFE3B0"/>
<path id="Vector_9" d="M18.7944 48.7718C20.1537 47.6952 22.8739 47.1118 24.7901 48.5144C25.07 48.72 25.3232 48.96 25.5438 49.2288C25.248 49.3322 24.9687 49.4783 24.7146 49.6623C23.633 50.411 22.0699 52.1632 22.1857 55.5591C20.911 55.0168 19.8697 54.0361 19.2484 52.7925C18.627 51.549 18.4661 50.1237 18.7944 48.7718Z" fill="#8ED6FF"/>
<path id="Vector_10" d="M25.5652 49.256C25.8952 49.1314 26.2419 49.0575 26.5938 49.0365C27.9087 48.964 29.2086 49.3465 30.2771 50.1203C30.2851 51.2147 29.9881 52.2895 29.4196 53.2228C28.8512 54.1562 28.0341 54.9108 27.0609 55.4012C27.7796 53.5533 27.4517 51.6684 26.2668 50.0725C26.0529 49.7836 25.8184 49.5108 25.5652 49.256Z" fill="#FFA98E"/>
<path id="Vector_11" d="M23.824 44.3418C25.3346 44.1745 26.8503 44.6086 28.0463 45.5512C27.8666 46.6602 27.3761 47.773 26.3978 48.6264C26.1399 48.8511 25.8603 49.0492 25.5632 49.218C25.6459 49.0654 25.6944 48.6824 25.671 48.1857C25.6117 47.0296 25.159 45.2558 23.824 44.3418Z" fill="#CDC1FF"/>
<path id="Vector_12" d="M26.514 49.8066C26.0648 50.12 25.4306 49.9773 25.0901 49.4878C24.7496 48.9982 24.8377 48.3471 25.2841 48.0337C25.7306 47.7203 26.3676 47.8639 26.7116 48.3534C27.0557 48.8429 26.9605 49.4941 26.514 49.8066Z" fill="#FFCECE"/>
</g>
</g>
</g>
</g>
</svg>
