<svg width="93" height="85" viewBox="0 0 93 85" fill="none" xmlns="http://www.w3.org/2000/svg">
<g id="Group 25" opacity="0.5">
<path id="Vector" d="M72.129 39.1654C73.8297 30.2952 75.3945 20.4398 75.1082 18.9996C74.0445 17.8666 65.0065 12.3822 63.0644 11.5083C61.9402 12.6566 57.9535 18.2387 54.4707 23.379C54.4127 23.4724 54.3368 23.5531 54.2474 23.6161C54.1581 23.6791 54.0572 23.7231 53.9508 23.7456C53.8443 23.7681 53.7346 23.7686 53.6282 23.7469C53.5217 23.7253 53.4208 23.6821 53.3314 23.6198C53.2419 23.5575 53.1659 23.4775 53.1078 23.3845C53.0497 23.2915 53.0108 23.1876 52.9933 23.0788C52.9759 22.97 52.9803 22.8587 53.0063 22.7516C53.0323 22.6445 53.0793 22.5437 53.1445 22.4553C61.7583 9.7405 62.4639 9.76349 62.9701 9.78142C64.1201 9.8149 75.5849 16.8785 76.4591 18.0799C76.7494 18.4848 77.2025 19.1003 75.4868 29.5208C74.6636 34.5132 73.7249 39.4229 73.714 39.4715C73.694 39.577 73.6537 39.6776 73.5954 39.7675C73.5371 39.8573 73.462 39.9346 73.3743 39.9951C73.2866 40.0555 73.188 40.0978 73.0843 40.1195C72.9806 40.1413 72.8738 40.1421 72.7699 40.1218L72.7499 40.1194C72.5437 40.0749 72.3632 39.95 72.2472 39.7717C72.1311 39.5933 72.0887 39.3757 72.129 39.1654Z" fill="#8ED6FF"/>
<path id="Vector_2" d="M82.546 54.2564C74.7877 72.4962 67.2716 80.6295 67.2716 80.6295C54.067 82.203 26.8607 77.3171 26.8607 77.3171C12.7389 62.655 4.45684 42.667 4.45684 42.667C5.20675 32.4198 9.66126 18.8432 9.66126 18.8432L82.546 54.2564Z" fill="#FFA98E"/>
<path id="Vector_3" d="M28.4909 74.9476C33.1436 75.7413 54.443 79.2038 66.0432 78.1818C67.8852 75.9129 73.3098 68.6834 79.0532 55.7809L11.6679 22.9046C10.3848 27.3107 8.19783 35.5414 7.59516 42.3397C9.07403 45.7143 16.6602 62.2999 28.4909 74.9476Z" fill="#FFA98E"/>
<path id="Vector_4" d="M32.939 51.1931C33.1677 50.4582 33.9621 50.0767 34.6824 50.3441L36.2391 50.922C36.9518 51.1866 37.3091 51.9874 37.0384 52.6991C35.7404 56.1121 32.2311 65.7088 30.2664 74.6513C30.0839 75.4819 29.2014 75.9569 28.4152 75.6367L28.1378 75.5237C27.5678 75.2916 27.2247 74.7034 27.315 74.0935C28.5635 65.6643 31.7807 54.9148 32.939 51.1931Z" fill="#8ED6FF"/>
<path id="Vector_5" d="M36.5312 62.6315C43.7871 64.2163 58.5714 67.0053 74.4095 67.4394C74.8584 67.4517 75.2307 67.0972 75.24 66.6502C75.2492 66.2034 74.8918 65.8334 74.4432 65.8209C54.045 65.2567 35.3912 60.754 32.6204 60.0572C32.4725 60.0201 32.332 59.9574 32.2053 59.8727C18.4641 50.686 10.4919 36.9792 8.73647 33.7486C8.52424 33.358 8.04842 33.2063 7.64885 33.4025C7.24213 33.6022 7.07471 34.0828 7.29016 34.4807C9.09583 37.8152 17.3527 52.0213 31.6123 61.4298C31.6857 61.4781 31.7674 61.5145 31.8525 61.5371C31.9138 61.553 33.6184 61.9965 36.5312 62.6315Z" fill="#8ED6FF"/>
<path id="Vector_6" d="M34.0204 68.8113C41.249 70.3947 55.9725 73.1813 71.7482 73.6024C72.1958 73.6143 72.5675 73.2574 72.5773 72.8077C72.587 72.3583 72.231 71.9864 71.7836 71.9744C51.7945 71.4379 33.4871 67.0711 30.2713 66.2661C30.0611 66.2135 29.8718 66.1089 29.7104 65.964C15.0563 52.7989 9.38557 42.5626 8.02585 39.8138C7.82644 39.4106 7.3474 39.2244 6.93343 39.3976C6.52109 39.5701 6.32689 40.0392 6.52104 40.4429C7.87506 43.2588 13.583 53.7553 29.0293 67.5381C29.1243 67.6226 29.2378 67.6838 29.3604 67.7166C29.4199 67.7323 31.1127 68.1739 34.0204 68.8113Z" fill="#8ED6FF"/>
<path id="Vector_7" d="M39.1638 56.2926C46.3941 57.8731 61.1262 60.6564 76.9063 61.0844C77.3541 61.0965 77.7257 60.7413 77.7352 60.2935C77.7447 59.846 77.3883 59.4755 76.9407 59.4633C56.6754 58.9109 38.1365 54.4402 35.2897 53.7219C35.1313 53.6819 34.9858 53.6148 34.853 53.5196C32.4662 51.8096 17.1882 40.4366 11.0235 26.2962C10.844 25.8845 10.3701 25.6858 9.95435 25.8557C9.5379 26.0259 9.33781 26.5016 9.51736 26.9141C16.3584 42.6316 33.5089 54.5742 34.248 55.0824C34.3251 55.1357 34.411 55.1754 34.5015 55.1998C34.5592 55.2153 36.253 55.656 39.1638 56.2926Z" fill="#8ED6FF"/>
<path id="Vector_8" d="M55.1298 78.9135C55.516 79.137 56.0082 78.9991 56.2235 78.6C57.5773 76.0895 62.223 67.246 66.8686 55.6751C67.0363 55.2574 66.8409 54.7798 66.4327 54.6122C66.0248 54.4447 65.5588 54.6502 65.3912 55.0676C60.7713 66.5746 56.1597 75.3496 54.8283 77.8187C54.6172 78.2103 54.7511 78.6941 55.1298 78.9135Z" fill="#8ED6FF"/>
<path id="Vector_9" d="M43.0404 77.3057C42.9558 77.7509 43.2377 78.1712 43.6641 78.2507C44.0864 78.3294 44.4913 78.0437 44.5751 77.6028C45.1642 74.5021 47.4514 62.9072 50.3749 53.9213C50.5144 53.4927 50.299 53.0303 49.8908 52.8861C49.4841 52.7425 49.0395 52.969 48.9005 53.3961C45.9434 62.4757 43.6358 74.1715 43.0404 77.3057Z" fill="#8ED6FF"/>
<path id="Vector_10" d="M18.0612 63.8388C18.0068 64.2874 18.3167 64.6885 18.7467 64.7346C19.1769 64.7807 19.5643 64.4539 19.6189 64.0052C20.7654 54.5851 24.1717 44.9658 25.1711 42.2787C25.325 41.8648 25.1372 41.4121 24.7456 41.2468C24.3381 41.0747 23.8668 41.2802 23.7068 41.7109C22.6749 44.4899 19.2239 54.2595 18.0612 63.8388Z" fill="#8ED6FF"/>
<path id="Vector_11" d="M10.5739 50.6749C10.485 51.0979 10.7698 51.5049 11.2044 51.5895C11.6621 51.6785 12.126 51.3768 12.2203 50.9314C12.8011 48.1877 14.8422 39.1627 17.6335 32.5921C17.8092 32.1784 17.6171 31.6986 17.1959 31.5168C16.7746 31.335 16.2836 31.52 16.1075 31.9336C13.1915 38.7801 11.1424 47.9722 10.5739 50.6749Z" fill="#8ED6FF"/>
<path id="Vector_12" d="M11.1851 8.73854L87.7951 47.2861C87.7204 50.752 85.2581 55.6877 85.2581 55.6877C65.7459 57.5944 33.8599 52.0261 33.8599 52.0261C16.4903 38.2662 7.29244 17.8367 7.29244 17.8367C7.29244 17.8367 8.72959 12.5373 11.1851 8.73854Z" fill="#8ED6FF"/>
<path id="Vector_13" d="M87.8618 47.273C61.301 28.9539 49.978 15.8211 49.978 15.8211C39.043 14.9331 25.9387 12.3925 11.4333 8.78174C18.6277 29.5267 36.5257 44.534 36.5257 44.534C59.926 49.8085 87.8618 47.273 87.8618 47.273Z" fill="#FFA98E"/>
<path id="Vector_14" d="M14.4416 11.4146C17.156 17.8631 20.8511 23.6647 24.4988 28.4795C30.2334 36.0395 35.8386 41.1448 37.2944 42.423L37.3636 42.4313C44.4088 43.9758 51.881 44.8136 58.856 45.2348C66.5446 45.6814 74.2512 45.7298 81.9451 45.3797C61.513 30.8274 51.3013 20.1898 48.876 17.5291C41.1908 16.856 32.3279 15.4083 21.8148 13.1049C19.4551 12.5893 16.9869 12.0229 14.4416 11.4146Z" fill="#FFCECE"/>
<path id="Vector_15" d="M24.5946 28.7119C30.3308 36.2436 35.9365 41.3307 37.3924 42.6043L37.4615 42.6126C44.5052 44.1541 51.9753 44.9919 58.9481 45.4145C50.3206 38.2265 45.5536 33.2456 43.9949 31.5462C38.2517 31.0495 31.8502 30.1115 24.5946 28.7119Z" fill="#8ED6FF"/>
<path id="Vector_16" d="M28.0141 41.4569C27.8314 41.3434 27.7009 41.1615 27.651 40.951C27.6011 40.7404 27.6358 40.5184 27.7476 40.3333C32.3185 32.8172 38.8018 21.584 38.9095 20.1485C38.8298 18.4896 30.3848 6.25044 28.397 4.30862C26.6346 5.33215 19.6215 13.3162 13.5444 20.8277C13.4077 20.9928 13.2121 21.0969 13.0001 21.1175C12.7881 21.138 12.5767 21.0735 12.4119 20.9377C12.2471 20.8019 12.1421 20.606 12.1197 20.3923C12.0973 20.1787 12.1594 19.9646 12.2924 19.7966C12.3266 19.7526 15.8369 15.4178 19.5047 11.1877C27.1923 2.31692 28.0933 2.47516 28.7312 2.61546C29.5895 2.80459 32.6776 7.05506 35.1167 10.5924C38.7267 15.8084 40.5505 19.0314 40.5262 20.1681C40.4924 22.347 31.7835 36.8049 29.1265 41.1858C29.0141 41.3702 28.8339 41.5022 28.6254 41.553C28.4169 41.6038 28.1971 41.5693 28.0141 41.4569Z" fill="#8ED6FF"/>
</g>
</svg>
