<svg width="89" height="80" viewBox="0 0 89 80" fill="none" xmlns="http://www.w3.org/2000/svg">
<g id="Group" opacity="0.5">
<g id="OBJECT">
<path id="Vector" d="M37.4915 5.74201L35.1656 5.90969C35.109 5.91743 35.0546 5.93653 35.0057 5.96584C34.9567 5.99516 34.9142 6.03409 34.8807 6.08028C34.8472 6.12647 34.8233 6.17897 34.8106 6.23461C34.798 6.29025 34.7967 6.34789 34.8068 6.40404L35.1478 7.90227C35.1587 7.95889 35.1578 8.01717 35.145 8.07341C35.1322 8.12965 35.1079 8.18263 35.0736 8.22898C35.0393 8.27533 34.9957 8.31405 34.9456 8.34268C34.8956 8.37131 34.8401 8.38923 34.7828 8.39531L33.245 8.51852C33.1885 8.52471 33.1338 8.54261 33.0845 8.57107C33.0353 8.59953 32.9925 8.63794 32.9588 8.68385C32.9252 8.72976 32.9015 8.78216 32.8893 8.83773C32.877 8.89329 32.8764 8.9508 32.8876 9.0066L33.2272 10.5111C33.2384 10.5669 33.2378 10.6244 33.2256 10.68C33.2133 10.7355 33.1896 10.7879 33.156 10.8338C33.1224 10.8798 33.0796 10.9182 33.0303 10.9466C32.981 10.9751 32.9264 10.993 32.8698 10.9992L31.3581 11.154C31.3012 11.1609 31.2463 11.1794 31.1969 11.2085C31.1474 11.2375 31.1045 11.2765 31.0709 11.3229C31.0372 11.3693 31.0135 11.4222 31.0012 11.4782C30.9889 11.5342 30.9883 11.5921 30.9994 11.6484L31.3403 13.1466C31.3505 13.2028 31.3492 13.2604 31.3365 13.316C31.3239 13.3717 31.3 13.4242 31.2665 13.4704C31.233 13.5166 31.1905 13.5555 31.1415 13.5848C31.0925 13.6141 31.0381 13.6332 30.9816 13.641L29.4389 13.7566C29.3824 13.7643 29.328 13.7834 29.279 13.8127C29.23 13.8421 29.1875 13.881 29.154 13.9272C29.1205 13.9734 29.0967 14.0259 29.084 14.0815C29.0713 14.1371 29.07 14.1948 29.0802 14.2509L29.4211 15.7492C29.4322 15.8054 29.4316 15.8634 29.4193 15.9194C29.4071 15.9754 29.3833 16.0282 29.3496 16.0747C29.316 16.1211 29.2731 16.16 29.2236 16.1891C29.1742 16.2181 29.1193 16.2367 29.0624 16.2435L27.5183 16.3654C27.4618 16.3716 27.4071 16.3895 27.3578 16.418C27.3086 16.4464 27.2658 16.4848 27.2322 16.5307C27.1985 16.5767 27.1748 16.6291 27.1626 16.6846C27.1503 16.7402 27.1497 16.7977 27.1609 16.8535L27.5005 18.358C27.5117 18.4138 27.5111 18.4713 27.4989 18.5269C27.4866 18.5824 27.4629 18.6348 27.4293 18.6807C27.3957 18.7266 27.3529 18.7651 27.3036 18.7935C27.2543 18.822 27.1997 18.8399 27.1431 18.8461L25.5991 18.968C25.5422 18.9748 25.4873 18.9934 25.4378 19.0224C25.3884 19.0515 25.3455 19.0904 25.3118 19.1368C25.2781 19.1832 25.2544 19.2361 25.2421 19.2921C25.2298 19.3481 25.2292 19.4061 25.2404 19.4623L25.5813 20.9605C25.5915 21.0167 25.5902 21.0743 25.5775 21.13C25.5648 21.1856 25.541 21.2381 25.5075 21.2843C25.4739 21.3305 25.4314 21.3694 25.3825 21.3987C25.3335 21.4281 25.2791 21.4472 25.2225 21.4549L23.6798 21.5705C23.6233 21.5783 23.5689 21.5974 23.5199 21.6267C23.471 21.656 23.4285 21.6949 23.3949 21.7411C23.3614 21.7873 23.3376 21.8398 23.3249 21.8954C23.3122 21.9511 23.3109 22.0087 23.3211 22.0649L23.662 23.5631C23.6732 23.6194 23.6726 23.6773 23.6603 23.7333C23.648 23.7893 23.6243 23.8422 23.5906 23.8886C23.5569 23.935 23.514 23.974 23.4646 24.003C23.4151 24.0321 23.3602 24.0506 23.3033 24.0575L21.8494 24.2179C21.7928 24.224 21.7382 24.2419 21.6889 24.2704C21.6396 24.2989 21.5968 24.3373 21.5632 24.3832C21.5296 24.4291 21.5059 24.4815 21.4936 24.5371C21.4814 24.5926 21.4808 24.6501 21.492 24.7059L21.8821 26.1883C21.8932 26.2441 21.8927 26.3016 21.8804 26.3571C21.8681 26.4127 21.8444 26.4651 21.8108 26.511C21.7772 26.5569 21.7344 26.5953 21.6851 26.6238C21.6359 26.6523 21.5812 26.6702 21.5246 26.6763L19.9869 26.7996C19.9295 26.8056 19.8741 26.8236 19.824 26.8522C19.7739 26.8808 19.7304 26.9195 19.6961 26.9659C19.6617 27.0122 19.6374 27.0652 19.6247 27.1215C19.6119 27.1777 19.6109 27.236 19.6219 27.2926L19.9628 28.7908C19.974 28.8471 19.9734 28.905 19.9611 28.961C19.9488 29.017 19.925 29.0699 19.8914 29.1163C19.8577 29.1627 19.8148 29.2017 19.7653 29.2307C19.7159 29.2598 19.661 29.2783 19.6041 29.2852L18.0676 29.4021C18.0107 29.409 17.9558 29.4275 17.9064 29.4566C17.8569 29.4856 17.814 29.5246 17.7804 29.571C17.7467 29.6174 17.7229 29.6703 17.7106 29.7263C17.6984 29.7823 17.6978 29.8402 17.7089 29.8965L18.2414 32.1679C18.2598 32.2387 18.3024 32.3008 18.3617 32.3436L21.8645 34.9029C21.9455 34.9519 22.0423 34.9676 22.1346 34.9466C22.2269 34.9257 22.3075 34.8697 22.3593 34.7905L41.2193 8.85238C41.2497 8.81624 41.2728 8.77443 41.287 8.72936C41.3013 8.68429 41.3065 8.63685 41.3024 8.58976C41.2982 8.54267 41.2848 8.49686 41.2629 8.45496C41.2411 8.41307 41.2111 8.37591 41.1748 8.34563L37.6958 5.79786C37.6367 5.75512 37.5641 5.73527 37.4915 5.74201Z" fill="#FFA98E"/>
<path id="Vector_2" d="M82.6631 38.6558L83.2032 40.9223C83.2143 40.9785 83.2137 41.0365 83.2014 41.0925C83.1891 41.1485 83.1654 41.2014 83.1317 41.2478C83.0981 41.2942 83.0552 41.3331 83.0057 41.3622C82.9563 41.3913 82.9014 41.4098 82.8445 41.4166L81.3067 41.5398C81.2501 41.546 81.1955 41.5639 81.1462 41.5924C81.0969 41.6209 81.0541 41.6593 81.0205 41.7052C80.9869 41.7511 80.9632 41.8035 80.9509 41.8591C80.9387 41.9146 80.9381 41.9721 80.9493 42.0279L81.2889 43.5324C81.3001 43.5882 81.2995 43.6457 81.2872 43.7013C81.275 43.7569 81.2513 43.8093 81.2177 43.8552C81.184 43.9011 81.1412 43.9395 81.092 43.968C81.0427 43.9964 80.988 44.0143 80.9315 44.0205L79.3937 44.1437C79.3368 44.1506 79.2819 44.1691 79.2325 44.1982C79.183 44.2272 79.1401 44.2662 79.1064 44.3126C79.0728 44.359 79.049 44.4119 79.0367 44.4679C79.0244 44.5239 79.0239 44.5818 79.035 44.6381L79.3759 46.1363C79.3871 46.1925 79.3865 46.2505 79.3742 46.3065C79.3619 46.3625 79.3382 46.4154 79.3045 46.4618C79.2708 46.5082 79.2279 46.5471 79.1785 46.5762C79.129 46.6053 79.0741 46.6238 79.0172 46.6306L77.4808 46.7476C77.4238 46.7544 77.3689 46.773 77.3195 46.802C77.27 46.8311 77.2271 46.87 77.1935 46.9164C77.1598 46.9629 77.1361 47.0157 77.1238 47.0717C77.1115 47.1277 77.1109 47.1857 77.122 47.2419L77.4629 48.7402C77.4741 48.7964 77.4735 48.8544 77.4612 48.9104C77.4489 48.9664 77.4252 49.0192 77.3915 49.0656C77.3578 49.1121 77.3149 49.151 77.2655 49.1801C77.216 49.2091 77.1611 49.2277 77.1042 49.2345L75.5665 49.3577C75.5099 49.3639 75.4552 49.3818 75.406 49.4103C75.3567 49.4387 75.3139 49.4771 75.2803 49.5231C75.2467 49.569 75.223 49.6214 75.2107 49.6769C75.1984 49.7325 75.1979 49.79 75.209 49.8458L75.5487 51.3503C75.5598 51.4061 75.5593 51.4636 75.547 51.5192C75.5347 51.5747 75.511 51.6271 75.4774 51.673C75.4438 51.719 75.401 51.7574 75.3517 51.7858C75.3025 51.8143 75.2478 51.8322 75.1912 51.8384L73.6535 51.9616C73.5966 51.9684 73.5417 51.987 73.4922 52.016C73.4428 52.0451 73.3999 52.084 73.3662 52.1305C73.3325 52.1769 73.3088 52.2297 73.2965 52.2857C73.2842 52.3417 73.2836 52.3997 73.2947 52.4559L73.6357 53.9542C73.6468 54.0104 73.6462 54.0684 73.6339 54.1244C73.6216 54.1804 73.5979 54.2332 73.5642 54.2797C73.5306 54.3261 73.4877 54.365 73.4382 54.3941C73.3888 54.4231 73.3339 54.4417 73.2769 54.4485L71.7405 54.5655C71.6836 54.5723 71.6287 54.5908 71.5792 54.6199C71.5298 54.649 71.4869 54.6879 71.4532 54.7343C71.4195 54.7807 71.3958 54.8336 71.3835 54.8896C71.3712 54.9456 71.3706 55.0036 71.3818 55.0598L71.7227 56.558C71.7338 56.6143 71.7333 56.6722 71.721 56.7282C71.7087 56.7843 71.6849 56.8371 71.6513 56.8835C71.6176 56.9299 71.5747 56.9689 71.5252 56.9979C71.4758 57.027 71.4209 57.0455 71.364 57.0524L69.8262 57.1756C69.7689 57.1815 69.7134 57.1994 69.6635 57.2282C69.6136 57.257 69.5703 57.296 69.5364 57.3426C69.5026 57.3893 69.4789 57.4426 69.4671 57.4989C69.4552 57.5553 69.4553 57.6136 69.4675 57.67L69.8084 59.1682C69.8196 59.224 69.819 59.2815 69.8068 59.337C69.7945 59.3926 69.7708 59.445 69.7372 59.4909C69.7036 59.5368 69.6608 59.5752 69.6115 59.6037C69.5622 59.6322 69.5076 59.6501 69.451 59.6563L67.9132 59.7795C67.8563 59.7863 67.8014 59.8049 67.752 59.8339C67.7025 59.863 67.6596 59.9019 67.626 59.9483C67.5923 59.9947 67.5686 60.0476 67.5563 60.1036C67.544 60.1596 67.5434 60.2176 67.5545 60.2738L67.8954 61.7721C67.9066 61.8283 67.906 61.8862 67.8937 61.9423C67.8814 61.9983 67.8577 62.0511 67.824 62.0975C67.7903 62.1439 67.7474 62.1829 67.698 62.212C67.6485 62.241 67.5936 62.2595 67.5367 62.2664L65.999 62.3896C65.9424 62.3958 65.8877 62.4137 65.8385 62.4422C65.7892 62.4706 65.7464 62.509 65.7128 62.5549C65.6791 62.6009 65.6555 62.6533 65.6432 62.7088C65.6309 62.7644 65.6304 62.8219 65.6415 62.8777L65.9825 64.3759C65.9936 64.4322 65.993 64.4901 65.9807 64.5461C65.9684 64.6021 65.9447 64.655 65.911 64.7014C65.8773 64.7478 65.8344 64.7868 65.785 64.8158C65.7356 64.8449 65.6807 64.8634 65.6237 64.8703L63.3041 65.0393C63.2321 65.0503 63.1586 65.0349 63.0971 64.9959L59.5881 62.4353C59.5165 62.3745 59.4715 62.2881 59.4629 62.1945C59.4544 62.1009 59.4829 62.0077 59.5423 61.9349L78.4337 36.0034C78.4588 35.9635 78.4915 35.929 78.5299 35.9017C78.5684 35.8745 78.6118 35.8551 78.6578 35.8447C78.7037 35.8342 78.7513 35.8329 78.7977 35.8409C78.8442 35.8488 78.8886 35.8658 78.9285 35.8909L82.4388 38.4453C82.4911 38.4582 82.5392 38.4843 82.5785 38.5212C82.6178 38.5581 82.6469 38.6044 82.6631 38.6558Z" fill="#FFA98E"/>
<path id="Vector_3" d="M62.7629 18.4997C50.3945 9.48339 38.9345 4.13277 37.6306 5.92162L18.4468 32.2501C17.1518 34.0277 25.7548 43.3031 38.1294 52.3207C50.5041 61.3382 61.9592 66.6813 63.2667 64.9063L82.4594 38.5666C83.7544 36.789 75.1501 27.5199 62.7629 18.4997Z" fill="#FFE3B0"/>
<path id="Vector_4" d="M64.2811 40.1185C66.8823 32.4785 62.7975 24.1765 55.1576 21.5754C47.5177 18.9743 39.2157 23.059 36.6145 30.6989C34.0134 38.3389 38.0982 46.6409 45.7381 49.242C53.378 51.8431 61.68 47.7584 64.2811 40.1185Z" fill="white"/>
<path id="Vector_5" d="M61.4497 38.5942L57.6873 38.0882C58.0649 35.6276 56.6555 32.636 53.9077 30.6601C51.1599 28.6843 47.9097 28.2331 45.6759 29.3364L44.0417 25.9181C44.0217 25.8741 43.9905 25.8361 43.9513 25.808C43.912 25.7799 43.866 25.7625 43.8179 25.7578C43.7699 25.753 43.7214 25.761 43.6774 25.7809C43.6334 25.8008 43.5953 25.8319 43.5671 25.8711L39.2649 31.7908C39.2378 31.8292 39.221 31.8739 39.216 31.9207C39.2111 31.9675 39.2182 32.0148 39.2367 32.058C39.2552 32.1013 39.2845 32.1391 39.3218 32.1678C39.359 32.1965 39.403 32.2152 39.4495 32.2221L43.2105 32.7344C42.8406 35.19 44.2424 38.1866 46.9915 40.1562C49.7406 42.1257 53.0258 42.5974 55.2233 41.4799L56.8625 44.9058C56.8835 44.9483 56.9152 44.9845 56.9544 45.0112C56.9936 45.0378 57.039 45.0538 57.0862 45.0578C57.1334 45.0618 57.1808 45.0535 57.2239 45.0338C57.2669 45.014 57.3042 44.9835 57.332 44.9452L61.6392 39.0331C61.6683 38.9943 61.6866 38.9485 61.6923 38.9003C61.698 38.8521 61.6909 38.8033 61.6717 38.7587C61.6524 38.7142 61.6218 38.6755 61.5828 38.6466C61.5438 38.6177 61.4979 38.5996 61.4497 38.5942Z" fill="#8ED6FF"/>
<path id="Vector_6" d="M9.54135 30.7662L7.64705 32.1238C7.59693 32.1593 7.55513 32.2053 7.52457 32.2585C7.49402 32.3118 7.47542 32.3711 7.47009 32.4323C7.46477 32.4934 7.47282 32.555 7.49371 32.6128C7.5146 32.6705 7.54781 32.723 7.59105 32.7666L8.67059 33.8631C8.71432 33.9066 8.74784 33.9593 8.76874 34.0173C8.78963 34.0753 8.79738 34.1372 8.79143 34.1986C8.78547 34.26 8.76595 34.3193 8.73428 34.3722C8.70262 34.4251 8.65959 34.4703 8.60832 34.5046L7.37826 35.3467C7.33279 35.3812 7.29501 35.4248 7.26736 35.4748C7.2397 35.5247 7.22277 35.5798 7.21765 35.6367C7.21253 35.6935 7.21933 35.7508 7.23762 35.8048C7.25591 35.8589 7.28529 35.9086 7.32387 35.9506L8.40341 37.0471C8.44714 37.0906 8.48066 37.1432 8.50156 37.2013C8.52246 37.2593 8.5302 37.3212 8.52425 37.3826C8.51829 37.444 8.49877 37.5033 8.4671 37.5562C8.43544 37.6091 8.39241 37.6543 8.34114 37.6886L7.10452 38.5621C7.05905 38.5966 7.02127 38.6402 6.99361 38.6901C6.96596 38.74 6.94903 38.7952 6.94391 38.852C6.93879 38.9088 6.94559 38.9661 6.96388 39.0202C6.98217 39.0742 7.01154 39.1239 7.05012 39.1659L8.12967 40.2624C8.1729 40.306 8.20612 40.3585 8.22701 40.4163C8.24789 40.474 8.25595 40.5356 8.25062 40.5968C8.24529 40.658 8.2267 40.7173 8.19614 40.7705C8.16559 40.8238 8.12379 40.8698 8.07367 40.9052L6.83705 41.7787C6.79158 41.8132 6.7538 41.8568 6.72614 41.9067C6.69848 41.9567 6.68155 42.0118 6.67643 42.0686C6.67131 42.1255 6.67812 42.1828 6.69641 42.2368C6.7147 42.2909 6.74407 42.3405 6.78265 42.3826L7.8622 43.4791C7.90052 43.5218 7.92973 43.5719 7.94806 43.6263C7.9664 43.6807 7.97347 43.7382 7.96884 43.7954C7.96422 43.8526 7.94799 43.9083 7.92116 43.959C7.89432 44.0098 7.85744 44.0545 7.81276 44.0905L6.55704 44.9927C6.5118 45.0277 6.47437 45.0717 6.44716 45.122C6.41994 45.1723 6.40354 45.2277 6.39901 45.2847C6.39448 45.3417 6.40192 45.399 6.42084 45.4529C6.43977 45.5069 6.46977 45.5563 6.50891 45.5979L7.58715 46.7007C7.62629 46.7423 7.65629 46.7917 7.67522 46.8457C7.69414 46.8996 7.70158 46.9569 7.69704 47.0139C7.69251 47.0709 7.67611 47.1263 7.6489 47.1766C7.62168 47.2269 7.58426 47.2709 7.53902 47.3059L6.2833 48.2081C6.23806 48.243 6.20063 48.2871 6.17342 48.3373C6.1462 48.3876 6.1298 48.443 6.12527 48.5C6.12074 48.557 6.12817 48.6143 6.1471 48.6683C6.16603 48.7222 6.19602 48.7716 6.23517 48.8133L7.3134 49.916C7.35198 49.9581 7.38136 50.0077 7.39965 50.0618C7.41794 50.1158 7.42474 50.1731 7.41962 50.23C7.4145 50.2868 7.39757 50.342 7.36991 50.3919C7.34226 50.4418 7.30448 50.4854 7.25901 50.5199L6.01583 51.4247C5.97035 51.4592 5.93257 51.5028 5.90492 51.5527C5.87726 51.6027 5.86033 51.6578 5.85521 51.7146C5.85009 51.7715 5.85689 51.8288 5.87518 51.8828C5.89347 51.9369 5.92285 51.9865 5.96143 52.0286L7.03966 53.1313C7.07824 53.1734 7.10762 53.2231 7.12591 53.2771C7.1442 53.3312 7.151 53.3885 7.14588 53.4453C7.14076 53.5021 7.12383 53.5573 7.09617 53.6072C7.06851 53.6571 7.03074 53.7007 6.98526 53.7352L5.74208 54.6401C5.69661 54.6745 5.65883 54.7181 5.63117 54.7681C5.60352 54.818 5.58659 54.8731 5.58146 54.93C5.57634 54.9868 5.58315 55.0441 5.60144 55.0982C5.61973 55.1522 5.6491 55.2019 5.68768 55.2439L6.76592 56.3467C6.80417 56.3888 6.83338 56.4383 6.85176 56.4921C6.87014 56.546 6.8773 56.603 6.87279 56.6597C6.86828 56.7164 6.8522 56.7716 6.82554 56.8218C6.79889 56.8721 6.76221 56.9163 6.71779 56.9519L5.46834 57.8554C5.42287 57.8899 5.38509 57.9335 5.35743 57.9834C5.32977 58.0333 5.31284 58.0885 5.30772 58.1453C5.3026 58.2022 5.30941 58.2594 5.3277 58.3135C5.34599 58.3676 5.37536 58.4172 5.41394 58.4593L6.49218 59.562C6.53132 59.6037 6.56132 59.6531 6.58025 59.707C6.59917 59.761 6.60661 59.8183 6.60208 59.8753C6.59754 59.9322 6.58114 59.9877 6.55393 60.0379C6.52671 60.0882 6.48929 60.1322 6.44405 60.1672L5.1946 61.0707C5.14354 61.1055 5.10084 61.1512 5.06962 61.2044C5.03839 61.2577 5.01941 61.3173 5.01404 61.3788C5.00868 61.4404 5.01708 61.5023 5.03862 61.5602C5.06016 61.6181 5.09431 61.6705 5.1386 61.7135L6.75726 63.3614C6.80743 63.4141 6.87498 63.4468 6.94742 63.4536L11.2688 63.8214C11.3637 63.8237 11.4557 63.7883 11.5246 63.723C11.5935 63.6577 11.6337 63.5677 11.6363 63.4728L14.3723 31.4828C14.3799 31.3919 14.3524 31.3014 14.2957 31.2299C14.2389 31.1585 14.157 31.1113 14.0666 31.0981L9.74522 30.7303C9.67516 30.7166 9.60252 30.7294 9.54135 30.7662Z" fill="#FFA98E"/>
<path id="Vector_7" d="M65.2355 35.4854L66.8541 37.1333C66.8933 37.175 66.9233 37.2244 66.9422 37.2783C66.9611 37.3323 66.9685 37.3896 66.964 37.4465C66.9595 37.5035 66.9431 37.5589 66.9159 37.6092C66.8887 37.6595 66.8512 37.7035 66.806 37.7385L65.5503 38.6407C65.505 38.6757 65.4676 38.7197 65.4404 38.77C65.4132 38.8202 65.3968 38.8757 65.3922 38.9326C65.3877 38.9896 65.3951 39.0469 65.4141 39.1009C65.433 39.1548 65.463 39.2042 65.5021 39.2459L66.5804 40.3486C66.619 40.3907 66.6483 40.4403 66.6666 40.4944C66.6849 40.5485 66.6917 40.6057 66.6866 40.6626C66.6815 40.7194 66.6645 40.7746 66.6369 40.8245C66.6092 40.8744 66.5715 40.918 66.526 40.9525L65.2703 41.8547C65.2258 41.8903 65.1892 41.9345 65.1625 41.9848C65.1358 42.035 65.1198 42.0902 65.1153 42.1469C65.1107 42.2036 65.1179 42.2606 65.1363 42.3145C65.1547 42.3683 65.1839 42.4178 65.2221 42.4599L66.3004 43.5627C66.3389 43.6047 66.3683 43.6544 66.3866 43.7084C66.4049 43.7625 66.4117 43.8198 66.4066 43.8766C66.4015 43.9335 66.3845 43.9886 66.3569 44.0385C66.3292 44.0884 66.2914 44.132 66.246 44.1665L65.0503 45.0944C64.999 45.1287 64.956 45.1739 64.9244 45.2268C64.8927 45.2797 64.8732 45.339 64.8672 45.4004C64.8613 45.4618 64.869 45.5237 64.8899 45.5817C64.9108 45.6398 64.9443 45.6924 64.988 45.7359L66.0676 46.8324C66.1058 46.8745 66.1351 46.924 66.1534 46.9778C66.1718 47.0317 66.179 47.0887 66.1745 47.1454C66.17 47.2021 66.1539 47.2573 66.1272 47.3075C66.1006 47.3578 66.0639 47.402 66.0195 47.4376L64.7637 48.3398C64.7125 48.3741 64.6694 48.4193 64.6378 48.4722C64.6061 48.5251 64.5866 48.5844 64.5806 48.6458C64.5747 48.7072 64.5824 48.7691 64.6033 48.8271C64.6242 48.8851 64.6577 48.9378 64.7015 48.9813L65.781 50.0778C65.8202 50.1194 65.8502 50.1688 65.8691 50.2228C65.888 50.2767 65.8955 50.334 65.8909 50.391C65.8864 50.448 65.87 50.5034 65.8428 50.5537C65.8156 50.604 65.7781 50.648 65.7329 50.6829L64.4772 51.5852C64.4261 51.6199 64.3834 51.6656 64.3522 51.7189C64.321 51.7722 64.302 51.8317 64.2966 51.8933C64.2913 51.9548 64.2997 52.0168 64.3212 52.0746C64.3427 52.1325 64.3769 52.1849 64.4212 52.228L65.5007 53.3244C65.5399 53.3661 65.5699 53.4155 65.5888 53.4694C65.6077 53.5234 65.6152 53.5807 65.6106 53.6377C65.6061 53.6947 65.5897 53.7501 65.5625 53.8004C65.5353 53.8506 65.4978 53.8947 65.4526 53.9296L64.1969 54.8319C64.1467 54.8673 64.1049 54.9133 64.0744 54.9666C64.0438 55.0198 64.0252 55.0791 64.0199 55.1403C64.0146 55.2014 64.0226 55.263 64.0435 55.3208C64.0644 55.3785 64.0976 55.431 64.1409 55.4747L65.2204 56.5711C65.2641 56.6146 65.2977 56.6673 65.3186 56.7253C65.3395 56.7833 65.3472 56.8453 65.3412 56.9066C65.3353 56.968 65.3158 57.0273 65.2841 57.0802C65.2524 57.1331 65.2094 57.1784 65.1581 57.2126L63.9303 57.9505C63.8802 57.986 63.8384 58.0319 63.8078 58.0852C63.7772 58.1385 63.7586 58.1977 63.7533 58.2589C63.748 58.3201 63.756 58.3817 63.7769 58.4394C63.7978 58.4972 63.831 58.5497 63.8743 58.5933L64.9538 59.6898C64.9975 59.7333 65.0311 59.7859 65.052 59.8439C65.0729 59.902 65.0806 59.9639 65.0746 60.0253C65.0687 60.0867 65.0492 60.146 65.0175 60.1989C64.9858 60.2518 64.9428 60.297 64.8915 60.3313L63.6489 61.1708C63.6035 61.2053 63.5657 61.2489 63.538 61.2988C63.5104 61.3487 63.4935 61.4039 63.4883 61.4607C63.4832 61.5175 63.49 61.5748 63.5083 61.6289C63.5266 61.683 63.556 61.7326 63.5945 61.7747L64.6741 62.8711C64.7178 62.9146 64.7513 62.9673 64.7722 63.0253C64.7931 63.0833 64.8009 63.1453 64.7949 63.2066C64.789 63.268 64.7695 63.3273 64.7378 63.3802C64.7061 63.4331 64.6631 63.4784 64.6118 63.5126L63.3624 64.4162C63.3169 64.4506 63.2791 64.4942 63.2515 64.5442C63.2238 64.5941 63.2069 64.6492 63.2018 64.7061C63.1966 64.7629 63.2034 64.8202 63.2217 64.8743C63.24 64.9283 63.2694 64.978 63.308 65.02L64.3875 66.1165C64.4308 66.1601 64.464 66.2126 64.4849 66.2704C64.5057 66.3281 64.5138 66.3897 64.5085 66.4509C64.5031 66.5121 64.4846 66.5713 64.454 66.6246C64.4234 66.6779 64.3816 66.7238 64.3315 66.7593L62.4741 68.0658C62.4137 68.1084 62.3399 68.1278 62.2663 68.1205L57.9409 67.7715C57.8477 67.7573 57.7638 67.7071 57.7073 67.6316C57.6509 67.5561 57.6264 67.4614 57.6392 67.368L60.3551 35.3803C60.3578 35.2846 60.3979 35.1938 60.4669 35.1275C60.5359 35.0611 60.6282 35.0245 60.7239 35.0255L65.0453 35.3933C65.1169 35.403 65.1835 35.4353 65.2355 35.4854Z" fill="#FFA98E"/>
<path id="Vector_8" d="M37.7483 28.5603C22.519 27.2708 9.9397 28.6435 9.77796 30.8547L7.00393 63.308C6.81347 65.5001 18.9814 68.9698 34.2433 70.2596C49.5052 71.5494 62.0744 70.1942 62.2612 67.9883L65.019 35.5185C65.2019 33.3314 53.034 29.8617 37.7483 28.5603Z" fill="#FFE3B0"/>
<path id="Vector_9" d="M47.4978 58.4419C52.4856 52.0971 51.3855 42.9103 45.0408 37.9225C38.696 32.9347 29.5092 34.0347 24.5214 40.3795C19.5335 46.7242 20.6336 55.9111 26.9783 60.8989C33.3231 65.8867 42.51 64.7867 47.4978 58.4419Z" fill="white"/>
<path id="Vector_10" d="M47.0962 46.4419L43.5873 47.9459C42.6328 45.6582 39.8647 43.8417 36.5061 43.5642C33.1476 43.2866 30.1116 44.5951 28.7824 46.6928L25.6056 44.6403C25.5658 44.6148 25.5202 44.6 25.473 44.5973C25.4259 44.5946 25.3788 44.604 25.3364 44.6247C25.2939 44.6454 25.2575 44.6766 25.2306 44.7154C25.2037 44.7543 25.1873 44.7993 25.1828 44.8463L24.5598 52.1383C24.5552 52.1862 24.5634 52.2346 24.5833 52.2784C24.6033 52.3223 24.6344 52.3601 24.6736 52.3882C24.7127 52.4163 24.7586 52.4336 24.8065 52.4384C24.8545 52.4432 24.9029 52.4354 24.9468 52.4156L28.4244 50.905C29.3776 53.199 32.147 55.0092 35.5042 55.293C38.8614 55.5768 41.8987 54.2621 43.2293 52.1581L46.4022 54.2294C46.4419 54.2549 46.4876 54.2697 46.5347 54.2724C46.5819 54.2752 46.6289 54.2657 46.6714 54.2451C46.7138 54.2244 46.7502 54.1931 46.7771 54.1543C46.804 54.1155 46.8205 54.0704 46.8249 54.0234L47.4519 46.7127C47.453 46.669 47.4438 46.6257 47.4249 46.5864C47.4061 46.547 47.3781 46.5127 47.3434 46.4862C47.3086 46.4598 47.2681 46.4419 47.2251 46.4342C47.1822 46.4265 47.138 46.4291 47.0962 46.4419Z" fill="#8ED6FF"/>
</g>
</g>
</svg>
