<svg width="33" height="12" viewBox="0 0 33 12" fill="none" xmlns="http://www.w3.org/2000/svg">
<g id="NEW">
<path d="M0.880152 12.0005C0.768641 12.0005 0.677404 11.9605 0.606443 11.8805C0.535481 11.8005 0.5 11.6976 0.5 11.5719V0.42906C0.5 0.303346 0.535481 0.200488 0.606443 0.120489C0.677404 0.0404884 0.768641 0.000488281 0.880152 0.000488281H2.492C2.66433 0.000488281 2.78598 0.0462027 2.85694 0.137631C2.93804 0.217631 2.98873 0.280488 3.009 0.326202L6.71929 6.9262V0.42906C6.71929 0.303346 6.75477 0.200488 6.82573 0.120489C6.89669 0.0404884 6.98793 0.000488281 7.09944 0.000488281H8.92417C9.03568 0.000488281 9.12691 0.0404884 9.19788 0.120489C9.26884 0.200488 9.30432 0.303346 9.30432 0.42906V11.5719C9.30432 11.6862 9.26884 11.7891 9.19788 11.8805C9.12691 11.9605 9.03568 12.0005 8.92417 12.0005H7.29712C7.13492 12.0005 7.01327 11.9548 6.93217 11.8633C6.86121 11.7719 6.81559 11.7091 6.79532 11.6748L3.08503 5.33192V11.5719C3.08503 11.6976 3.04955 11.8005 2.97859 11.8805C2.90763 11.9605 2.81639 12.0005 2.70488 12.0005H0.880152Z" fill="#FFE3B0"/>
<path d="M11.9616 12.0005C11.8501 12.0005 11.7588 11.9605 11.6879 11.8805C11.6169 11.8005 11.5814 11.6976 11.5814 11.5719V0.42906C11.5814 0.303346 11.6169 0.200488 11.6879 0.120489C11.7588 0.0404884 11.8501 0.000488281 11.9616 0.000488281H19.0628C19.1743 0.000488281 19.2656 0.0404884 19.3365 0.120489C19.4075 0.200488 19.443 0.303346 19.443 0.42906V2.04049C19.443 2.1662 19.4075 2.26906 19.3365 2.34906C19.2656 2.42906 19.1743 2.46906 19.0628 2.46906H14.2121V4.78335H18.7283C18.8398 4.78335 18.931 4.82906 19.002 4.92049C19.073 5.00049 19.1084 5.10335 19.1084 5.22906V6.72049C19.1084 6.83477 19.073 6.93763 19.002 7.02906C18.931 7.10906 18.8398 7.14906 18.7283 7.14906H14.2121V9.53192H19.1845C19.296 9.53192 19.3872 9.57192 19.4582 9.65192C19.5291 9.73192 19.5646 9.83477 19.5646 9.96049V11.5719C19.5646 11.6976 19.5291 11.8005 19.4582 11.8805C19.3872 11.9605 19.296 12.0005 19.1845 12.0005H11.9616Z" fill="#FFE3B0"/>
<path d="M23.1483 12.0005C22.9759 12.0005 22.8391 11.9433 22.7377 11.8291C22.6363 11.7148 22.5755 11.5833 22.5552 11.4348L20.8978 0.480488C20.8876 0.457631 20.8826 0.434774 20.8826 0.411917C20.8826 0.38906 20.8826 0.371917 20.8826 0.360489C20.8826 0.26906 20.913 0.18906 20.9738 0.120489C21.0448 0.0404884 21.1208 0.000488281 21.2019 0.000488281H23.0874C23.3713 0.000488281 23.5284 0.126203 23.5588 0.377631L24.5472 7.08049L25.6421 3.12049C25.6725 3.02906 25.7232 2.93192 25.7941 2.82906C25.8651 2.71477 25.9817 2.65763 26.1439 2.65763H27.2387C27.411 2.65763 27.5327 2.71477 27.6036 2.82906C27.6746 2.93192 27.7202 3.02906 27.7405 3.12049L28.8353 7.06335L29.8237 0.377631C29.8541 0.126203 30.0113 0.000488281 30.2951 0.000488281H32.1807C32.2719 0.000488281 32.3479 0.0404884 32.4088 0.120489C32.4696 0.18906 32.5 0.26906 32.5 0.360489C32.5 0.371917 32.5 0.38906 32.5 0.411917C32.5 0.434774 32.5 0.457631 32.5 0.480488L30.8425 11.4348C30.8223 11.5833 30.7614 11.7148 30.6601 11.8291C30.5587 11.9433 30.4218 12.0005 30.2495 12.0005H28.8049C28.6326 12.0005 28.5008 11.9491 28.4096 11.8462C28.3183 11.7433 28.2575 11.6462 28.2271 11.5548L26.6913 6.65192L25.1555 11.5548C25.1251 11.6462 25.0642 11.7433 24.973 11.8462C24.8919 11.9491 24.7652 12.0005 24.5928 12.0005H23.1483Z" fill="#FFE3B0"/>
</g>
</svg>
