<svg width="40" height="35" viewBox="0 0 40 35" fill="none" xmlns="http://www.w3.org/2000/svg">
<g id="Group 3040">
<g id="Group">
<g id="OBJECTS">
<path id="Vector" d="M27.4651 0.385043C23.9016 1.5638 20.2884 8.24269 24.1824 12.3124C28.0763 16.3821 35.7908 12.2221 36.4192 8.96543C37.0477 5.7088 34.0025 -1.77457 27.4651 0.385043Z" fill="#8ED6FF"/>
<path id="Vector_2" d="M36.9785 26.1935C33.678 35.2958 18.403 36.1121 11.6282 34.0863C4.8534 32.0605 -0.132286 23.5108 0.565117 21.4829C0.680252 21.1444 0.903854 20.8536 1.20105 20.6559C2.50894 19.761 5.0887 20.4774 5.20953 20.5114C5.0993 20.4179 3.63666 19.1892 4.38282 17.9201C5.15229 16.6064 7.96523 16.9721 7.96523 16.9721C7.96523 16.9721 7.59638 15.2715 8.52696 14.6699C10.1401 13.6347 17.201 16.9019 22.0574 16.4406C26.9138 15.9794 26.9329 12 26.9329 12L34.2737 12.0574C32.8025 13.4731 36.2387 16.7637 37.2413 21.0726C37.6602 22.7681 37.5688 24.5501 36.9785 26.1935Z" fill="#8ED6FF"/>
<path id="Vector_3" d="M25.2319 28.1035C22.0437 30.4275 14.4726 31.0711 10.5511 27.4001C8.86342 25.8202 8.30229 24.3172 8.55948 23.385C8.62143 23.1428 8.7546 22.9251 8.94156 22.7604C9.12851 22.5956 9.36056 22.4914 9.60735 22.4614C8.30229 21.1123 8.94844 18.8268 10.7679 19.2544C10.5128 17.4734 13.2611 17.5889 17.0232 19.6007C20.7854 21.6126 27.1449 18.2324 27.1449 18.2324C27.5317 18.4911 28.061 19.3869 28.3309 20.5992C28.7943 22.6966 28.4712 25.7432 25.2319 28.1035Z" fill="#FFE3B0"/>
<path id="Vector_4" d="M32.735 8.35183C32.1559 8.82611 32.609 10.6456 34.519 10.9582C36.429 11.2709 39.426 9.76206 39.4951 8.62465C39.5642 7.48723 38.8855 7.04653 38.6681 7.54179C38.4507 8.03705 37.8696 8.27629 36.9756 8.2574C36.0815 8.23851 36.364 5.37608 32.735 8.35183Z" fill="#FFE3B0"/>
<path id="Vector_5" d="M31.6714 6.79514C31.7172 6.87576 31.7852 6.93764 31.8653 6.97144C31.9453 7.00524 32.0331 7.00915 32.1153 6.98257C32.1903 6.94464 32.257 6.88893 32.3107 6.81934C32.3645 6.74974 32.4039 6.66792 32.4264 6.57958C32.485 6.37964 32.509 6.16909 32.497 5.95916C32.4969 5.73221 32.4515 5.50813 32.3642 5.30313C32.1355 4.81954 31.737 4.95824 31.5755 5.41184C31.4561 5.77922 31.4713 6.48024 31.6714 6.79514Z" fill="#FFE3B0"/>
<path id="Vector_6" d="M34.9088 5.90719C34.9685 5.96722 35.0432 6 35.1202 6C35.1972 6 35.2718 5.96722 35.3315 5.90719C35.4412 5.7636 35.5015 5.57305 35.4997 5.37567C35.5032 5.15629 35.474 4.93799 35.4133 4.73174C35.3593 4.51854 35.267 4.32316 35.1433 4.16021C34.8347 3.79252 34.5262 4.10496 34.5015 4.61934C34.4814 5.0156 34.6666 5.6843 34.9088 5.90719Z" fill="#FFE3B0"/>
<path id="Vector_7" d="M27.5848 8.94288C27.7191 9.2951 27.9595 9.58599 28.2657 9.76687C28.4753 9.9078 28.7139 9.98802 28.9594 10C29.2316 9.98616 29.4977 9.90728 29.7392 9.76888C30.0192 9.62619 30.3103 9.43728 30.4329 9.12376C30.5555 8.81024 30.486 8.48064 30.4146 8.16512C30.3788 7.93811 30.3002 7.72181 30.184 7.53004C30.0547 7.36717 29.8896 7.24332 29.7044 7.1703C29.35 7.00471 28.9589 6.95854 28.5805 7.03766C28.3917 7.07209 28.2122 7.15218 28.0549 7.27211C27.8977 7.39205 27.7667 7.54884 27.6714 7.73116C27.5761 7.91348 27.5189 8.11676 27.504 8.32632C27.489 8.53588 27.5166 8.74647 27.5848 8.94288Z" fill="#FFCECE"/>
<path id="Vector_8" d="M31.5 0.592129C30.2589 -0.0506042 28.8681 -0.174295 27.559 0.241632C26.8582 0.478455 26.1594 0.892893 25.7768 1.62231L26.4252 1.47784C25.977 1.72515 25.5756 2.07584 25.2449 2.50911C24.9142 2.94237 24.6609 3.44937 24.5 4L29.6956 1.92544" fill="#8ED6FF"/>
<g id="Vector_9">
<path d="M25.2352 27.1844C22.0463 29.4093 14.4738 30.0254 10.5515 26.511C8.86349 24.9984 8.30225 23.5595 8.55949 22.667C9.45238 24.4314 11.3615 25.6329 13.3492 26.1692C17.3714 27.256 21.8167 25.9993 25.1183 23.5328C26.413 22.5647 27.5823 21.398 28.3263 20C28.7983 22.0079 28.4751 24.9247 25.2352 27.1844Z" fill="#FFE3B0"/>
<path d="M25.2352 27.1844C22.0463 29.4093 14.4738 30.0254 10.5515 26.511C8.86349 24.9984 8.30225 23.5595 8.55949 22.667C9.45238 24.4314 11.3615 25.6329 13.3492 26.1692C17.3714 27.256 21.8167 25.9993 25.1183 23.5328C26.413 22.5647 27.5823 21.398 28.3263 20C28.7983 22.0079 28.4751 24.9247 25.2352 27.1844Z" fill="black" fill-opacity="0.05"/>
</g>
<g id="Vector_10">
<path d="M36.984 26.4047C33.6831 35.2887 18.4057 36.0854 11.6299 34.1082C4.85407 32.131 -0.132381 23.7864 0.565128 21.8071C0.680283 21.4767 0.903915 21.1929 1.20116 21C1.30978 21.0622 1.40838 21.1398 1.49373 21.2303C1.91775 21.695 2.04071 22.359 2.10219 22.9876C2.16368 23.6162 2.19548 24.2677 2.52621 24.8113C2.84211 24.6557 2.98203 24.3009 3.16224 24.0063C3.34245 23.7117 3.68166 23.4274 4.01027 23.5519C4.33889 23.6764 4.39401 24.0333 4.43429 24.3466C4.49154 24.8445 4.53394 25.3424 4.56786 25.8404C4.64983 25.6916 4.78279 25.5759 4.94335 25.5137C5.1039 25.4515 5.28175 25.4466 5.44558 25.5001C5.90564 25.691 6.11341 26.2076 6.29361 26.6661C6.79819 27.9856 7.45118 29.2906 8.49639 30.2575C9.90413 31.5625 11.861 32.1247 13.7648 32.4712C16.646 33.0065 19.7011 33.16 22.4381 32.1164C23.2861 31.7949 24.0748 31.3675 24.9483 31.1621C25.8218 30.9567 26.8267 31.0189 27.5115 31.5915C27.9906 30.7192 28.7806 30.0495 29.7312 29.7097C29.9983 29.6185 30.3842 29.6081 30.4648 29.8716C32.6633 28.3861 34.9445 26.8238 36.2123 24.5229C36.7385 23.5526 37.0859 22.4991 37.2384 21.4108C37.6593 23.0635 37.5707 24.8011 36.984 26.4047Z" fill="#8ED6FF"/>
<path d="M36.984 26.4047C33.6831 35.2887 18.4057 36.0854 11.6299 34.1082C4.85407 32.131 -0.132381 23.7864 0.565128 21.8071C0.680283 21.4767 0.903915 21.1929 1.20116 21C1.30978 21.0622 1.40838 21.1398 1.49373 21.2303C1.91775 21.695 2.04071 22.359 2.10219 22.9876C2.16368 23.6162 2.19548 24.2677 2.52621 24.8113C2.84211 24.6557 2.98203 24.3009 3.16224 24.0063C3.34245 23.7117 3.68166 23.4274 4.01027 23.5519C4.33889 23.6764 4.39401 24.0333 4.43429 24.3466C4.49154 24.8445 4.53394 25.3424 4.56786 25.8404C4.64983 25.6916 4.78279 25.5759 4.94335 25.5137C5.1039 25.4515 5.28175 25.4466 5.44558 25.5001C5.90564 25.691 6.11341 26.2076 6.29361 26.6661C6.79819 27.9856 7.45118 29.2906 8.49639 30.2575C9.90413 31.5625 11.861 32.1247 13.7648 32.4712C16.646 33.0065 19.7011 33.16 22.4381 32.1164C23.2861 31.7949 24.0748 31.3675 24.9483 31.1621C25.8218 30.9567 26.8267 31.0189 27.5115 31.5915C27.9906 30.7192 28.7806 30.0495 29.7312 29.7097C29.9983 29.6185 30.3842 29.6081 30.4648 29.8716C32.6633 28.3861 34.9445 26.8238 36.2123 24.5229C36.7385 23.5526 37.0859 22.4991 37.2384 21.4108C37.6593 23.0635 37.5707 24.8011 36.984 26.4047Z" fill="black" fill-opacity="0.05"/>
</g>
<path id="Vector_11" d="M30.528 3.94316C30.6461 4.18791 32.728 3.58989 32.4794 3.14656C32.2309 2.70324 30.2425 3.35206 30.528 3.94316Z" fill="#FFE3B0"/>
<path id="Vector_12" d="M33.5002 2.44604C33.4747 2.78369 35.4836 3.34741 35.4999 2.71028C35.5162 2.07316 33.5584 1.62394 33.5002 2.44604Z" fill="#FFE3B0"/>
</g>
</g>
</g>
</svg>
