<svg width="60" height="60" viewBox="0 0 60 60" fill="none" xmlns="http://www.w3.org/2000/svg">
<g id="Group 38">
<circle id="Ellipse 4" cx="30" cy="30.0001" r="30.0001" fill="#CDC1FF"/>
<g id="Group 3036">
<path id="Vector" d="M44.5 43.2876H15.5V46.6004H44.5V43.2876Z" fill="#FFE3B0"/>
<path id="Vector_2" d="M30.0696 10H29.9274C29.317 10 28.8221 10.4948 28.8221 11.1052V45.4951C28.8221 46.1056 29.317 46.6004 29.9274 46.6004H30.0696C30.68 46.6004 31.1749 46.1056 31.1749 45.4951V11.1052C31.1749 10.4948 30.68 10 30.0696 10Z" fill="#FFE3B0"/>
<path id="Vector_3" d="M40.3457 37.7173H19.6572C18.2007 37.7173 17.02 38.898 17.02 40.3545V40.6508C17.02 42.1072 18.2007 43.2879 19.6572 43.2879H40.3457C41.8021 43.2879 42.9828 42.1072 42.9828 40.6508V40.3545C42.9828 38.898 41.8021 37.7173 40.3457 37.7173Z" fill="#FFA98E"/>
<path id="Vector_4" d="M38.1116 32.1436H21.8885C20.432 32.1436 19.2513 33.3243 19.2513 34.7807V35.077C19.2513 36.5335 20.432 37.7142 21.8885 37.7142H38.1116C39.568 37.7142 40.7487 36.5335 40.7487 35.077V34.7807C40.7487 33.3243 39.568 32.1436 38.1116 32.1436Z" fill="#8ED6FF"/>
<path id="Vector_5" d="M36.4819 26.5732H23.5212C22.0647 26.5732 20.884 27.7539 20.884 29.2104V29.5067C20.884 30.9632 22.0647 32.1439 23.5212 32.1439H36.4819C37.9383 32.1439 39.119 30.9632 39.119 29.5067V29.2104C39.119 27.7539 37.9383 26.5732 36.4819 26.5732Z" fill="#FFA98E"/>
<path id="Vector_6" d="M35.0535 21.002H24.9493C23.4928 21.002 22.3121 22.1827 22.3121 23.6391V23.9354C22.3121 25.3919 23.4928 26.5726 24.9493 26.5726H35.0535C36.51 26.5726 37.6907 25.3919 37.6907 23.9354V23.6391C37.6907 22.1827 36.51 21.002 35.0535 21.002Z" fill="#8ED6FF"/>
<path id="Vector_7" d="M33.2846 15.4287H26.7183C25.2619 15.4287 24.0812 16.6094 24.0812 18.0659V18.3622C24.0812 19.8187 25.2619 20.9994 26.7183 20.9994H33.2846C34.7411 20.9994 35.9218 19.8187 35.9218 18.3622V18.0659C35.9218 16.6094 34.7411 15.4287 33.2846 15.4287Z" fill="#FFA98E"/>
</g>
</g>
</svg>
